<svg width="293" height="344" viewBox="0 0 293 344" fill="none" xmlns="http://www.w3.org/2000/svg">
<rect x="0.5" y="0.5" width="292" height="343" rx="4.5" stroke="none" stroke-dasharray="10 5"/>
<g style="mix-blend-mode:exclusion" filter="url(#filter0_d_6_15)">
<path d="M267 20H20V330H267V20Z" fill="none"/>
<path d="M258.8 31H28V319.39H258.8V31Z" fill="none"/>
<path d="M257.84 227.94C258.97 226.74 258.97 226.18 258.04 224.85C257.57 224.18 257.1 223.45 257.64 222.53C257.749 222.327 257.784 222.093 257.741 221.867C257.697 221.641 257.577 221.438 257.4 221.29C256.78 220.7 256.17 220.1 255.58 219.48C254.79 218.64 253.67 217.9 253.32 216.9C252.9 215.69 252.21 215.63 251.26 215.54C250.699 215.531 250.159 215.327 249.733 214.961C249.308 214.596 249.023 214.093 248.93 213.54C248.85 212.905 248.709 212.279 248.51 211.67C248.49 211.392 248.363 211.133 248.156 210.947C247.949 210.761 247.678 210.662 247.4 210.67C244.9 210.67 242.78 209.49 240.73 208.38C238.718 207.248 236.856 205.868 235.19 204.27C233.56 202.612 231.756 201.133 229.81 199.86C227.253 198.42 224.556 197.244 221.76 196.35C219.862 195.607 218.003 194.77 216.19 193.84C214.52 193.07 212.87 192.17 211.24 191.27C209.251 190.3 207.373 189.116 205.64 187.74C204.04 186.34 203.7 185.47 204.36 183.5C204.47 183.16 204.63 183.07 204.92 183.21C205.326 183.466 205.816 183.556 206.287 183.461C206.758 183.366 207.175 183.094 207.45 182.7C207.669 182.457 207.943 182.272 208.25 182.16C208.905 181.825 209.476 181.346 209.919 180.759C210.362 180.172 210.667 179.492 210.81 178.77C210.964 177.884 210.759 176.974 210.242 176.238C209.724 175.503 208.936 175.004 208.05 174.85C207.53 174.76 206.996 174.79 206.49 174.94C204.519 175.371 202.508 175.599 200.49 175.62C198.675 175.468 196.85 175.492 195.04 175.69C194.77 175.764 194.485 175.771 194.212 175.71C193.938 175.649 193.683 175.522 193.47 175.34C193.108 174.995 192.678 174.728 192.209 174.556C191.739 174.384 191.239 174.311 190.74 174.34C190.109 174.324 189.488 174.17 188.922 173.891C188.356 173.611 187.857 173.212 187.46 172.72C187.095 172.219 186.625 171.804 186.082 171.503C185.54 171.203 184.938 171.024 184.32 170.98C183.699 171.017 183.083 170.846 182.569 170.495C182.055 170.144 181.672 169.632 181.48 169.04C181.07 168.04 180.64 166.94 179.3 166.76C179.145 166.713 179.006 166.623 178.9 166.5C177.323 165.071 176.007 163.379 175.01 161.5C174.761 161.025 174.421 160.604 174.009 160.261C173.597 159.918 173.122 159.659 172.61 159.5C172.296 159.42 172.01 159.258 171.78 159.03C169.78 156.69 167.69 154.36 166.91 151.26C166.13 148.16 165.16 145.32 164.96 142.2C164.86 140.61 164.79 138.92 163.83 137.63C163.078 136.55 162.611 135.298 162.47 133.99C162.207 132.127 161.614 130.326 160.72 128.67C160.512 128.251 160.219 127.881 159.859 127.583C159.499 127.285 159.08 127.066 158.63 126.94C157.381 126.552 156.222 125.92 155.22 125.08C153.482 123.592 151.867 121.967 150.39 120.22C148.895 118.82 147.212 117.635 145.39 116.7C144.691 116.342 144.022 115.927 143.39 115.46C142.29 114.56 141.39 113.46 140.31 112.55C137.56 110.11 136.43 106.94 136.01 103.42C135.76 101.42 136.11 99.32 135.51 97.29C135.243 96.4781 135.243 95.6019 135.51 94.79C135.73 94.23 135.97 93.66 135.4 93.12C135.26 92.98 135.3 92.81 135.46 92.62C136.08 91.93 137.85 92.15 138.14 93C138.22 93.23 138.23 93.46 138.54 93.4C138.85 93.34 138.76 93.1 138.78 92.92C138.805 92.6974 138.805 92.4726 138.78 92.25C138.71 91.79 138.56 91.25 139.18 91.15C139.8 91.05 139.8 91.56 139.88 91.97C139.883 92.085 139.93 92.1943 140.012 92.2747C140.095 92.355 140.205 92.4 140.32 92.4C140.74 92.4 140.63 92.07 140.67 91.84C140.8 91.05 140.88 90.25 141.04 89.45C141.37 87.75 141.04 87.51 139.44 87.12C138.76 86.96 138.74 87.75 138.22 87.65C138.059 87.195 138.001 86.7101 138.05 86.23C138.081 86.1226 138.07 86.0071 138.018 85.9082C137.965 85.8092 137.876 85.7345 137.77 85.7H137.65C137.07 85.62 137.07 85.6 137.43 85.14C137.868 84.6158 138.08 83.9393 138.02 83.2588C137.96 82.5783 137.633 81.9494 137.11 81.51C136.85 81.2933 136.551 81.1271 136.23 81.02C135.75 80.85 135.23 80.52 135.32 79.96C135.46 78.72 135.11 77.28 136.55 76.49C136.72 76.4 136.77 76.2 136.86 76.02C137.32 75.1 137.86 74.18 138.98 73.97C139.559 73.916 140.121 73.7402 140.627 73.4542C141.134 73.1681 141.575 72.7782 141.92 72.31C141.973 72.228 142.057 72.1704 142.152 72.1498C142.248 72.1292 142.348 72.1472 142.43 72.2C142.96 72.52 143.86 72.78 143.84 73.3C143.82 73.82 142.94 74.02 142.31 73.93C141.68 73.84 141.48 74.2 141.31 74.63C141.14 75.06 141.1 75.28 141.43 75.53C141.597 75.6371 141.794 75.6881 141.991 75.6755C142.189 75.6629 142.378 75.5874 142.53 75.46C143.86 74.68 145.28 74.08 146.61 73.3C147.153 72.9585 147.771 72.7527 148.41 72.7C150.01 72.62 150.54 71.7 150 70.22C149.89 69.89 149.68 69.56 150 69.22C150.43 69.5 151 69.54 151 70.31C151 70.7 151.37 71 151.93 71.06C152.686 71.085 153.442 70.994 154.17 70.79C154.448 70.745 154.701 70.6027 154.885 70.3884C155.068 70.1742 155.169 69.9019 155.17 69.62C155.216 69.4055 155.177 69.1817 155.061 68.9954C154.945 68.809 154.762 68.6745 154.55 68.62C153.92 68.34 154.33 68 154.69 67.87C155.152 67.6335 155.661 67.5027 156.18 67.4871C156.699 67.4715 157.215 67.5716 157.69 67.78C158.19 68.06 158.69 68.32 159.19 68.59C159.93 69 160.99 69.41 160.69 70.66C160.678 70.717 160.689 70.7764 160.721 70.8251C160.753 70.8739 160.803 70.908 160.86 70.92H160.93C161.828 70.1218 162.664 69.2559 163.43 68.33L166.8 71.5C167.29 71.96 167.36 72.3 166.59 72.55C166.16 72.69 165.67 72.9 165.95 73.55C165.983 73.6775 166.04 73.7973 166.119 73.9025C166.198 74.0078 166.297 74.0964 166.411 74.1633C166.524 74.2302 166.649 74.274 166.78 74.2923C166.91 74.3107 167.043 74.3031 167.17 74.27C167.226 74.259 167.28 74.2387 167.33 74.21C168.094 73.9128 168.709 73.325 169.041 72.5754C169.372 71.8258 169.394 70.9753 169.1 70.21C169.044 70.1151 168.98 70.0248 168.91 69.94C168.246 68.847 167.352 67.9119 166.29 67.2C165.53 66.68 164.76 66.11 164.94 64.98C165.32 62.7 165.32 62.69 163.09 61.98C162.46 61.77 162.41 61.48 162.77 60.98C163.272 60.3995 163.875 59.915 164.55 59.55C165.15 59.16 165.91 58.85 165.79 57.95C165.736 57.5647 165.566 57.2049 165.304 56.9176C165.042 56.6303 164.699 56.4289 164.32 56.34C163.68 56.11 163.04 55.91 162.38 55.74C161.72 55.57 160.78 55.24 160.73 54.35C160.68 53.68 161.26 53.17 161.82 52.79C163.67 51.3066 165.858 50.3036 168.19 49.87C168.75 49.8 168.81 49.46 168.79 49.06C168.77 48.66 169.12 48.24 168.59 48.15C167.81 48.03 167.09 47.5 166.23 47.84C166.108 47.8839 165.977 47.8978 165.848 47.8804C165.719 47.863 165.596 47.8148 165.49 47.74C164.76 46.84 163.64 47.1 162.73 46.85C161.82 46.6 160.89 46.14 159.92 46.7C159.765 46.7549 159.595 46.7549 159.44 46.7C158.44 46.34 157.34 45.94 156.27 45.6C154.69 45.1 153.27 44.04 151.43 44.6C151.03 44.794 150.571 44.8275 150.147 44.6936C149.723 44.5597 149.366 44.2686 149.15 43.88C149.01 43.63 148.62 43.56 148.28 43.53C147.539 43.4183 146.79 43.3615 146.04 43.36C145.393 43.4412 144.738 43.2924 144.19 42.9396C143.641 42.5868 143.234 42.0525 143.04 41.43C142.98 41.2434 142.903 41.0627 142.81 40.89C142.31 39.94 142.07 38.94 140.91 38.65C140.701 38.5912 140.522 38.4554 140.408 38.2699C140.295 38.0844 140.257 37.8629 140.3 37.65V37.56C140.434 37.1962 140.436 36.797 140.306 36.4317C140.177 36.0664 139.923 35.758 139.59 35.56C138.12 34.74 137.59 33.73 138.24 32.11C138.49 31.5 138.11 31.11 137.4 31C136.567 30.9083 135.726 30.9318 134.9 31.07C133.762 31.3861 132.681 31.8824 131.7 32.54C130.92 32.98 130.2 33.54 129.21 32.68C128.568 32.1207 127.76 31.787 126.91 31.73C126.27 31.73 125.91 32.07 125.4 32.25C123.95 32.76 122.46 32.48 121 32.58C120.123 32.5787 119.275 32.887 118.603 33.4505C117.932 34.014 117.481 34.7965 117.33 35.66C117.11 36.47 116.77 37.41 115.68 37.38C114.85 37.38 114.01 37.18 113.18 37.07C112.1 36.94 111.91 36.33 111.68 35.51C111.649 35.3316 111.582 35.1613 111.485 35.0087C111.387 34.8562 111.26 34.7245 111.112 34.6212C110.963 34.518 110.795 34.4453 110.618 34.4073C110.441 34.3694 110.258 34.3669 110.08 34.4H109.98C109.227 34.5692 108.461 34.6696 107.69 34.7C106.17 34.7 105.53 35.58 105.69 37.12C105.85 38.66 106.49 40.4 106.11 42.12C105.98 42.72 105.67 42.98 105.11 42.76C103.772 42.2246 102.667 41.2326 101.99 39.96C101.84 39.7 101.64 39.49 101.38 39.61C100.453 39.9274 99.5822 40.3898 98.8 40.98C97.8 41.83 97.93 43.18 97.3 44.2C97.06 44.6 97.39 44.92 97.89 44.95C98.39 44.98 99.13 45.07 99.74 45.12C100.09 45.12 100.39 45.22 100.45 45.64C100.51 46.06 100.16 46.18 99.87 46.29C99.5634 46.4064 99.2982 46.611 99.1078 46.8779C98.9174 47.1449 98.8103 47.4622 98.8 47.79C98.7576 48.4259 98.6504 49.0559 98.48 49.67C98.4334 49.9315 98.3027 50.1707 98.1078 50.3512C97.9129 50.5317 97.6643 50.6436 97.4 50.67C97 50.67 96.94 50.02 96.94 49.62C96.94 48.44 95.94 47.62 95.79 46.52C95.79 46.32 95.54 46.04 95.32 46.08C94.67 46.22 93.92 46.03 93.38 46.5C92.3947 47.2198 91.26 47.7085 90.06 47.93C89.8463 48.0065 89.6121 48.003 89.4007 47.9203C89.1894 47.8376 89.0151 47.6812 88.91 47.48C88.9065 47.4534 88.9065 47.4266 88.91 47.4C88.71 46.81 88.4 46.29 88.21 45.71C87.5689 43.8294 86.3774 42.1849 84.79 40.99C84.5682 40.8282 84.3111 40.7212 84.04 40.6777C83.7689 40.6343 83.4913 40.6556 83.23 40.74C82.72 40.87 82.9 41.46 82.84 41.85C82.6402 42.7724 82.7203 43.7334 83.07 44.61C83.1517 44.8114 83.1799 45.0305 83.1518 45.2461C83.1238 45.4616 83.0405 45.6662 82.91 45.84C81.73 47.19 81.03 48.9 79.69 50.09C79.2374 50.391 78.8652 50.7979 78.6055 51.2754C78.3459 51.7529 78.2067 52.2865 78.2 52.83C78.2 53.2 77.87 53.36 77.74 53.63C77.44 54.22 76.49 54.56 76.9 55.4C77.31 56.24 78.09 56.99 77.16 57.95C77.16 57.95 77.16 58.07 77.16 58.13C77.34 58.87 76.99 59.43 76.31 59.45C75.6343 59.3975 74.9994 59.106 74.5192 58.6277C74.039 58.1493 73.745 57.5155 73.69 56.84C73.6601 56.1021 73.5799 55.367 73.45 54.64C73.2102 53.8069 73.2102 52.9231 73.45 52.09C73.84 51.09 73.39 50.58 72.27 50.8C71.6644 50.9839 71.0141 50.9541 70.4278 50.7156C69.8416 50.4772 69.3552 50.0444 69.05 49.49C68.5363 48.7123 67.9787 47.9644 67.38 47.25C67.0496 46.9291 66.859 46.4908 66.8497 46.0303C66.8403 45.5697 67.0129 45.1241 67.33 44.79L67.44 44.68C68.1783 43.7952 68.6836 42.7399 68.91 41.61C68.9797 41.3957 68.9682 41.1633 68.8779 40.9568C68.7876 40.7504 68.6247 40.5843 68.42 40.49C67.7937 40.2809 67.114 40.2974 66.4985 40.5367C65.8831 40.7759 65.3707 41.2228 65.05 41.8C64.7466 42.5959 64.1752 43.2611 63.4341 43.6809C62.693 44.1007 61.8286 44.2489 60.99 44.1C60.49 44.1 59.85 43.98 59.56 44.44C59.4398 44.7165 59.3905 45.0187 59.4167 45.319C59.4429 45.6194 59.5437 45.9085 59.71 46.16C60.43 47.85 61.01 48.63 58.82 49.86C57.4854 50.5441 56.3646 51.5819 55.58 52.86C55.388 53.2959 55.0368 53.6421 54.5983 53.8279C54.1597 54.0138 53.6667 54.0252 53.22 53.86C52.82 53.73 52.62 53.38 52.33 53.14C51.27 52.28 49.84 52.27 48.77 51.52C48.01 50.99 47.5 51.33 46.96 51.8C46.74 51.99 46.55 52.2 46.34 52.41C45.9679 52.8759 45.473 53.2286 44.9111 53.4283C44.3492 53.6279 43.7427 53.6666 43.16 53.54C42.1433 53.3134 41.099 53.2359 40.06 53.31C39.66 53.31 39.39 53.07 39.25 52.63C39.05 52.02 38.8 51.48 38.07 52.28C37.7068 52.6018 37.2654 52.8225 36.79 52.92C35.79 53.19 34.84 53.54 33.85 53.78C33.7403 53.7936 33.6343 53.8287 33.5382 53.8834C33.442 53.938 33.3576 54.0111 33.2898 54.0984C33.222 54.1857 33.1721 54.2856 33.1429 54.3923C33.1138 54.4989 33.106 54.6103 33.12 54.72C33.1307 54.837 33.1683 54.95 33.23 55.05C33.922 56.2188 34.8318 57.244 35.91 58.07C36.26 58.34 37.08 58.02 36.98 58.87C36.92 59.39 36.86 59.87 36.77 60.42C36.727 60.6063 36.6489 60.7828 36.54 60.94C36.4575 61.0472 36.3976 61.17 36.3639 61.3009C36.3302 61.4319 36.3234 61.5684 36.344 61.7021C36.3646 61.8357 36.4121 61.9639 36.4836 62.0787C36.5551 62.1935 36.6491 62.2926 36.76 62.37L36.87 62.44C37.4002 62.8974 37.9806 63.2933 38.6 63.62C39.6 64.1 39.6 64.62 38.78 65.24C38.3594 65.5238 38.0374 65.9312 37.8582 66.4058C37.6791 66.8805 37.6518 67.3991 37.78 67.89C37.85 68.29 37.89 68.71 37.99 69.11C38.09 69.51 37.99 69.57 37.72 69.6C35.9 69.75 34.72 70.92 33.53 72.13C33.408 72.2701 33.2517 72.3761 33.0764 72.4375C32.901 72.4988 32.7127 72.5135 32.53 72.48C31.53 72.37 30.53 72.31 29.53 72.19C29.2282 72.1327 28.9159 72.1748 28.64 72.31C28.3641 72.4452 28.1396 72.6663 28 72.94C27.68 73.57 28.29 73.94 28.65 74.27C29.01 74.6 29.32 74.66 29.49 75.05C30.034 76.2765 30.3297 77.5986 30.36 78.94C30.36 79.15 30.36 79.36 30.53 79.47C31.25 79.88 31.87 80.78 32.67 80.68C34.29 80.48 34.86 81.26 35.09 82.62C35.09 82.68 35.18 82.72 35.2 82.78C35.2691 82.9125 35.3112 83.0573 35.324 83.2062C35.3367 83.355 35.3198 83.505 35.2743 83.6472C35.2287 83.7895 35.1554 83.9214 35.0585 84.0351C34.9617 84.1489 34.8432 84.2423 34.71 84.31C34.5543 84.388 34.3839 84.4323 34.21 84.44C33.7935 84.4505 33.3978 84.624 33.108 84.9232C32.8181 85.2224 32.6572 85.6234 32.66 86.04C32.6244 86.5417 32.4384 87.0209 32.1262 87.4152C31.814 87.8094 31.3901 88.1004 30.91 88.25C30.59 88.39 30.24 88.42 30.05 88.8C29.64 89.61 29.86 90.03 31.18 90.58C31.53 90.73 31.97 90.9 31.92 91.22C31.8557 91.3988 31.7327 91.5506 31.5711 91.6505C31.4094 91.7504 31.2187 91.7925 31.03 91.77C30.4 91.68 30.24 92.01 30.33 92.48C30.56 93.77 30.6 95.04 31.79 96.05C33.79 97.73 36.05 98.97 37.79 100.94C37.9624 101.141 38.1891 101.287 38.4429 101.361C38.6966 101.436 38.9665 101.435 39.22 101.36C40.72 100.89 42.5 101.53 43.78 100.19C44.01 99.94 44.4 100.06 44.69 100.19C44.7851 100.235 44.8585 100.317 44.894 100.416C44.9296 100.515 44.9246 100.624 44.88 100.72C44.8829 100.74 44.8829 100.76 44.88 100.78C44.12 101.78 44.64 102.53 45.27 103.31C45.65 103.78 45.8 104.31 45.08 104.64C41.91 106.31 41.14 107.52 41.61 110.72C41.72 111.44 42.04 111.62 42.67 111.72C43.8258 111.828 44.9904 111.802 46.14 111.64C47.772 111.637 49.3857 111.296 50.88 110.64C52.12 110 52.88 108.72 54.01 107.93C54.2243 107.647 54.3178 107.291 54.27 106.94C54.2498 106.665 54.3042 106.39 54.4274 106.144C54.5506 105.897 54.7381 105.689 54.97 105.54C55.91 104.78 56.91 103.94 57.83 103.24C57.9524 103.136 58.1013 103.068 58.2602 103.043C58.4191 103.018 58.5817 103.038 58.73 103.1C59.83 103.54 60.42 103.16 60.63 101.96C60.8908 101.111 61.3441 100.333 61.9547 99.6881C62.5652 99.0428 63.3165 98.5473 64.15 98.24C65.2958 98.1088 66.4316 97.9017 67.55 97.62C67.7712 97.5498 68.0052 97.5296 68.2352 97.5607C68.4652 97.5918 68.6854 97.6736 68.88 97.8C69.7151 98.3029 70.6754 98.5594 71.65 98.54C72.1661 98.517 72.6755 98.664 73.1 98.9585C73.5245 99.2529 73.8407 99.6785 74 100.17C74.23 100.74 74.48 101.45 75.28 101.44C77.83 101.44 79.53 103.25 81.59 104.3C82.0463 104.596 82.4211 105.002 82.68 105.48C83.39 106.64 84.23 107.71 85.03 108.81C85.0834 108.921 85.1581 109.02 85.25 109.101C85.3419 109.183 85.4491 109.246 85.5653 109.286C85.6815 109.326 85.8046 109.342 85.9272 109.334C86.0499 109.327 86.1698 109.294 86.28 109.24C86.3693 109.202 86.4506 109.148 86.52 109.08C86.5868 109.004 86.6681 108.941 86.7591 108.896C86.8501 108.851 86.9491 108.825 87.0504 108.818C87.1517 108.812 87.2533 108.825 87.3494 108.858C87.4454 108.891 87.534 108.943 87.61 109.01C87.6862 109.076 87.7475 109.158 87.79 109.25C88.1315 109.713 88.6058 110.062 89.15 110.25C89.8733 110.428 90.5457 110.77 91.1147 111.251C91.6837 111.731 92.1338 112.337 92.43 113.02C92.9899 114.754 93.8459 116.378 94.96 117.82C95.26 118.19 95.03 118.35 94.58 118.38C93.58 118.46 93.05 119 93.39 119.68C93.7623 120.537 93.9399 121.466 93.91 122.4C93.91 123.45 93.57 124.68 93.99 125.52C94.5097 126.804 95.2064 128.009 96.06 129.1C96.7378 129.894 97.2024 130.847 97.41 131.87C97.5986 133.283 97.5716 134.716 97.33 136.12C97.2267 137.211 96.8853 138.266 96.33 139.21C96.1828 139.448 96.1133 139.726 96.1312 140.006C96.1492 140.285 96.2536 140.552 96.43 140.77C96.5871 140.938 96.7972 141.046 97.0248 141.077C97.2525 141.108 97.4838 141.06 97.68 140.94C97.9521 140.797 98.2665 140.757 98.5657 140.827C98.865 140.896 99.1292 141.072 99.31 141.32C99.59 141.59 99.8 141.92 100.26 141.91C100.556 141.87 100.856 141.926 101.117 142.07C101.378 142.215 101.586 142.439 101.71 142.71C101.91 143.28 101.39 143.63 100.99 144.01C100.35 144.61 100.54 145.09 101.35 145.37C101.833 145.517 102.296 145.722 102.73 145.98C104.09 146.79 104.73 148.3 105.91 149.2C106.912 149.839 107.71 150.752 108.21 151.83C108.62 152.92 109.71 154.07 108.21 155.26C107.72 155.65 108 156.58 108.65 156.87C109.361 157.24 110.16 157.41 110.96 157.36C112.449 157.167 113.959 157.458 115.27 158.19C117.53 159.54 118.6 161.87 119.61 164.19C119.853 164.65 119.957 165.172 119.91 165.69C119.87 166.153 119.974 166.617 120.206 167.019C120.439 167.422 120.789 167.743 121.21 167.94C123.21 169.28 125.61 170.1 127.32 171.94C127.45 172.036 127.591 172.116 127.74 172.18C128.065 172.386 128.33 172.676 128.506 173.019C128.681 173.362 128.762 173.745 128.74 174.13C128.74 174.55 128.67 174.97 128.64 175.39C128.57 176.61 129.07 177.25 130.28 177.31C130.766 177.289 131.246 177.424 131.649 177.696C132.052 177.967 132.358 178.362 132.52 178.82C132.73 179.174 132.971 179.508 133.24 179.82C133.784 180.572 134.24 181.384 134.6 182.24C135.04 183.62 135.52 184.98 137.04 185.7C137.78 186.05 138.6 185.95 139.26 186.29C140.149 186.67 140.953 187.225 141.623 187.923C142.293 188.621 142.816 189.446 143.16 190.35C143.192 190.554 143.263 190.751 143.371 190.927C143.479 191.104 143.62 191.257 143.788 191.379C143.955 191.501 144.145 191.588 144.346 191.637C144.547 191.685 144.756 191.693 144.96 191.66L145.21 191.6C146.21 191.39 147.1 191.04 148.06 190.8C148.8 190.62 149.66 190.11 150.27 190.5C150.934 190.977 151.633 191.405 152.36 191.78C153.48 192.28 154.56 193.07 155.75 191.92C155.913 191.81 156.104 191.748 156.3 191.74C157.9 191.47 160.47 193.16 160.95 195.4C161.19 196.289 161.481 197.164 161.82 198.02C161.889 198.309 162.023 198.578 162.212 198.807C162.401 199.036 162.639 199.218 162.91 199.34C163.443 199.57 163.877 199.982 164.133 200.502C164.39 201.023 164.452 201.617 164.31 202.18C164.25 202.7 164.23 203.46 164.53 203.74C165.47 204.63 166.46 205.74 167.87 205.58C168.615 205.51 169.366 205.617 170.061 205.894C170.757 206.17 171.377 206.607 171.87 207.17C172.78 208 172.68 208.65 171.53 209.17C171.35 209.25 171.15 209.27 170.97 209.35C170.63 209.507 170.352 209.773 170.181 210.107C170.011 210.441 169.957 210.822 170.03 211.19C170.29 211.99 171.03 212.12 171.7 212.07C172.169 211.981 172.621 211.819 173.04 211.59C173.926 211.066 174.982 210.912 175.98 211.16C176.533 211.402 177.151 211.45 177.735 211.298C178.32 211.145 178.835 210.801 179.2 210.32C179.257 210.235 179.331 210.163 179.416 210.107C179.502 210.051 179.598 210.012 179.698 209.994C179.799 209.975 179.902 209.977 180.002 209.998C180.102 210.02 180.196 210.061 180.28 210.12C180.344 210.165 180.401 210.219 180.45 210.28C181.816 211.69 182.941 213.315 183.78 215.09C183.91 215.39 184.03 215.72 183.68 215.85C182.61 216.25 182.08 216.76 182.45 218.07C182.502 218.443 182.421 218.823 182.222 219.142C182.023 219.462 181.718 219.702 181.36 219.82C181.1 219.92 180.64 220.14 180.69 220.45C180.77 220.92 181.27 220.87 181.69 220.91C182.078 220.964 182.469 220.997 182.86 221.01C183.138 220.996 183.413 221.077 183.639 221.241C183.865 221.405 184.027 221.641 184.1 221.91C184.362 222.525 184.843 223.02 185.45 223.3C186.91 224.3 189.02 224.55 189.45 226.76C189.45 226.83 189.57 226.88 189.65 226.94C191.59 228.42 192.85 228.33 194.49 226.57C194.8 226.24 195.24 225.79 195.6 226C196.93 226.76 198.49 227.33 198.75 229.19C198.832 229.695 199.001 230.183 199.25 230.63C200.07 232.197 200.46 233.953 200.38 235.72C200.347 236.057 200.386 236.397 200.494 236.718C200.603 237.039 200.779 237.333 201.01 237.58C201.4 238 201.88 238.43 201.82 239.07C201.802 239.28 201.831 239.492 201.906 239.689C201.98 239.886 202.098 240.064 202.25 240.21C202.918 240.953 203.423 241.829 203.73 242.78C204.291 243.987 204.698 245.261 204.94 246.57C205.03 247.47 204.94 248.38 205.13 249.26C205.412 250.833 205.589 252.423 205.66 254.02C205.75 255.86 206.13 257.3 207.83 258.21C208.032 258.369 208.182 258.585 208.26 258.83C208.454 259.284 208.532 259.779 208.489 260.271C208.445 260.763 208.281 261.237 208.01 261.65C207.51 262.65 206.01 263.65 204.95 263.31C204.545 263.17 204.116 263.112 203.689 263.139C203.261 263.166 202.844 263.279 202.46 263.47C201.644 263.853 200.889 264.355 200.22 264.96C199.22 265.76 199.22 265.96 200.22 266.96C200.867 267.585 201.392 268.324 201.77 269.14C201.874 269.371 201.913 269.627 201.883 269.879C201.853 270.13 201.755 270.369 201.6 270.57C200.81 271.9 199.6 272.92 199.08 274.49C198.984 274.827 198.766 275.116 198.468 275.301C198.17 275.486 197.815 275.553 197.47 275.49C197.08 275.49 196.69 275.4 196.3 275.38C195.14 275.32 194.63 275.88 194.88 277.02C195.06 277.8 195.36 278.55 195.53 279.33C195.701 279.834 195.742 280.374 195.649 280.898C195.556 281.422 195.333 281.915 195 282.33C194.61 282.78 194.4 283.45 195 283.83C195.769 284.435 196.733 284.738 197.71 284.68C199.443 284.313 201.244 284.438 202.91 285.04C203.718 285.178 204.549 285.007 205.236 284.561C205.924 284.114 206.418 283.425 206.62 282.63C206.829 281.264 207.438 279.991 208.37 278.97C208.795 278.62 209.137 278.179 209.37 277.68C209.95 276.12 211.37 275.58 212.68 275.17C214.024 274.76 215.251 274.037 216.26 273.06C216.592 272.748 216.807 272.331 216.87 271.88C217.27 269.49 216.61 267.17 216.5 264.82C216.483 264.723 216.433 264.635 216.36 264.57C215.91 264.12 215.9 263.8 216.54 263.48C216.674 263.391 216.789 263.276 216.879 263.142C216.968 263.008 217.03 262.858 217.06 262.7C217.182 262.186 217.428 261.709 217.777 261.312C218.125 260.914 218.566 260.608 219.06 260.42C219.23 260.34 219.28 260.2 219.4 260.11C220.27 259.44 221.05 258.47 222.16 258.37C223.92 258.21 225.65 258.87 227.43 258.9C228.16 258.9 229.02 259.24 229.43 258.63C229.7 258.222 229.873 257.758 229.937 257.273C230.001 256.788 229.954 256.294 229.8 255.83C229.35 254.51 228.41 253.43 228.37 251.9C228.37 250.03 227.61 248.15 228.87 246.4C229.19 245.96 228.96 245.61 228.47 245.34C227.595 244.951 226.817 244.374 226.19 243.65C225.592 242.803 224.818 242.097 223.92 241.58C222.942 240.985 222.031 240.288 221.2 239.5C220.964 239.206 220.655 238.98 220.304 238.845C219.953 238.71 219.572 238.67 219.2 238.73C218.865 238.754 218.53 238.703 218.217 238.582C217.904 238.461 217.622 238.273 217.39 238.03C215.95 236.91 216.46 235.2 216 233.8C216 233.69 216.1 233.45 216.22 233.38C216.923 232.847 217.591 232.269 218.22 231.65C218.608 231.426 218.893 231.057 219.011 230.625C219.129 230.192 219.071 229.73 218.85 229.34L218.8 229.26C218.519 228.731 218.419 228.125 218.517 227.534C218.615 226.943 218.904 226.4 219.34 225.99C220.498 224.856 221.407 223.494 222.01 221.99C222.851 220.173 223.952 218.488 225.28 216.99C226 216.06 226.96 214.99 228.41 215.37C229.395 215.709 230.355 216.121 231.28 216.6C230.58 216.91 230.16 217.14 229.7 217.3C229.545 217.342 229.412 217.44 229.325 217.575C229.239 217.71 229.205 217.872 229.23 218.03C229.23 218.44 229.54 218.34 229.76 218.44C230.37 218.661 231.012 218.779 231.66 218.79C232.458 218.878 233.219 219.171 233.87 219.64C234.69 220.253 235.58 220.766 236.52 221.17C237.378 221.568 238.333 221.711 239.27 221.58C242.8 220.9 244.89 221.28 245.79 224.12C246.02 224.83 246.99 225.32 246.72 226.12C246.28 227.47 247.92 228.59 247.03 229.93C247.03 229.93 247.11 230.1 247.18 230.17C248.55 231.65 250.01 232.99 252.18 233.26C253.01 233.36 253.81 233.34 254.39 234.18C254.79 234.77 255.55 234.5 256.07 234.26C256.59 234.02 256.59 233.42 256.39 232.89C256.27 232.59 256.11 232.32 255.99 232.02C255.803 231.706 255.726 231.338 255.774 230.975C255.821 230.612 255.989 230.276 256.25 230.02C256.88 229.42 257.48 228.78 258.08 228.14" fill="white"/>
<path d="M193.42 274.23C193.244 274.149 193.048 274.121 192.856 274.15C192.665 274.178 192.485 274.262 192.34 274.39C191.452 274.967 190.53 275.492 189.58 275.96C189.38 276.091 189.157 276.182 188.922 276.226C188.687 276.27 188.445 276.266 188.212 276.216C187.978 276.166 187.757 276.07 187.561 275.933C187.365 275.796 187.198 275.622 187.07 275.42C186.98 275.287 186.91 275.142 186.86 274.99C186.8 274.67 186.91 274.23 186.49 274.24C186.07 274.25 185.84 274.6 185.65 275C185.266 276.009 184.801 276.986 184.26 277.92C184.073 278.264 183.76 278.521 183.387 278.639C183.014 278.756 182.61 278.724 182.26 278.55C182.118 278.471 181.987 278.373 181.87 278.26C181.06 277.47 179.96 277.19 179.1 276.5C178.74 276.2 178.39 276.4 178.1 276.57C177.851 276.72 177.566 276.799 177.275 276.799C176.984 276.799 176.699 276.72 176.45 276.57C176.121 276.372 175.728 276.31 175.354 276.398C174.981 276.485 174.656 276.716 174.45 277.04C174.371 277.178 174.311 277.326 174.27 277.48C173.43 279.54 172.88 279.82 170.69 279.71C169.025 279.482 167.33 279.718 165.79 280.39C165.396 280.612 164.934 280.681 164.491 280.586C164.049 280.49 163.657 280.235 163.39 279.87C162.9 279.39 162.39 278.87 161.55 279.36C161.36 279.47 161.04 279.36 160.78 279.36C159.595 279.307 158.427 279.66 157.47 280.36C156.47 281.23 153.3 281.43 152.27 280.59C151.025 279.754 150.046 278.577 149.45 277.2C148.97 275.85 148.3 275.72 147.45 276.55C146.26 277.7 146.08 277.68 145.54 276.12C145.402 275.696 145.207 275.292 144.96 274.92C144.731 274.545 144.367 274.272 143.943 274.157C143.519 274.041 143.067 274.093 142.68 274.3C142.437 274.449 142.166 274.545 141.883 274.583C141.601 274.621 141.314 274.599 141.04 274.52C140.15 274.2 139.6 274.63 139.04 275.28C138.48 275.93 138.04 276.22 138.25 277.15C138.42 277.84 137.8 278.29 137.1 278.25C136.343 278.249 135.601 278.048 134.947 277.667C134.294 277.286 133.753 276.738 133.38 276.08C132.95 275.431 132.476 274.813 131.96 274.23C131.882 274.123 131.773 274.043 131.647 274.002C131.521 273.961 131.386 273.96 131.26 274C130.98 274.07 130.9 274.26 130.93 274.59C130.943 274.863 130.862 275.132 130.703 275.353C130.543 275.575 130.313 275.736 130.05 275.81C128.41 276.41 127.48 277.93 126.05 278.81C125.758 278.955 125.51 279.177 125.334 279.451C125.158 279.726 125.06 280.044 125.05 280.37C125.051 281.811 124.769 283.238 124.22 284.57C123.82 285.99 124.12 288.24 125.85 288.72C126.361 288.847 126.834 289.095 127.229 289.443C127.624 289.791 127.93 290.229 128.12 290.72C128.177 290.888 128.295 291.029 128.45 291.116C128.605 291.203 128.787 291.229 128.96 291.19C131.11 291.228 133.256 291.382 135.39 291.65C135.604 291.643 135.812 291.716 135.975 291.855C136.138 291.994 136.243 292.188 136.27 292.4C136.52 293.75 136.67 293.88 138.11 293.92C138.577 293.863 139.048 293.991 139.422 294.277C139.796 294.563 140.043 294.984 140.11 295.45C140.115 295.5 140.115 295.55 140.11 295.6C140.14 296.034 140.31 296.446 140.595 296.775C140.88 297.103 141.265 297.33 141.69 297.42C142.316 297.574 142.855 297.97 143.19 298.52C143.598 299.186 144.2 299.712 144.914 300.028C145.629 300.344 146.422 300.436 147.19 300.29C147.75 300.21 148.4 300.15 148.69 300.87C149.202 301.86 149.942 302.714 150.85 303.36C152.02 304.371 153.38 305.139 154.85 305.62C155.47 305.923 156.148 306.09 156.838 306.109C157.528 306.128 158.214 305.999 158.85 305.73C160.29 305.01 161.07 305.31 162.14 306.59C163.47 308.19 164.98 309.59 166.45 311.09C167.381 311.786 168.149 312.677 168.7 313.7C169.08 314.7 169.52 315.61 170.82 315.7C171.02 315.7 171.25 316.08 171.4 316.32C171.697 316.982 172.232 317.509 172.898 317.798C173.564 318.087 174.313 318.116 175 317.88C175.32 317.81 175.62 317.52 175.82 317.55C177.58 317.85 179.41 317.97 180.91 319.17C181.74 319.84 181.98 319.7 182.1 318.6C182.24 317.27 182.4 315.94 182.46 314.6C182.52 313.51 182.62 312.54 183.9 312.2C184.169 312.078 184.391 311.871 184.53 311.61C185.02 310.782 185.807 310.171 186.73 309.9C187.15 309.78 187.58 309.22 187.17 309.01C186.42 308.64 186.59 308.15 186.69 307.64C186.79 307.13 186.69 306.91 186.11 306.79C185.694 306.689 185.316 306.473 185.017 306.168C184.718 305.862 184.511 305.478 184.42 305.06C184.32 304.7 184.22 304.27 184.55 303.99C184.88 303.71 185.18 303.99 185.45 304.11C185.72 304.23 185.92 304.36 186.13 304.11C186.34 303.86 186.04 303.66 185.92 303.46C185.175 302.572 184.219 301.884 183.14 301.46C182.78 301.26 182.47 301.09 182.61 300.59C182.683 300.186 182.659 299.769 182.539 299.376C182.419 298.983 182.207 298.625 181.92 298.33C181.62 297.9 181.49 297.56 182.1 297.15C183.596 296.089 184.615 294.484 184.94 292.68C185.3 291.07 185.36 289.35 186.76 288.14C187.295 287.648 187.78 287.106 188.21 286.52C189.894 284.515 191.321 282.308 192.46 279.95C193.221 278.456 193.69 276.83 193.84 275.16C193.85 274.966 193.811 274.774 193.727 274.599C193.643 274.424 193.517 274.273 193.36 274.16" fill="white"/>
<path d="M76.33 198.353C76.4774 197.736 76.4628 197.091 76.2876 196.481C76.1124 195.871 75.7825 195.317 75.33 194.873C75.1315 194.613 75.0433 194.286 75.0845 193.962C75.1257 193.638 75.293 193.344 75.55 193.143C75.6202 193.081 75.7017 193.033 75.79 193.003C76.09 192.913 76.61 193.223 76.65 192.683C76.69 192.143 76.09 192.183 75.85 191.883C75.75 191.763 75.46 191.813 75.3 191.723C74.64 191.353 74.05 190.973 74.3 190.023C74.4281 189.316 74.5017 188.601 74.52 187.883C74.5661 187.634 74.5165 187.377 74.3811 187.164C74.2456 186.951 74.0345 186.797 73.79 186.733C73.7103 186.723 73.6297 186.723 73.55 186.733C72.66 186.733 72.81 186.193 73.06 185.733C73.3194 185.401 73.4411 184.982 73.4 184.563C73.3679 184.329 73.2776 184.107 73.1374 183.917C72.9973 183.727 72.8117 183.576 72.5978 183.476C72.3838 183.377 72.1483 183.332 71.9129 183.347C71.6774 183.363 71.4495 183.437 71.25 183.563C70.25 183.983 69.96 183.833 69.9 182.763C69.9096 182.625 69.8909 182.488 69.845 182.358C69.799 182.229 69.7269 182.11 69.6331 182.01C69.5392 181.909 69.4257 181.829 69.2996 181.775C69.1734 181.72 69.0374 181.692 68.9 181.693C68.35 181.593 67.85 182.083 67.28 181.633C66.9808 181.407 66.6063 181.305 66.234 181.348C65.8617 181.391 65.5201 181.575 65.28 181.863C64.8308 182.383 64.2402 182.761 63.58 182.953C62.1 183.243 60.7 183.543 59.79 184.953C59.14 186.003 58.13 186.823 57.52 187.883C56.7 189.323 56.8 189.363 55.14 189.223C54.14 189.143 52.97 188.723 52.03 189.453C50.79 190.453 49.45 190.223 48.13 189.923C47.3643 189.841 46.6454 189.515 46.0797 188.993C45.5141 188.47 45.1319 187.779 44.99 187.023C44.9614 186.783 44.8825 186.552 44.7584 186.346C44.6343 186.139 44.4679 185.961 44.27 185.823C43.77 185.493 43.54 185.533 43.47 186.183C43.4 186.833 43.61 187.553 43.14 188.043C42.6564 188.623 42.314 189.308 42.14 190.043C41.8577 190.802 41.8828 191.641 42.21 192.383C42.67 193.383 41.71 194.133 41.27 194.933C41.15 195.163 41.02 195.333 41.27 195.483C41.52 195.633 41.77 195.483 41.87 195.223C41.97 194.963 41.87 194.373 42.5 194.503C43.13 194.633 42.74 195.173 42.84 195.503C42.84 195.653 42.89 195.813 42.94 195.963C43.06 196.343 43.22 196.693 43.69 196.753C44.16 196.813 44.33 196.553 44.38 196.133C44.38 196.003 44.44 195.883 44.62 195.883C44.8 195.883 44.88 195.953 44.95 196.143C45.24 196.993 45.63 197.813 45.84 198.673C46.1 199.723 46.61 200.843 45.56 201.783C45.5289 201.813 45.5041 201.85 45.4872 201.89C45.4704 201.931 45.4617 201.974 45.4617 202.018C45.4617 202.061 45.4704 202.105 45.4872 202.145C45.5041 202.185 45.5289 202.222 45.56 202.253C46.91 203.573 46.91 205.253 46.67 206.913C46.4968 207.837 46.6339 208.794 47.06 209.633C47.32 210.113 47.4 210.773 46.38 210.763H44.66C44.21 210.763 43.66 210.993 43.91 211.463C44.56 212.533 44.33 213.623 44.34 214.743C44.34 215.263 44.1 216.083 44.74 216.323C45.38 216.563 45.62 215.783 46.06 215.473C46.5 215.163 46.69 214.633 47.06 214.993C47.2135 215.185 47.3083 215.417 47.3331 215.662C47.358 215.907 47.3117 216.153 47.2 216.373C47.0879 216.607 46.9277 216.814 46.73 216.983C46.5423 217.142 46.4068 217.354 46.3408 217.591C46.2749 217.828 46.2815 218.079 46.36 218.313C46.4919 218.928 46.6793 219.531 46.92 220.113C47.09 220.563 47.5 221.113 47.05 221.403C46.6 221.693 46.17 221.113 45.92 220.653C45.8012 220.391 45.65 220.146 45.47 219.923C45.15 219.593 45.1 219.003 44.47 218.923C44.42 219.553 44.4 220.153 44.4 220.763C44.4 222.253 44.8 223.833 43.4 225.103C42.95 225.503 42.15 226.273 42.62 227.013C42.8514 227.245 42.9814 227.56 42.9814 227.888C42.9814 228.216 42.8514 228.53 42.62 228.763L42.5 228.863C42.433 228.932 42.3843 229.016 42.3581 229.109C42.3319 229.201 42.3291 229.299 42.35 229.393C42.572 229.957 42.675 230.56 42.6526 231.166C42.6302 231.772 42.483 232.366 42.22 232.913C42.22 233.013 42.31 233.153 42.32 233.283C42.54 235.013 43.62 236.473 43.78 238.213C43.78 238.553 44.11 238.663 44.33 238.833C44.9831 239.308 45.4686 239.979 45.7165 240.748C45.9645 241.517 45.9622 242.345 45.71 243.113C45.55 243.573 45.45 244.023 45.81 244.213C46.0434 244.369 46.3244 244.439 46.604 244.41C46.8836 244.381 47.1441 244.254 47.34 244.053C47.5841 243.752 47.8445 243.465 48.12 243.193C48.3286 243.034 48.5876 242.957 48.8488 242.976C49.11 242.994 49.3557 243.107 49.54 243.293C49.7057 243.719 50.0325 244.063 50.4499 244.25C50.8672 244.437 51.3415 244.452 51.77 244.293C53.4222 243.75 54.879 242.735 55.96 241.373C56.1222 241.205 56.23 240.992 56.2693 240.762C56.3085 240.531 56.2774 240.295 56.18 240.083C55.93 239.133 55.32 238.083 55.83 237.183C55.9929 236.874 56.078 236.531 56.078 236.183C56.078 235.834 55.9929 235.491 55.83 235.183C55.66 234.653 55.07 233.953 55.67 233.653C56.27 233.353 56.67 234.303 57.08 234.723C57.08 234.723 57.08 234.853 57.13 234.903C57.58 236.023 57.93 236.163 59.13 235.713C60.8 235.073 60.8 235.073 61.8 236.713C61.94 236.919 62.09 237.129 62.25 237.343C62.7217 237.99 63.4041 238.453 64.18 238.653C64.6891 238.724 65.1511 238.989 65.47 239.393C65.84 239.893 66.25 239.903 66.58 239.313C67.2517 238.341 67.7616 237.267 68.09 236.133C68.2985 234.504 68.8215 232.932 69.63 231.503C69.8688 230.998 69.9011 230.42 69.72 229.893C69.62 229.573 69.48 229.373 69.72 229.053C70.57 227.713 70.72 226.133 71.09 224.653C71.63 222.743 71.76 220.703 72.32 218.793C72.6404 217.16 73.3815 215.64 74.47 214.383C74.85 214.003 74.75 213.663 74.47 213.273C73.73 212.333 73.01 211.373 72.27 210.423C72.0152 210.136 71.8553 209.777 71.8123 209.396C71.7694 209.014 71.8454 208.629 72.03 208.293C72.3342 207.722 72.7913 207.248 73.35 206.923C74.1381 206.355 74.8446 205.682 75.45 204.923C76.06 204.183 76 203.213 76.61 202.483C77.0095 202.073 77.2331 201.524 77.2331 200.953C77.2331 200.381 77.0095 199.832 76.61 199.423C76.4907 199.249 76.4101 199.053 76.3739 198.846C76.3376 198.638 76.3465 198.426 76.4 198.223" fill="white"/>
<path d="M94.05 142C93.8499 141.983 93.6513 142.047 93.4977 142.176C93.344 142.305 93.2478 142.49 93.23 142.69C93.2167 142.832 93.2445 142.974 93.31 143.1C93.55 143.76 93.31 144.02 92.65 143.86C92.4 143.8 92.14 143.78 91.65 143.71C90.65 143.26 89.65 144.06 88.65 144.6C88.3581 144.712 88.1212 144.934 87.9888 145.217C87.8564 145.5 87.8389 145.824 87.94 146.12C88.0287 146.371 88.2053 146.581 88.4369 146.711C88.6686 146.842 88.9396 146.884 89.2 146.83C90.0922 146.74 90.9712 146.549 91.82 146.26C92.58 145.95 93.01 145.83 93.33 146.75C93.3858 146.883 93.4673 147.004 93.5698 147.106C93.6724 147.208 93.794 147.289 93.9277 147.343C94.0615 147.398 94.2047 147.426 94.3492 147.426C94.4937 147.425 94.6367 147.396 94.77 147.34C95.35 147.11 94.77 146.58 94.77 146.18C94.7723 146.082 94.7405 145.987 94.68 145.91C94.18 145.33 94.48 145.14 95.05 144.91C95.62 144.68 96.37 144.22 96.05 143.41C95.9087 142.984 95.632 142.615 95.2619 142.361C94.8918 142.106 94.4487 141.979 94 142" fill="white"/>
<path d="M42.24 240.33C42.46 240.04 42.09 239.19 41.74 239.18C41.1632 239.537 40.6297 239.96 40.15 240.44C40.15 240.44 40.15 240.7 40.24 240.78C40.6279 241.186 40.9001 241.689 41.0285 242.236C41.1568 242.782 41.1366 243.354 40.97 243.89C40.91 244.16 41.04 244.3 41.27 244.41C41.3698 244.456 41.4822 244.468 41.5893 244.442C41.6963 244.417 41.7916 244.356 41.86 244.27C42.22 243.93 42.55 241.4 42.21 241.01C41.87 240.62 42.05 240.58 42.21 240.33" fill="white"/>
<path d="M45.94 184.67C45.26 184.44 45.14 185.21 44.87 185.56C44.45 186.1 43.87 186.56 43.87 187.37C43.9058 187.617 43.9916 187.855 44.1223 188.068C44.253 188.281 44.4257 188.466 44.63 188.61C44.76 188.74 45.2 188.83 45.3 188.53C45.59 187.69 46.47 187.11 46.3 186.17C46.36 185.56 46.57 184.91 45.88 184.67" fill="white"/>
<path d="M102.68 154.35C102.514 154.315 102.342 154.313 102.175 154.344C102.009 154.375 101.849 154.439 101.707 154.532C101.565 154.625 101.443 154.745 101.347 154.886C101.251 155.026 101.184 155.184 101.15 155.35C101.145 155.417 101.145 155.483 101.15 155.55C101.15 156.12 101.94 156.85 102.72 156.94C102.861 156.974 103.008 156.979 103.151 156.956C103.295 156.932 103.432 156.88 103.555 156.803C103.678 156.726 103.784 156.624 103.867 156.505C103.951 156.386 104.009 156.252 104.04 156.11C104.05 156.014 104.05 155.916 104.04 155.82C104.13 154.93 103.69 154.47 102.67 154.37" fill="white"/>
<path d="M38.59 236.83C38.27 236.83 37.51 236.49 37.43 237.55C37.4286 237.978 37.5707 238.393 37.8336 238.731C38.0965 239.068 38.465 239.307 38.88 239.41C40.01 239.41 39.78 238.46 39.95 237.82C40.21 236.87 39.5 236.82 38.59 236.82" fill="white"/>
<path d="M179.06 268.51C179.122 269.304 179.41 270.064 179.89 270.7C180.07 270.87 180.37 271.02 180.46 270.82C180.787 270.24 180.982 269.594 181.03 268.93C181.016 268.647 180.924 268.373 180.763 268.14C180.602 267.907 180.38 267.723 180.12 267.61C179.63 267.77 178.92 267.95 179.06 268.51Z" fill="white"/>
<path d="M88.19 147.76C87.9 147.62 86.72 148.76 86.79 149.23C86.92 150.01 87.65 149.92 88.07 150.04C88.49 150.16 89.21 150.13 89.07 149.53C88.93 148.93 88.9 148.1 88.18 147.76" fill="white"/>
<path d="M71.35 185.64C72.05 185.54 72.04 184.88 72.24 184.44C72.44 184 71.31 182.86 70.96 182.92C70.7921 182.94 70.6376 183.022 70.5267 183.149C70.4158 183.277 70.3563 183.441 70.36 183.61C70.36 184.82 70.81 185.72 71.36 185.61" fill="white"/>
<path d="M90.63 154.55C90.28 154.19 89.91 153.83 89.55 153.47C89.38 153.3 89.08 153.18 89 153.47C88.8925 153.686 88.8307 153.922 88.8187 154.163C88.8067 154.404 88.8445 154.644 88.93 154.87C89.16 155.26 89.38 155.77 90.01 155.75C90.164 155.792 90.3275 155.783 90.4756 155.723C90.6237 155.664 90.7482 155.557 90.83 155.42C91.09 155.08 90.83 154.82 90.63 154.58" fill="white"/>
<path d="M82.62 138.52C82.4287 138.48 82.2313 138.48 82.04 138.52C81.59 138.72 81.13 138.97 81.21 139.52C81.29 140.07 81.83 140 82.21 140.01C82.5267 139.969 82.8407 139.909 83.15 139.83C83.91 139.71 83.86 139.38 83.45 138.88C83.3506 138.752 83.2233 138.648 83.0776 138.577C82.932 138.506 82.772 138.47 82.61 138.47" fill="white"/>
<path d="M177.52 265.42C177.17 265.29 176.79 265.15 176.52 265.54C176.25 265.93 176.52 266.26 176.87 266.54C177.68 267.17 178.51 267.09 179.47 266.15C178.6 266.15 178.09 265.67 177.47 265.44" fill="white"/>
<path d="M181.91 274.64C182.57 274.39 181.98 273.64 181.91 273.11C181.892 272.924 181.812 272.749 181.684 272.613C181.555 272.477 181.385 272.388 181.2 272.36C180.57 272.58 180.6 273.07 180.89 273.49C181.18 273.91 181.35 274.85 181.89 274.64" fill="white"/>
<path d="M257.84 227.94C258.97 226.74 258.97 226.18 258.04 224.85C257.57 224.18 257.1 223.45 257.64 222.53C257.749 222.327 257.784 222.093 257.741 221.867C257.697 221.641 257.577 221.438 257.4 221.29C256.78 220.7 256.17 220.1 255.58 219.48C254.79 218.64 253.67 217.9 253.32 216.9C252.9 215.69 252.21 215.63 251.26 215.54C250.699 215.531 250.159 215.327 249.733 214.961C249.308 214.596 249.023 214.093 248.93 213.54C248.85 212.905 248.709 212.279 248.51 211.67C248.49 211.392 248.363 211.133 248.156 210.947C247.949 210.761 247.678 210.662 247.4 210.67C244.9 210.67 242.78 209.49 240.73 208.38C238.718 207.248 236.856 205.868 235.19 204.27C233.56 202.612 231.756 201.133 229.81 199.86C227.253 198.42 224.556 197.244 221.76 196.35C219.862 195.607 218.003 194.77 216.19 193.84C214.52 193.07 212.87 192.17 211.24 191.27C209.251 190.3 207.373 189.116 205.64 187.74C204.04 186.34 203.7 185.47 204.36 183.5C204.47 183.16 204.63 183.07 204.92 183.21C205.326 183.466 205.816 183.556 206.287 183.461C206.758 183.366 207.175 183.094 207.45 182.7C207.669 182.457 207.943 182.272 208.25 182.16C208.905 181.825 209.476 181.346 209.919 180.759C210.362 180.172 210.667 179.492 210.81 178.77C210.964 177.884 210.759 176.974 210.242 176.238C209.724 175.503 208.936 175.004 208.05 174.85C207.53 174.76 206.996 174.79 206.49 174.94C204.519 175.371 202.508 175.599 200.49 175.62C198.675 175.468 196.85 175.492 195.04 175.69C194.77 175.764 194.485 175.771 194.212 175.71C193.938 175.649 193.683 175.522 193.47 175.34C193.108 174.995 192.678 174.728 192.209 174.556C191.739 174.384 191.239 174.311 190.74 174.34C190.109 174.324 189.488 174.17 188.922 173.891C188.356 173.611 187.857 173.212 187.46 172.72C187.095 172.219 186.625 171.804 186.082 171.503C185.54 171.203 184.938 171.024 184.32 170.98C183.699 171.017 183.083 170.846 182.569 170.495C182.055 170.144 181.672 169.632 181.48 169.04C181.07 168.04 180.64 166.94 179.3 166.76C179.145 166.713 179.006 166.623 178.9 166.5C177.323 165.071 176.007 163.379 175.01 161.5C174.761 161.025 174.421 160.604 174.009 160.261C173.597 159.918 173.122 159.659 172.61 159.5C172.296 159.42 172.01 159.258 171.78 159.03C169.78 156.69 167.69 154.36 166.91 151.26C166.13 148.16 165.16 145.32 164.96 142.2C164.86 140.61 164.79 138.92 163.83 137.63C163.078 136.55 162.611 135.298 162.47 133.99C162.207 132.127 161.614 130.326 160.72 128.67C160.512 128.251 160.219 127.881 159.859 127.583C159.499 127.285 159.08 127.066 158.63 126.94C157.381 126.552 156.222 125.92 155.22 125.08C153.482 123.592 151.867 121.967 150.39 120.22C148.895 118.82 147.212 117.635 145.39 116.7C144.691 116.342 144.022 115.927 143.39 115.46C142.29 114.56 141.39 113.46 140.31 112.55C137.56 110.11 136.43 106.94 136.01 103.42C135.76 101.42 136.11 99.32 135.51 97.29C135.243 96.4781 135.243 95.6019 135.51 94.79C135.73 94.23 135.97 93.66 135.4 93.12C135.26 92.98 135.3 92.81 135.46 92.62C136.08 91.93 137.85 92.15 138.14 93C138.22 93.23 138.23 93.46 138.54 93.4C138.85 93.34 138.76 93.1 138.78 92.92C138.805 92.6974 138.805 92.4726 138.78 92.25C138.71 91.79 138.56 91.25 139.18 91.15C139.8 91.05 139.8 91.56 139.88 91.97C139.883 92.085 139.93 92.1943 140.012 92.2747C140.095 92.355 140.205 92.4 140.32 92.4C140.74 92.4 140.63 92.07 140.67 91.84C140.8 91.05 140.88 90.25 141.04 89.45C141.37 87.75 141.04 87.51 139.44 87.12C138.76 86.96 138.74 87.75 138.22 87.65C138.059 87.195 138.001 86.7101 138.05 86.23C138.081 86.1226 138.07 86.0071 138.018 85.9082C137.965 85.8092 137.876 85.7345 137.77 85.7H137.65C137.07 85.62 137.07 85.6 137.43 85.14C137.868 84.6158 138.08 83.9393 138.02 83.2588C137.96 82.5783 137.633 81.9494 137.11 81.51C136.85 81.2933 136.551 81.1271 136.23 81.02C135.75 80.85 135.23 80.52 135.32 79.96C135.46 78.72 135.11 77.28 136.55 76.49C136.72 76.4 136.77 76.2 136.86 76.02C137.32 75.1 137.86 74.18 138.98 73.97C139.559 73.916 140.121 73.7402 140.627 73.4542C141.134 73.1681 141.575 72.7782 141.92 72.31C141.973 72.228 142.057 72.1704 142.152 72.1498C142.248 72.1292 142.348 72.1472 142.43 72.2C142.96 72.52 143.86 72.78 143.84 73.3C143.82 73.82 142.94 74.02 142.31 73.93C141.68 73.84 141.48 74.2 141.31 74.63C141.14 75.06 141.1 75.28 141.43 75.53C141.597 75.6371 141.794 75.6881 141.991 75.6755C142.189 75.6629 142.378 75.5874 142.53 75.46C143.86 74.68 145.28 74.08 146.61 73.3C147.153 72.9585 147.771 72.7527 148.41 72.7C150.01 72.62 150.54 71.7 150 70.22C149.89 69.89 149.68 69.56 150 69.22C150.43 69.5 151 69.54 151 70.31C151 70.7 151.37 71 151.93 71.06C152.686 71.085 153.442 70.994 154.17 70.79C154.448 70.745 154.701 70.6027 154.885 70.3884C155.068 70.1742 155.169 69.9019 155.17 69.62C155.216 69.4055 155.177 69.1817 155.061 68.9954C154.945 68.809 154.762 68.6745 154.55 68.62C153.92 68.34 154.33 68 154.69 67.87C155.152 67.6335 155.661 67.5027 156.18 67.4871C156.699 67.4715 157.215 67.5716 157.69 67.78C158.19 68.06 158.69 68.32 159.19 68.59C159.93 69 160.99 69.41 160.69 70.66C160.678 70.717 160.689 70.7764 160.721 70.8251C160.753 70.8739 160.803 70.908 160.86 70.92H160.93C161.828 70.1218 162.664 69.2559 163.43 68.33L166.8 71.5C167.29 71.96 167.36 72.3 166.59 72.55C166.16 72.69 165.67 72.9 165.95 73.55C165.983 73.6775 166.04 73.7973 166.119 73.9025C166.198 74.0078 166.297 74.0964 166.411 74.1633C166.524 74.2302 166.649 74.274 166.78 74.2923C166.91 74.3107 167.043 74.3031 167.17 74.27C167.226 74.259 167.28 74.2387 167.33 74.21C168.094 73.9128 168.709 73.325 169.041 72.5754C169.372 71.8258 169.394 70.9753 169.1 70.21C169.044 70.1151 168.98 70.0248 168.91 69.94C168.246 68.847 167.352 67.9119 166.29 67.2C165.53 66.68 164.76 66.11 164.94 64.98C165.32 62.7 165.32 62.69 163.09 61.98C162.46 61.77 162.41 61.48 162.77 60.98C163.272 60.3995 163.875 59.915 164.55 59.55C165.15 59.16 165.91 58.85 165.79 57.95C165.736 57.5647 165.566 57.2049 165.304 56.9176C165.042 56.6303 164.699 56.4289 164.32 56.34C163.68 56.11 163.04 55.91 162.38 55.74C161.72 55.57 160.78 55.24 160.73 54.35C160.68 53.68 161.26 53.17 161.82 52.79C163.67 51.3066 165.858 50.3036 168.19 49.87C168.75 49.8 168.81 49.46 168.79 49.06C168.77 48.66 169.12 48.24 168.59 48.15C167.81 48.03 167.09 47.5 166.23 47.84C166.108 47.8839 165.977 47.8978 165.848 47.8804C165.719 47.863 165.596 47.8148 165.49 47.74C164.76 46.84 163.64 47.1 162.73 46.85C161.82 46.6 160.89 46.14 159.92 46.7C159.765 46.7549 159.595 46.7549 159.44 46.7C158.44 46.34 157.34 45.94 156.27 45.6C154.69 45.1 153.27 44.04 151.43 44.6C151.03 44.794 150.571 44.8275 150.147 44.6936C149.723 44.5597 149.366 44.2686 149.15 43.88C149.01 43.63 148.62 43.56 148.28 43.53C147.539 43.4183 146.79 43.3615 146.04 43.36C145.393 43.4412 144.738 43.2924 144.19 42.9396C143.641 42.5868 143.234 42.0525 143.04 41.43C142.98 41.2434 142.903 41.0627 142.81 40.89C142.31 39.94 142.07 38.94 140.91 38.65C140.701 38.5912 140.522 38.4554 140.408 38.2699C140.295 38.0844 140.257 37.8629 140.3 37.65V37.56C140.434 37.1962 140.436 36.797 140.306 36.4317C140.177 36.0664 139.923 35.758 139.59 35.56C138.12 34.74 137.59 33.73 138.24 32.11C138.49 31.5 138.11 31.11 137.4 31C136.567 30.9083 135.726 30.9318 134.9 31.07C133.762 31.3861 132.681 31.8824 131.7 32.54C130.92 32.98 130.2 33.54 129.21 32.68C128.568 32.1207 127.76 31.787 126.91 31.73C126.27 31.73 125.91 32.07 125.4 32.25C123.95 32.76 122.46 32.48 121 32.58C120.123 32.5787 119.275 32.887 118.603 33.4505C117.932 34.014 117.481 34.7965 117.33 35.66C117.11 36.47 116.77 37.41 115.68 37.38C114.85 37.38 114.01 37.18 113.18 37.07C112.1 36.94 111.91 36.33 111.68 35.51C111.649 35.3316 111.582 35.1613 111.485 35.0087C111.387 34.8562 111.26 34.7245 111.112 34.6212C110.963 34.518 110.795 34.4453 110.618 34.4073C110.441 34.3694 110.258 34.3669 110.08 34.4H109.98C109.227 34.5692 108.461 34.6696 107.69 34.7C106.17 34.7 105.53 35.58 105.69 37.12C105.85 38.66 106.49 40.4 106.11 42.12C105.98 42.72 105.67 42.98 105.11 42.76C103.772 42.2246 102.667 41.2326 101.99 39.96C101.84 39.7 101.64 39.49 101.38 39.61C100.453 39.9274 99.5822 40.3898 98.8 40.98C97.8 41.83 97.93 43.18 97.3 44.2C97.06 44.6 97.39 44.92 97.89 44.95C98.39 44.98 99.13 45.07 99.74 45.12C100.09 45.12 100.39 45.22 100.45 45.64C100.51 46.06 100.16 46.18 99.87 46.29C99.5634 46.4064 99.2982 46.611 99.1078 46.8779C98.9174 47.1449 98.8103 47.4622 98.8 47.79C98.7576 48.4259 98.6504 49.0559 98.48 49.67C98.4334 49.9315 98.3027 50.1707 98.1078 50.3512C97.9129 50.5317 97.6643 50.6436 97.4 50.67C97 50.67 96.94 50.02 96.94 49.62C96.94 48.44 95.94 47.62 95.79 46.52C95.79 46.32 95.54 46.04 95.32 46.08C94.67 46.22 93.92 46.03 93.38 46.5C92.3947 47.2198 91.26 47.7085 90.06 47.93C89.8463 48.0065 89.6121 48.003 89.4007 47.9203C89.1894 47.8376 89.0151 47.6812 88.91 47.48C88.9065 47.4534 88.9065 47.4266 88.91 47.4C88.71 46.81 88.4 46.29 88.21 45.71C87.5689 43.8294 86.3774 42.1849 84.79 40.99C84.5682 40.8282 84.3111 40.7212 84.04 40.6777C83.7689 40.6343 83.4913 40.6556 83.23 40.74C82.72 40.87 82.9 41.46 82.84 41.85C82.6402 42.7724 82.7203 43.7334 83.07 44.61C83.1517 44.8114 83.1799 45.0305 83.1518 45.2461C83.1238 45.4616 83.0405 45.6662 82.91 45.84C81.73 47.19 81.03 48.9 79.69 50.09C79.2374 50.391 78.8652 50.7979 78.6055 51.2754C78.3459 51.7529 78.2067 52.2865 78.2 52.83C78.2 53.2 77.87 53.36 77.74 53.63C77.44 54.22 76.49 54.56 76.9 55.4C77.31 56.24 78.09 56.99 77.16 57.95C77.16 57.95 77.16 58.07 77.16 58.13C77.34 58.87 76.99 59.43 76.31 59.45C75.6343 59.3975 74.9994 59.106 74.5192 58.6277C74.039 58.1493 73.745 57.5155 73.69 56.84C73.6601 56.1021 73.5799 55.367 73.45 54.64C73.2102 53.8069 73.2102 52.9231 73.45 52.09C73.84 51.09 73.39 50.58 72.27 50.8C71.6644 50.9839 71.0141 50.9541 70.4278 50.7156C69.8416 50.4772 69.3552 50.0444 69.05 49.49C68.5363 48.7123 67.9787 47.9644 67.38 47.25C67.0496 46.9291 66.859 46.4908 66.8497 46.0303C66.8403 45.5697 67.0129 45.1241 67.33 44.79L67.44 44.68C68.1783 43.7952 68.6836 42.7399 68.91 41.61C68.9797 41.3957 68.9682 41.1633 68.8779 40.9568C68.7876 40.7504 68.6247 40.5843 68.42 40.49C67.7937 40.2809 67.114 40.2974 66.4985 40.5367C65.8831 40.7759 65.3707 41.2228 65.05 41.8C64.7466 42.5959 64.1752 43.2611 63.4341 43.6809C62.693 44.1007 61.8286 44.2489 60.99 44.1C60.49 44.1 59.85 43.98 59.56 44.44C59.4398 44.7165 59.3905 45.0187 59.4167 45.319C59.4429 45.6194 59.5437 45.9085 59.71 46.16C60.43 47.85 61.01 48.63 58.82 49.86C57.4854 50.5441 56.3646 51.5819 55.58 52.86C55.388 53.2959 55.0368 53.6421 54.5983 53.8279C54.1597 54.0138 53.6667 54.0252 53.22 53.86C52.82 53.73 52.62 53.38 52.33 53.14C51.27 52.28 49.84 52.27 48.77 51.52C48.01 50.99 47.5 51.33 46.96 51.8C46.74 51.99 46.55 52.2 46.34 52.41C45.9679 52.8759 45.473 53.2286 44.9111 53.4283C44.3492 53.6279 43.7427 53.6666 43.16 53.54C42.1433 53.3134 41.099 53.2359 40.06 53.31C39.66 53.31 39.39 53.07 39.25 52.63C39.05 52.02 38.8 51.48 38.07 52.28C37.7068 52.6018 37.2654 52.8225 36.79 52.92C35.79 53.19 34.84 53.54 33.85 53.78C33.7403 53.7936 33.6343 53.8287 33.5382 53.8834C33.442 53.938 33.3576 54.0111 33.2898 54.0984C33.222 54.1857 33.1721 54.2856 33.1429 54.3923C33.1138 54.4989 33.106 54.6103 33.12 54.72C33.1307 54.837 33.1683 54.95 33.23 55.05C33.922 56.2188 34.8318 57.244 35.91 58.07C36.26 58.34 37.08 58.02 36.98 58.87C36.92 59.39 36.86 59.87 36.77 60.42C36.727 60.6063 36.6489 60.7828 36.54 60.94C36.4575 61.0472 36.3976 61.17 36.3639 61.3009C36.3302 61.4319 36.3234 61.5684 36.344 61.7021C36.3646 61.8357 36.4121 61.9639 36.4836 62.0787C36.5551 62.1935 36.6491 62.2926 36.76 62.37L36.87 62.44C37.4002 62.8974 37.9806 63.2933 38.6 63.62C39.6 64.1 39.6 64.62 38.78 65.24C38.3594 65.5238 38.0374 65.9312 37.8582 66.4058C37.6791 66.8805 37.6518 67.3991 37.78 67.89C37.85 68.29 37.89 68.71 37.99 69.11C38.09 69.51 37.99 69.57 37.72 69.6C35.9 69.75 34.72 70.92 33.53 72.13C33.408 72.2701 33.2517 72.3761 33.0764 72.4375C32.901 72.4988 32.7127 72.5135 32.53 72.48C31.53 72.37 30.53 72.31 29.53 72.19C29.2282 72.1327 28.9159 72.1748 28.64 72.31C28.3641 72.4452 28.1396 72.6663 28 72.94C27.68 73.57 28.29 73.94 28.65 74.27C29.01 74.6 29.32 74.66 29.49 75.05C30.034 76.2765 30.3297 77.5986 30.36 78.94C30.36 79.15 30.36 79.36 30.53 79.47C31.25 79.88 31.87 80.78 32.67 80.68C34.29 80.48 34.86 81.26 35.09 82.62C35.09 82.68 35.18 82.72 35.2 82.78C35.2691 82.9125 35.3112 83.0573 35.324 83.2062C35.3367 83.355 35.3198 83.505 35.2743 83.6472C35.2287 83.7895 35.1554 83.9214 35.0585 84.0351C34.9617 84.1489 34.8432 84.2423 34.71 84.31C34.5543 84.388 34.3839 84.4323 34.21 84.44C33.7935 84.4505 33.3978 84.624 33.108 84.9232C32.8181 85.2224 32.6572 85.6234 32.66 86.04C32.6244 86.5417 32.4384 87.0209 32.1262 87.4152C31.814 87.8094 31.3901 88.1004 30.91 88.25C30.59 88.39 30.24 88.42 30.05 88.8C29.64 89.61 29.86 90.03 31.18 90.58C31.53 90.73 31.97 90.9 31.92 91.22C31.8557 91.3988 31.7327 91.5506 31.5711 91.6505C31.4094 91.7504 31.2187 91.7925 31.03 91.77C30.4 91.68 30.24 92.01 30.33 92.48C30.56 93.77 30.6 95.04 31.79 96.05C33.79 97.73 36.05 98.97 37.79 100.94C37.9624 101.141 38.1891 101.287 38.4429 101.361C38.6966 101.436 38.9665 101.435 39.22 101.36C40.72 100.89 42.5 101.53 43.78 100.19C44.01 99.94 44.4 100.06 44.69 100.19C44.7851 100.235 44.8585 100.317 44.894 100.416C44.9296 100.515 44.9246 100.624 44.88 100.72C44.8829 100.74 44.8829 100.76 44.88 100.78C44.12 101.78 44.64 102.53 45.27 103.31C45.65 103.78 45.8 104.31 45.08 104.64C41.91 106.31 41.14 107.52 41.61 110.72C41.72 111.44 42.04 111.62 42.67 111.72C43.8258 111.828 44.9904 111.802 46.14 111.64C47.772 111.637 49.3857 111.296 50.88 110.64C52.12 110 52.88 108.72 54.01 107.93C54.2243 107.647 54.3178 107.291 54.27 106.94C54.2498 106.665 54.3042 106.39 54.4274 106.144C54.5506 105.897 54.7381 105.689 54.97 105.54C55.91 104.78 56.91 103.94 57.83 103.24C57.9524 103.136 58.1013 103.068 58.2602 103.043C58.4191 103.018 58.5817 103.038 58.73 103.1C59.83 103.54 60.42 103.16 60.63 101.96C60.8908 101.111 61.3441 100.333 61.9547 99.6881C62.5652 99.0428 63.3165 98.5473 64.15 98.24C65.2958 98.1088 66.4316 97.9017 67.55 97.62C67.7712 97.5498 68.0052 97.5296 68.2352 97.5607C68.4652 97.5918 68.6854 97.6736 68.88 97.8C69.7151 98.3029 70.6754 98.5594 71.65 98.54C72.1661 98.517 72.6755 98.664 73.1 98.9585C73.5245 99.2529 73.8407 99.6785 74 100.17C74.23 100.74 74.48 101.45 75.28 101.44C77.83 101.44 79.53 103.25 81.59 104.3C82.0463 104.596 82.4211 105.002 82.68 105.48C83.39 106.64 84.23 107.71 85.03 108.81C85.0834 108.921 85.1581 109.02 85.25 109.101C85.3419 109.183 85.4491 109.246 85.5653 109.286C85.6815 109.326 85.8046 109.342 85.9272 109.334C86.0499 109.327 86.1698 109.294 86.28 109.24C86.3693 109.202 86.4506 109.148 86.52 109.08C86.5868 109.004 86.6681 108.941 86.7591 108.896C86.8501 108.851 86.9491 108.825 87.0504 108.818C87.1517 108.812 87.2533 108.825 87.3494 108.858C87.4454 108.891 87.534 108.943 87.61 109.01C87.6862 109.076 87.7475 109.158 87.79 109.25C88.1315 109.713 88.6058 110.062 89.15 110.25C89.8733 110.428 90.5457 110.77 91.1147 111.251C91.6837 111.731 92.1338 112.337 92.43 113.02C92.9899 114.754 93.8459 116.378 94.96 117.82C95.26 118.19 95.03 118.35 94.58 118.38C93.58 118.46 93.05 119 93.39 119.68C93.7623 120.537 93.9399 121.466 93.91 122.4C93.91 123.45 93.57 124.68 93.99 125.52C94.5097 126.804 95.2064 128.009 96.06 129.1C96.7378 129.894 97.2024 130.847 97.41 131.87C97.5986 133.283 97.5716 134.716 97.33 136.12C97.2267 137.211 96.8853 138.266 96.33 139.21C96.1828 139.448 96.1133 139.726 96.1312 140.006C96.1492 140.285 96.2536 140.552 96.43 140.77C96.5871 140.938 96.7972 141.046 97.0248 141.077C97.2525 141.108 97.4838 141.06 97.68 140.94C97.9521 140.797 98.2665 140.757 98.5657 140.827C98.865 140.896 99.1292 141.072 99.31 141.32C99.59 141.59 99.8 141.92 100.26 141.91C100.556 141.87 100.856 141.926 101.117 142.07C101.378 142.215 101.586 142.439 101.71 142.71C101.91 143.28 101.39 143.63 100.99 144.01C100.35 144.61 100.54 145.09 101.35 145.37C101.833 145.517 102.296 145.722 102.73 145.98C104.09 146.79 104.73 148.3 105.91 149.2C106.912 149.839 107.71 150.752 108.21 151.83C108.62 152.92 109.71 154.07 108.21 155.26C107.72 155.65 108 156.58 108.65 156.87C109.361 157.24 110.16 157.41 110.96 157.36C112.449 157.167 113.959 157.458 115.27 158.19C117.53 159.54 118.6 161.87 119.61 164.19C119.853 164.65 119.957 165.172 119.91 165.69C119.87 166.153 119.974 166.617 120.206 167.019C120.439 167.422 120.789 167.743 121.21 167.94C123.21 169.28 125.61 170.1 127.32 171.94C127.45 172.036 127.591 172.116 127.74 172.18C128.065 172.386 128.33 172.676 128.506 173.019C128.681 173.362 128.762 173.745 128.74 174.13C128.74 174.55 128.67 174.97 128.64 175.39C128.57 176.61 129.07 177.25 130.28 177.31C130.766 177.289 131.246 177.424 131.649 177.696C132.052 177.967 132.358 178.362 132.52 178.82C132.73 179.174 132.971 179.508 133.24 179.82C133.784 180.572 134.24 181.384 134.6 182.24C135.04 183.62 135.52 184.98 137.04 185.7C137.78 186.05 138.6 185.95 139.26 186.29C140.149 186.67 140.953 187.225 141.623 187.923C142.293 188.621 142.816 189.446 143.16 190.35C143.192 190.554 143.263 190.751 143.371 190.927C143.479 191.104 143.62 191.257 143.788 191.379C143.955 191.501 144.145 191.588 144.346 191.637C144.547 191.685 144.756 191.693 144.96 191.66L145.21 191.6C146.21 191.39 147.1 191.04 148.06 190.8C148.8 190.62 149.66 190.11 150.27 190.5C150.934 190.977 151.633 191.405 152.36 191.78C153.48 192.28 154.56 193.07 155.75 191.92C155.913 191.81 156.104 191.748 156.3 191.74C157.9 191.47 160.47 193.16 160.95 195.4C161.19 196.289 161.481 197.164 161.82 198.02C161.889 198.309 162.023 198.578 162.212 198.807C162.401 199.036 162.639 199.218 162.91 199.34C163.443 199.57 163.877 199.982 164.133 200.502C164.39 201.023 164.452 201.617 164.31 202.18C164.25 202.7 164.23 203.46 164.53 203.74C165.47 204.63 166.46 205.74 167.87 205.58C168.615 205.51 169.366 205.617 170.061 205.894C170.757 206.17 171.377 206.607 171.87 207.17C172.78 208 172.68 208.65 171.53 209.17C171.35 209.25 171.15 209.27 170.97 209.35C170.63 209.507 170.352 209.773 170.181 210.107C170.011 210.441 169.957 210.822 170.03 211.19C170.29 211.99 171.03 212.12 171.7 212.07C172.169 211.981 172.621 211.819 173.04 211.59C173.926 211.066 174.982 210.912 175.98 211.16C176.533 211.402 177.151 211.45 177.735 211.298C178.32 211.145 178.835 210.801 179.2 210.32C179.257 210.235 179.331 210.163 179.416 210.107C179.502 210.051 179.598 210.012 179.698 209.994C179.799 209.975 179.902 209.977 180.002 209.998C180.102 210.02 180.196 210.061 180.28 210.12C180.344 210.165 180.401 210.219 180.45 210.28C181.816 211.69 182.941 213.315 183.78 215.09C183.91 215.39 184.03 215.72 183.68 215.85C182.61 216.25 182.08 216.76 182.45 218.07C182.502 218.443 182.421 218.823 182.222 219.142C182.023 219.462 181.718 219.702 181.36 219.82C181.1 219.92 180.64 220.14 180.69 220.45C180.77 220.92 181.27 220.87 181.69 220.91C182.078 220.964 182.469 220.997 182.86 221.01C183.138 220.996 183.413 221.077 183.639 221.241C183.865 221.405 184.027 221.641 184.1 221.91C184.362 222.525 184.843 223.02 185.45 223.3C186.91 224.3 189.02 224.55 189.45 226.76C189.45 226.83 189.57 226.88 189.65 226.94C191.59 228.42 192.85 228.33 194.49 226.57C194.8 226.24 195.24 225.79 195.6 226C196.93 226.76 198.49 227.33 198.75 229.19C198.832 229.695 199.001 230.183 199.25 230.63C200.07 232.197 200.46 233.953 200.38 235.72C200.347 236.057 200.386 236.397 200.494 236.718C200.603 237.039 200.779 237.333 201.01 237.58C201.4 238 201.88 238.43 201.82 239.07C201.802 239.28 201.831 239.492 201.906 239.689C201.98 239.886 202.098 240.064 202.25 240.21C202.918 240.953 203.423 241.829 203.73 242.78C204.291 243.987 204.698 245.261 204.94 246.57C205.03 247.47 204.94 248.38 205.13 249.26C205.412 250.833 205.589 252.423 205.66 254.02C205.75 255.86 206.13 257.3 207.83 258.21C208.032 258.369 208.182 258.585 208.26 258.83C208.454 259.284 208.532 259.779 208.489 260.271C208.445 260.763 208.281 261.237 208.01 261.65C207.51 262.65 206.01 263.65 204.95 263.31C204.545 263.17 204.116 263.112 203.689 263.139C203.261 263.166 202.844 263.279 202.46 263.47C201.644 263.853 200.889 264.355 200.22 264.96C199.22 265.76 199.22 265.96 200.22 266.96C200.867 267.585 201.392 268.324 201.77 269.14C201.874 269.371 201.913 269.627 201.883 269.879C201.853 270.13 201.755 270.369 201.6 270.57C200.81 271.9 199.6 272.92 199.08 274.49C198.984 274.827 198.766 275.116 198.468 275.301C198.17 275.486 197.815 275.553 197.47 275.49C197.08 275.49 196.69 275.4 196.3 275.38C195.14 275.32 194.63 275.88 194.88 277.02C195.06 277.8 195.36 278.55 195.53 279.33C195.701 279.834 195.742 280.374 195.649 280.898C195.556 281.422 195.333 281.915 195 282.33C194.61 282.78 194.4 283.45 195 283.83C195.769 284.435 196.733 284.738 197.71 284.68C199.443 284.313 201.244 284.438 202.91 285.04C203.718 285.178 204.549 285.007 205.236 284.561C205.924 284.114 206.418 283.425 206.62 282.63C206.829 281.264 207.438 279.991 208.37 278.97C208.795 278.62 209.137 278.179 209.37 277.68C209.95 276.12 211.37 275.58 212.68 275.17C214.024 274.76 215.251 274.037 216.26 273.06C216.592 272.748 216.807 272.331 216.87 271.88C217.27 269.49 216.61 267.17 216.5 264.82C216.483 264.723 216.433 264.635 216.36 264.57C215.91 264.12 215.9 263.8 216.54 263.48C216.674 263.391 216.789 263.276 216.879 263.142C216.968 263.008 217.03 262.858 217.06 262.7C217.182 262.186 217.428 261.709 217.777 261.312C218.125 260.914 218.566 260.608 219.06 260.42C219.23 260.34 219.28 260.2 219.4 260.11C220.27 259.44 221.05 258.47 222.16 258.37C223.92 258.21 225.65 258.87 227.43 258.9C228.16 258.9 229.02 259.24 229.43 258.63C229.7 258.222 229.873 257.758 229.937 257.273C230.001 256.788 229.954 256.294 229.8 255.83C229.35 254.51 228.41 253.43 228.37 251.9C228.37 250.03 227.61 248.15 228.87 246.4C229.19 245.96 228.96 245.61 228.47 245.34C227.595 244.951 226.817 244.374 226.19 243.65C225.592 242.803 224.818 242.097 223.92 241.58C222.942 240.985 222.031 240.288 221.2 239.5C220.964 239.206 220.655 238.98 220.304 238.845C219.953 238.71 219.572 238.67 219.2 238.73C218.865 238.754 218.53 238.703 218.217 238.582C217.904 238.461 217.622 238.273 217.39 238.03C215.95 236.91 216.46 235.2 216 233.8C216 233.69 216.1 233.45 216.22 233.38C216.923 232.847 217.591 232.269 218.22 231.65C218.608 231.426 218.893 231.057 219.011 230.625C219.129 230.192 219.071 229.73 218.85 229.34L218.8 229.26C218.519 228.731 218.419 228.125 218.517 227.534C218.615 226.943 218.904 226.4 219.34 225.99C220.498 224.856 221.407 223.494 222.01 221.99C222.851 220.173 223.952 218.488 225.28 216.99C226 216.06 226.96 214.99 228.41 215.37C229.395 215.709 230.355 216.121 231.28 216.6C230.58 216.91 230.16 217.14 229.7 217.3C229.545 217.342 229.412 217.44 229.325 217.575C229.239 217.71 229.205 217.872 229.23 218.03C229.23 218.44 229.54 218.34 229.76 218.44C230.37 218.661 231.012 218.779 231.66 218.79C232.458 218.878 233.219 219.171 233.87 219.64C234.69 220.253 235.58 220.766 236.52 221.17C237.378 221.568 238.333 221.711 239.27 221.58C242.8 220.9 244.89 221.28 245.79 224.12C246.02 224.83 246.99 225.32 246.72 226.12C246.28 227.47 247.92 228.59 247.03 229.93C247.03 229.93 247.11 230.1 247.18 230.17C248.55 231.65 250.01 232.99 252.18 233.26C253.01 233.36 253.81 233.34 254.39 234.18C254.79 234.77 255.55 234.5 256.07 234.26C256.59 234.02 256.59 233.42 256.39 232.89C256.27 232.59 256.11 232.32 255.99 232.02C255.803 231.706 255.726 231.338 255.774 230.975C255.821 230.612 255.989 230.276 256.25 230.02C256.88 229.42 257.48 228.78 258.08 228.14M193.42 274.23C193.244 274.149 193.048 274.121 192.856 274.15C192.665 274.178 192.485 274.262 192.34 274.39C191.452 274.967 190.53 275.492 189.58 275.96C189.38 276.091 189.157 276.182 188.922 276.226C188.687 276.27 188.445 276.266 188.212 276.216C187.978 276.166 187.757 276.07 187.561 275.933C187.365 275.796 187.198 275.622 187.07 275.42C186.98 275.287 186.91 275.142 186.86 274.99C186.8 274.67 186.91 274.23 186.49 274.24C186.07 274.25 185.84 274.6 185.65 275C185.266 276.009 184.801 276.986 184.26 277.92C184.073 278.264 183.76 278.521 183.387 278.639C183.014 278.756 182.61 278.724 182.26 278.55C182.118 278.471 181.987 278.373 181.87 278.26C181.06 277.47 179.96 277.19 179.1 276.5C178.74 276.2 178.39 276.4 178.1 276.57C177.851 276.72 177.566 276.799 177.275 276.799C176.984 276.799 176.699 276.72 176.45 276.57C176.121 276.372 175.728 276.31 175.354 276.398C174.981 276.485 174.656 276.716 174.45 277.04C174.371 277.178 174.311 277.326 174.27 277.48C173.43 279.54 172.88 279.82 170.69 279.71C169.025 279.482 167.33 279.718 165.79 280.39C165.396 280.612 164.934 280.681 164.491 280.586C164.049 280.49 163.657 280.235 163.39 279.87C162.9 279.39 162.39 278.87 161.55 279.36C161.36 279.47 161.04 279.36 160.78 279.36C159.595 279.307 158.427 279.66 157.47 280.36C156.47 281.23 153.3 281.43 152.27 280.59C151.025 279.754 150.046 278.577 149.45 277.2C148.97 275.85 148.3 275.72 147.45 276.55C146.26 277.7 146.08 277.68 145.54 276.12C145.402 275.696 145.207 275.292 144.96 274.92C144.731 274.545 144.367 274.272 143.943 274.157C143.519 274.041 143.067 274.093 142.68 274.3C142.437 274.449 142.166 274.545 141.883 274.583C141.601 274.621 141.314 274.599 141.04 274.52C140.15 274.2 139.6 274.63 139.04 275.28C138.48 275.93 138.04 276.22 138.25 277.15C138.42 277.84 137.8 278.29 137.1 278.25C136.343 278.249 135.601 278.048 134.947 277.667C134.294 277.286 133.753 276.738 133.38 276.08C132.95 275.431 132.476 274.813 131.96 274.23C131.882 274.123 131.773 274.043 131.647 274.002C131.521 273.961 131.386 273.96 131.26 274C130.98 274.07 130.9 274.26 130.93 274.59C130.943 274.863 130.862 275.132 130.703 275.353C130.543 275.575 130.313 275.736 130.05 275.81C128.41 276.41 127.48 277.93 126.05 278.81C125.758 278.955 125.51 279.177 125.334 279.451C125.158 279.726 125.06 280.044 125.05 280.37C125.051 281.811 124.769 283.238 124.22 284.57C123.82 285.99 124.12 288.24 125.85 288.72C126.361 288.847 126.834 289.095 127.229 289.443C127.624 289.791 127.93 290.229 128.12 290.72C128.177 290.888 128.295 291.029 128.45 291.116C128.605 291.203 128.787 291.229 128.96 291.19C131.11 291.228 133.256 291.382 135.39 291.65C135.604 291.643 135.812 291.716 135.975 291.855C136.138 291.994 136.243 292.188 136.27 292.4C136.52 293.75 136.67 293.88 138.11 293.92C138.577 293.863 139.048 293.991 139.422 294.277C139.796 294.563 140.043 294.984 140.11 295.45C140.115 295.5 140.115 295.55 140.11 295.6C140.14 296.034 140.31 296.446 140.595 296.775C140.88 297.103 141.265 297.33 141.69 297.42C142.316 297.574 142.855 297.97 143.19 298.52C143.598 299.186 144.2 299.712 144.914 300.028C145.629 300.344 146.422 300.436 147.19 300.29C147.75 300.21 148.4 300.15 148.69 300.87C149.202 301.86 149.942 302.714 150.85 303.36C152.02 304.371 153.38 305.139 154.85 305.62C155.47 305.923 156.148 306.09 156.838 306.109C157.528 306.128 158.214 305.999 158.85 305.73C160.29 305.01 161.07 305.31 162.14 306.59C163.47 308.19 164.98 309.59 166.45 311.09C167.381 311.786 168.149 312.677 168.7 313.7C169.08 314.7 169.52 315.61 170.82 315.7C171.02 315.7 171.25 316.08 171.4 316.32C171.697 316.982 172.232 317.509 172.898 317.798C173.564 318.087 174.313 318.116 175 317.88C175.32 317.81 175.62 317.52 175.82 317.55C177.58 317.85 179.41 317.97 180.91 319.17C181.74 319.84 181.98 319.7 182.1 318.6C182.24 317.27 182.4 315.94 182.46 314.6C182.52 313.51 182.62 312.54 183.9 312.2C184.169 312.078 184.391 311.871 184.53 311.61C185.02 310.782 185.807 310.171 186.73 309.9C187.15 309.78 187.58 309.22 187.17 309.01C186.42 308.64 186.59 308.15 186.69 307.64C186.79 307.13 186.69 306.91 186.11 306.79C185.694 306.689 185.316 306.473 185.017 306.168C184.718 305.862 184.511 305.478 184.42 305.06C184.32 304.7 184.22 304.27 184.55 303.99C184.88 303.71 185.18 303.99 185.45 304.11C185.72 304.23 185.92 304.36 186.13 304.11C186.34 303.86 186.04 303.66 185.92 303.46C185.175 302.572 184.219 301.884 183.14 301.46C182.78 301.26 182.47 301.09 182.61 300.59C182.683 300.186 182.659 299.769 182.539 299.376C182.419 298.983 182.207 298.625 181.92 298.33C181.62 297.9 181.49 297.56 182.1 297.15C183.596 296.089 184.615 294.484 184.94 292.68C185.3 291.07 185.36 289.35 186.76 288.14C187.295 287.648 187.78 287.106 188.21 286.52C189.894 284.515 191.321 282.308 192.46 279.95C193.221 278.456 193.69 276.83 193.84 275.16C193.85 274.966 193.811 274.774 193.727 274.599C193.643 274.424 193.517 274.273 193.36 274.16M76.33 198.353C76.4774 197.736 76.4628 197.091 76.2876 196.481C76.1124 195.871 75.7825 195.317 75.33 194.873C75.1315 194.613 75.0433 194.286 75.0845 193.962C75.1257 193.638 75.293 193.344 75.55 193.143C75.6202 193.081 75.7017 193.033 75.79 193.003C76.09 192.913 76.61 193.223 76.65 192.683C76.69 192.143 76.09 192.183 75.85 191.883C75.75 191.763 75.46 191.813 75.3 191.723C74.64 191.353 74.05 190.973 74.3 190.023C74.4281 189.316 74.5017 188.601 74.52 187.883C74.5661 187.634 74.5165 187.377 74.3811 187.164C74.2456 186.951 74.0345 186.797 73.79 186.733C73.7103 186.723 73.6297 186.723 73.55 186.733C72.66 186.733 72.81 186.193 73.06 185.733C73.3194 185.401 73.4411 184.982 73.4 184.563C73.3679 184.329 73.2776 184.107 73.1374 183.917C72.9973 183.727 72.8117 183.576 72.5978 183.476C72.3838 183.377 72.1483 183.332 71.9129 183.347C71.6774 183.363 71.4495 183.437 71.25 183.563C70.25 183.983 69.96 183.833 69.9 182.763C69.9096 182.625 69.8909 182.488 69.845 182.358C69.799 182.229 69.7269 182.11 69.6331 182.01C69.5392 181.909 69.4257 181.829 69.2996 181.775C69.1734 181.72 69.0374 181.692 68.9 181.693C68.35 181.593 67.85 182.083 67.28 181.633C66.9808 181.407 66.6063 181.305 66.234 181.348C65.8617 181.391 65.5201 181.575 65.28 181.863C64.8308 182.383 64.2402 182.761 63.58 182.953C62.1 183.243 60.7 183.543 59.79 184.953C59.14 186.003 58.13 186.823 57.52 187.883C56.7 189.323 56.8 189.363 55.14 189.223C54.14 189.143 52.97 188.723 52.03 189.453C50.79 190.453 49.45 190.223 48.13 189.923C47.3643 189.841 46.6454 189.515 46.0797 188.993C45.5141 188.47 45.1319 187.779 44.99 187.023C44.9614 186.783 44.8825 186.552 44.7584 186.346C44.6343 186.139 44.4679 185.961 44.27 185.823C43.77 185.493 43.54 185.533 43.47 186.183C43.4 186.833 43.61 187.553 43.14 188.043C42.6564 188.623 42.314 189.308 42.14 190.043C41.8577 190.802 41.8828 191.641 42.21 192.383C42.67 193.383 41.71 194.133 41.27 194.933C41.15 195.163 41.02 195.333 41.27 195.483C41.52 195.633 41.77 195.483 41.87 195.223C41.97 194.963 41.87 194.373 42.5 194.503C43.13 194.633 42.74 195.173 42.84 195.503C42.84 195.653 42.89 195.813 42.94 195.963C43.06 196.343 43.22 196.693 43.69 196.753C44.16 196.813 44.33 196.553 44.38 196.133C44.38 196.003 44.44 195.883 44.62 195.883C44.8 195.883 44.88 195.953 44.95 196.143C45.24 196.993 45.63 197.813 45.84 198.673C46.1 199.723 46.61 200.843 45.56 201.783C45.5289 201.813 45.5041 201.85 45.4872 201.89C45.4704 201.931 45.4617 201.974 45.4617 202.018C45.4617 202.061 45.4704 202.105 45.4872 202.145C45.5041 202.185 45.5289 202.222 45.56 202.253C46.91 203.573 46.91 205.253 46.67 206.913C46.4968 207.837 46.6339 208.794 47.06 209.633C47.32 210.113 47.4 210.773 46.38 210.763H44.66C44.21 210.763 43.66 210.993 43.91 211.463C44.56 212.533 44.33 213.623 44.34 214.743C44.34 215.263 44.1 216.083 44.74 216.323C45.38 216.563 45.62 215.783 46.06 215.473C46.5 215.163 46.69 214.633 47.06 214.993C47.2135 215.185 47.3083 215.417 47.3331 215.662C47.358 215.907 47.3117 216.153 47.2 216.373C47.0879 216.607 46.9277 216.814 46.73 216.983C46.5423 217.142 46.4068 217.354 46.3408 217.591C46.2749 217.828 46.2815 218.079 46.36 218.313C46.4919 218.928 46.6793 219.531 46.92 220.113C47.09 220.563 47.5 221.113 47.05 221.403C46.6 221.693 46.17 221.113 45.92 220.653C45.8012 220.391 45.65 220.146 45.47 219.923C45.15 219.593 45.1 219.003 44.47 218.923C44.42 219.553 44.4 220.153 44.4 220.763C44.4 222.253 44.8 223.833 43.4 225.103C42.95 225.503 42.15 226.273 42.62 227.013C42.8514 227.245 42.9814 227.56 42.9814 227.888C42.9814 228.216 42.8514 228.53 42.62 228.763L42.5 228.863C42.433 228.932 42.3843 229.016 42.3581 229.109C42.3319 229.201 42.3291 229.299 42.35 229.393C42.572 229.957 42.675 230.56 42.6526 231.166C42.6302 231.772 42.483 232.366 42.22 232.913C42.22 233.013 42.31 233.153 42.32 233.283C42.54 235.013 43.62 236.473 43.78 238.213C43.78 238.553 44.11 238.663 44.33 238.833C44.9831 239.308 45.4686 239.979 45.7165 240.748C45.9645 241.517 45.9622 242.345 45.71 243.113C45.55 243.573 45.45 244.023 45.81 244.213C46.0434 244.369 46.3244 244.439 46.604 244.41C46.8836 244.381 47.1441 244.254 47.34 244.053C47.5841 243.752 47.8445 243.465 48.12 243.193C48.3286 243.034 48.5876 242.957 48.8488 242.976C49.11 242.994 49.3557 243.107 49.54 243.293C49.7057 243.719 50.0325 244.063 50.4499 244.25C50.8672 244.437 51.3415 244.452 51.77 244.293C53.4222 243.75 54.879 242.735 55.96 241.373C56.1222 241.205 56.23 240.992 56.2693 240.762C56.3085 240.531 56.2774 240.295 56.18 240.083C55.93 239.133 55.32 238.083 55.83 237.183C55.9929 236.874 56.078 236.531 56.078 236.183C56.078 235.834 55.9929 235.491 55.83 235.183C55.66 234.653 55.07 233.953 55.67 233.653C56.27 233.353 56.67 234.303 57.08 234.723C57.08 234.723 57.08 234.853 57.13 234.903C57.58 236.023 57.93 236.163 59.13 235.713C60.8 235.073 60.8 235.073 61.8 236.713C61.94 236.919 62.09 237.129 62.25 237.343C62.7217 237.99 63.4041 238.453 64.18 238.653C64.6891 238.724 65.1511 238.989 65.47 239.393C65.84 239.893 66.25 239.903 66.58 239.313C67.2517 238.341 67.7616 237.267 68.09 236.133C68.2985 234.504 68.8215 232.932 69.63 231.503C69.8688 230.998 69.9011 230.42 69.72 229.893C69.62 229.573 69.48 229.373 69.72 229.053C70.57 227.713 70.72 226.133 71.09 224.653C71.63 222.743 71.76 220.703 72.32 218.793C72.6404 217.16 73.3815 215.64 74.47 214.383C74.85 214.003 74.75 213.663 74.47 213.273C73.73 212.333 73.01 211.373 72.27 210.423C72.0152 210.136 71.8553 209.777 71.8123 209.396C71.7694 209.014 71.8454 208.629 72.03 208.293C72.3342 207.722 72.7913 207.248 73.35 206.923C74.1381 206.355 74.8446 205.682 75.45 204.923C76.06 204.183 76 203.213 76.61 202.483C77.0095 202.073 77.2331 201.524 77.2331 200.953C77.2331 200.381 77.0095 199.832 76.61 199.423C76.4907 199.249 76.4101 199.053 76.3739 198.846C76.3376 198.638 76.3465 198.426 76.4 198.223M94.05 142C93.8499 141.983 93.6513 142.047 93.4977 142.176C93.344 142.305 93.2478 142.49 93.23 142.69C93.2167 142.832 93.2445 142.974 93.31 143.1C93.55 143.76 93.31 144.02 92.65 143.86C92.4 143.8 92.14 143.78 91.65 143.71C90.65 143.26 89.65 144.06 88.65 144.6C88.3581 144.712 88.1212 144.934 87.9888 145.217C87.8564 145.5 87.8389 145.824 87.94 146.12C88.0287 146.371 88.2053 146.581 88.4369 146.711C88.6686 146.842 88.9396 146.884 89.2 146.83C90.0922 146.74 90.9712 146.549 91.82 146.26C92.58 145.95 93.01 145.83 93.33 146.75C93.3858 146.883 93.4673 147.004 93.5698 147.106C93.6724 147.208 93.794 147.289 93.9277 147.343C94.0615 147.398 94.2047 147.426 94.3492 147.426C94.4937 147.425 94.6367 147.396 94.77 147.34C95.35 147.11 94.77 146.58 94.77 146.18C94.7723 146.082 94.7405 145.987 94.68 145.91C94.18 145.33 94.48 145.14 95.05 144.91C95.62 144.68 96.37 144.22 96.05 143.41C95.9087 142.984 95.632 142.615 95.2619 142.361C94.8918 142.106 94.4487 141.979 94 142M42.24 240.33C42.46 240.04 42.09 239.19 41.74 239.18C41.1632 239.537 40.6297 239.96 40.15 240.44C40.15 240.44 40.15 240.7 40.24 240.78C40.6279 241.186 40.9001 241.689 41.0285 242.236C41.1568 242.782 41.1366 243.354 40.97 243.89C40.91 244.16 41.04 244.3 41.27 244.41C41.3698 244.456 41.4822 244.468 41.5893 244.442C41.6963 244.417 41.7916 244.356 41.86 244.27C42.22 243.93 42.55 241.4 42.21 241.01C41.87 240.62 42.05 240.58 42.21 240.33M45.94 184.67C45.26 184.44 45.14 185.21 44.87 185.56C44.45 186.1 43.87 186.56 43.87 187.37C43.9058 187.617 43.9916 187.855 44.1223 188.068C44.253 188.281 44.4257 188.466 44.63 188.61C44.76 188.74 45.2 188.83 45.3 188.53C45.59 187.69 46.47 187.11 46.3 186.17C46.36 185.56 46.57 184.91 45.88 184.67M102.68 154.35C102.514 154.315 102.342 154.313 102.175 154.344C102.009 154.375 101.849 154.439 101.707 154.532C101.565 154.625 101.443 154.745 101.347 154.886C101.251 155.026 101.184 155.184 101.15 155.35C101.145 155.417 101.145 155.483 101.15 155.55C101.15 156.12 101.94 156.85 102.72 156.94C102.861 156.974 103.008 156.979 103.151 156.956C103.295 156.932 103.432 156.88 103.555 156.803C103.678 156.726 103.784 156.624 103.867 156.505C103.951 156.386 104.009 156.252 104.04 156.11C104.05 156.014 104.05 155.916 104.04 155.82C104.13 154.93 103.69 154.47 102.67 154.37M38.59 236.83C38.27 236.83 37.51 236.49 37.43 237.55C37.4286 237.978 37.5707 238.393 37.8336 238.731C38.0965 239.068 38.465 239.307 38.88 239.41C40.01 239.41 39.78 238.46 39.95 237.82C40.21 236.87 39.5 236.82 38.59 236.82M88.19 147.76C87.9 147.62 86.72 148.76 86.79 149.23C86.92 150.01 87.65 149.92 88.07 150.04C88.49 150.16 89.21 150.13 89.07 149.53C88.93 148.93 88.9 148.1 88.18 147.76M71.35 185.64C72.05 185.54 72.04 184.88 72.24 184.44C72.44 184 71.31 182.86 70.96 182.92C70.7921 182.94 70.6376 183.022 70.5267 183.149C70.4158 183.277 70.3563 183.441 70.36 183.61C70.36 184.82 70.81 185.72 71.36 185.61M90.63 154.55C90.28 154.19 89.91 153.83 89.55 153.47C89.38 153.3 89.08 153.18 89 153.47C88.8925 153.686 88.8307 153.922 88.8187 154.163C88.8067 154.404 88.8445 154.644 88.93 154.87C89.16 155.26 89.38 155.77 90.01 155.75C90.164 155.792 90.3275 155.783 90.4756 155.723C90.6237 155.664 90.7482 155.557 90.83 155.42C91.09 155.08 90.83 154.82 90.63 154.58M82.62 138.52C82.4287 138.48 82.2313 138.48 82.04 138.52C81.59 138.72 81.13 138.97 81.21 139.52C81.29 140.07 81.83 140 82.21 140.01C82.5267 139.969 82.8407 139.909 83.15 139.83C83.91 139.71 83.86 139.38 83.45 138.88C83.3506 138.752 83.2233 138.648 83.0776 138.577C82.932 138.506 82.772 138.47 82.61 138.47M177.52 265.42C177.17 265.29 176.79 265.15 176.52 265.54C176.25 265.93 176.52 266.26 176.87 266.54C177.68 267.17 178.51 267.09 179.47 266.15C178.6 266.15 178.09 265.67 177.47 265.44M181.91 274.64C182.57 274.39 181.98 273.64 181.91 273.11C181.892 272.924 181.812 272.749 181.684 272.613C181.555 272.477 181.385 272.388 181.2 272.36C180.57 272.58 180.6 273.07 180.89 273.49C181.18 273.91 181.35 274.85 181.89 274.64M20 20H267V330H20V20ZM28 31H258.8V319.39H28V31ZM179.06 268.51C179.122 269.304 179.41 270.064 179.89 270.7C180.07 270.87 180.37 271.02 180.46 270.82C180.787 270.24 180.982 269.594 181.03 268.93C181.016 268.647 180.924 268.373 180.763 268.14C180.602 267.907 180.38 267.723 180.12 267.61C179.63 267.77 178.92 267.95 179.06 268.51Z" stroke="none"/>
</g>
<defs>
<filter id="filter0_d_6_15" x="15.5" y="19.5" width="256" height="319" filterUnits="userSpaceOnUse" color-interpolation-filters="sRGB">
<feFlood flood-opacity="0" result="BackgroundImageFix"/>
<feColorMatrix in="SourceAlpha" type="matrix" values="0 0 0 0 0 0 0 0 0 0 0 0 0 0 0 0 0 0 127 0" result="hardAlpha"/>
<feOffset dy="4"/>
<feGaussianBlur stdDeviation="2"/>
<feComposite in2="hardAlpha" operator="out"/>
<feColorMatrix type="matrix" values="0 0 0 0 0 0 0 0 0 0 0 0 0 0 0 0 0 0 0.25 0"/>
<feBlend mode="normal" in2="BackgroundImageFix" result="effect1_dropShadow_6_15"/>
<feBlend mode="normal" in="SourceGraphic" in2="effect1_dropShadow_6_15" result="shape"/>
</filter>
</defs>
</svg>
