<svg xmlns="http://www.w3.org/2000/svg" xmlns:xlink="http://www.w3.org/1999/xlink" viewBox="0 0 231.8 289.4"><defs><style>.cls-1,.cls-3{fill:none;}.cls-2{clip-path:url(#clip-path);}.cls-3{stroke:#ffff; stroke-width: 1;}</style><clipPath id="clip-path" transform="translate(0.5 0.52)"><rect fill="white" class="cls-1" width="230.8" height="288.39"/></clipPath></defs><g id="Livello_2" data-name="Livello 2"><g id="Livello_1-2" data-name="Livello 1"><g class="cls-2"><g id="Raggruppa_40" data-name="Raggruppa 40"><path id="Tracciato_419" data-name="Tracciato 419" class="cls-3" d="M229.93,197c1.13-1.2,1.13-1.76.2-3.09-.47-.67-.94-1.4-.4-2.32a1,1,0,0,0-.24-1.24c-.62-.59-1.23-1.19-1.82-1.81-.79-.84-1.91-1.58-2.26-2.58-.42-1.21-1.11-1.27-2.06-1.36a2.4,2.4,0,0,1-2.33-2,10.1,10.1,0,0,0-.42-1.87,1.08,1.08,0,0,0-1.11-1c-2.5,0-4.62-1.18-6.67-2.29a27.45,27.45,0,0,1-5.54-4.11,32.48,32.48,0,0,0-5.38-4.41,43.24,43.24,0,0,0-8.05-3.51,60.67,60.67,0,0,1-5.57-2.51c-1.67-.77-3.32-1.67-4.95-2.57a30.51,30.51,0,0,1-5.6-3.53c-1.6-1.4-1.94-2.27-1.28-4.24.11-.34.27-.43.56-.29a1.87,1.87,0,0,0,2.53-.51,2,2,0,0,1,.8-.54,4.87,4.87,0,0,0,2.56-3.39,3.39,3.39,0,0,0-2.76-3.92,3.43,3.43,0,0,0-1.56.09,29.5,29.5,0,0,1-6,.68,28.35,28.35,0,0,0-5.45.07,1.72,1.72,0,0,1-1.57-.35,3.65,3.65,0,0,0-2.73-1,4.36,4.36,0,0,1-3.28-1.62,4.26,4.26,0,0,0-3.14-1.74,2.81,2.81,0,0,1-2.84-1.94c-.41-1-.84-2.1-2.18-2.28a.85.85,0,0,1-.4-.26,18.36,18.36,0,0,1-3.89-5,4.08,4.08,0,0,0-2.4-2,1.82,1.82,0,0,1-.83-.47c-2-2.34-4.09-4.67-4.87-7.77s-1.75-5.94-1.95-9.06c-.1-1.59-.17-3.28-1.13-4.57a7.84,7.84,0,0,1-1.36-3.64,15.87,15.87,0,0,0-1.75-5.32A3.34,3.34,0,0,0,130.72,96a9.87,9.87,0,0,1-3.41-1.86,42.63,42.63,0,0,1-4.83-4.86,22,22,0,0,0-5-3.52,14.39,14.39,0,0,1-2-1.24c-1.1-.9-2-2-3.08-2.91-2.75-2.44-3.88-5.61-4.3-9.13-.25-2,.1-4.1-.5-6.13a4,4,0,0,1,0-2.5c.22-.56.46-1.13-.11-1.67-.14-.14-.1-.31.06-.5.62-.69,2.39-.47,2.68.38.08.23.09.46.4.4s.22-.3.24-.48a3,3,0,0,0,0-.67c-.07-.46-.22-1,.4-1.1s.62.41.7.82a.44.44,0,0,0,.44.43c.42,0,.31-.33.35-.56.13-.79.21-1.59.37-2.39.33-1.7,0-1.94-1.6-2.33-.68-.16-.7.63-1.22.53a3.27,3.27,0,0,1-.17-1.42.43.43,0,0,0-.28-.53l-.12,0c-.58-.08-.58-.1-.22-.56a2.58,2.58,0,0,0-.32-3.63,2.72,2.72,0,0,0-.88-.49c-.48-.17-1-.5-.91-1.06.14-1.24-.21-2.68,1.23-3.47.17-.09.22-.29.31-.47.46-.92,1-1.84,2.12-2.05a4.13,4.13,0,0,0,2.94-1.66.37.37,0,0,1,.51-.11h0c.53.32,1.43.58,1.41,1.1s-.9.72-1.53.63-.83.27-1,.7-.21.65.12.9a.93.93,0,0,0,1.1-.07c1.33-.78,2.75-1.38,4.08-2.16a4,4,0,0,1,1.8-.6c1.6-.08,2.13-1,1.59-2.48-.11-.33-.32-.66,0-1,.43.28,1,.32,1,1.09,0,.39.37.69.93.75a7.4,7.4,0,0,0,2.24-.27,1.19,1.19,0,0,0,1-1.17.85.85,0,0,0-.62-1c-.63-.28-.22-.62.14-.75a3.5,3.5,0,0,1,3-.09c.5.28,1,.54,1.5.81.74.41,1.8.82,1.5,2.07a.22.22,0,0,0,.17.26h.07a23.53,23.53,0,0,0,2.5-2.59l3.37,3.17c.49.46.56.8-.21,1.05-.43.14-.92.35-.64,1a1,1,0,0,0,1.22.72.52.52,0,0,0,.16-.06,3.1,3.1,0,0,0,1.77-4A2.06,2.06,0,0,0,141,39a8.79,8.79,0,0,0-2.62-2.74c-.76-.52-1.53-1.09-1.35-2.22.38-2.28.38-2.29-1.85-3-.63-.21-.68-.5-.32-1a6.34,6.34,0,0,1,1.78-1.43c.6-.39,1.36-.7,1.24-1.6a1.93,1.93,0,0,0-1.47-1.61c-.64-.23-1.28-.43-1.94-.6s-1.6-.5-1.65-1.39c-.05-.67.53-1.18,1.09-1.56a14.39,14.39,0,0,1,6.37-2.92c.56-.07.62-.41.6-.81s.33-.82-.2-.91c-.78-.12-1.5-.65-2.36-.31a.81.81,0,0,1-.74-.1c-.73-.9-1.85-.64-2.76-.89s-1.84-.71-2.81-.15a.72.72,0,0,1-.48,0c-1-.36-2.1-.76-3.17-1.1-1.58-.5-3-1.56-4.84-1a1.74,1.74,0,0,1-2.28-.72c-.14-.25-.53-.32-.87-.35a15.25,15.25,0,0,0-2.24-.17,2.78,2.78,0,0,1-3-1.93,3.25,3.25,0,0,0-.23-.54C114.4,9,114.16,8,113,7.71a.86.86,0,0,1-.61-1l0-.09a1.66,1.66,0,0,0-.71-2c-1.47-.82-2-1.83-1.35-3.45.25-.61-.13-1-.84-1.11a9.11,9.11,0,0,0-2.5.07,11.07,11.07,0,0,0-3.2,1.47c-.78.44-1.5,1-2.49.14A3.9,3.9,0,0,0,99,.79c-.64,0-1,.34-1.51.52-1.45.51-2.94.23-4.4.33a3.72,3.72,0,0,0-3.67,3.08c-.22.81-.56,1.75-1.65,1.72-.83,0-1.67-.2-2.5-.31C84.19,6,84,5.39,83.77,4.57a1.37,1.37,0,0,0-1.6-1.11l-.1,0a12.72,12.72,0,0,1-2.29.3c-1.52,0-2.16.88-2,2.42s.8,3.28.42,5c-.13.6-.44.86-1,.64a6.1,6.1,0,0,1-3.12-2.8c-.15-.26-.35-.47-.61-.35a9.27,9.27,0,0,0-2.58,1.37c-1,.85-.87,2.2-1.5,3.22-.24.4.09.72.59.75s1.24.12,1.85.17c.35,0,.65.1.71.52s-.29.54-.58.65a1.66,1.66,0,0,0-1.07,1.5,9.36,9.36,0,0,1-.32,1.88,1.22,1.22,0,0,1-1.08,1c-.4,0-.46-.65-.46-1.05,0-1.18-1-2-1.15-3.1,0-.2-.25-.48-.47-.44-.65.14-1.4-.05-1.94.42a8.13,8.13,0,0,1-3.32,1.43A.94.94,0,0,1,61,16.54a.31.31,0,0,1,0-.08c-.2-.59-.51-1.11-.7-1.69a9.91,9.91,0,0,0-3.42-4.72,1.74,1.74,0,0,0-1.56-.25c-.51.13-.33.72-.39,1.11a4.74,4.74,0,0,0,.23,2.76A1.26,1.26,0,0,1,55,14.9c-1.18,1.35-1.88,3.06-3.22,4.25a3.34,3.34,0,0,0-1.49,2.74c0,.37-.33.53-.46.8-.3.59-1.25.93-.84,1.77s1.19,1.59.26,2.55c0,0,0,.12,0,.18.18.74-.17,1.3-.85,1.32a2.85,2.85,0,0,1-2.62-2.61,16.26,16.26,0,0,0-.24-2.2,4.61,4.61,0,0,1,0-2.55c.39-1-.06-1.51-1.18-1.29a2.76,2.76,0,0,1-3.22-1.31,24.57,24.57,0,0,0-1.67-2.24,1.75,1.75,0,0,1-.05-2.46l.11-.11a6.91,6.91,0,0,0,1.47-3.07.92.92,0,0,0-.49-1.12,2.83,2.83,0,0,0-3.37,1.31,3.66,3.66,0,0,1-4.06,2.3c-.5,0-1.14-.12-1.43.34a1.81,1.81,0,0,0,.15,1.72c.72,1.69,1.3,2.47-.89,3.7a8.18,8.18,0,0,0-3.24,3,1.87,1.87,0,0,1-2.36,1c-.4-.13-.6-.48-.89-.72-1.06-.86-2.49-.87-3.56-1.62-.76-.53-1.27-.19-1.81.28-.22.19-.41.4-.62.61a3.2,3.2,0,0,1-3.18,1.13,10.74,10.74,0,0,0-3.1-.23c-.4,0-.67-.24-.81-.68-.2-.61-.45-1.15-1.18-.35a2.77,2.77,0,0,1-1.28.64c-1,.27-1.95.62-2.94.86a.84.84,0,0,0-.73.94.76.76,0,0,0,.11.33A10.62,10.62,0,0,0,8,27.13c.35.27,1.17-.05,1.07.8-.06.52-.12,1-.21,1.55a1.51,1.51,0,0,1-.23.52,1,1,0,0,0,.22,1.43l.11.07a9.27,9.27,0,0,0,1.73,1.18c1,.48,1,1,.18,1.62a2.45,2.45,0,0,0-1,2.65c.07.4.11.82.21,1.22s0,.46-.27.49c-1.82.15-3,1.32-4.19,2.53a1.07,1.07,0,0,1-1,.35c-1-.11-2-.17-3-.29A1.42,1.42,0,0,0,.09,42c-.32.63.29,1,.65,1.33s.67.39.84.78A10.16,10.16,0,0,1,2.45,48c0,.21,0,.42.17.53.72.41,1.34,1.31,2.14,1.21,1.62-.2,2.19.58,2.42,1.94,0,.06.09.1.11.16a1.13,1.13,0,0,1-.49,1.53,1.24,1.24,0,0,1-.5.13,1.59,1.59,0,0,0-1.55,1.6A2.5,2.5,0,0,1,3,57.31c-.32.14-.67.17-.86.55-.41.81-.19,1.23,1.13,1.78.35.15.79.32.74.64a.84.84,0,0,1-.89.55c-.63-.09-.79.24-.7.71.23,1.29.27,2.56,1.46,3.57,2,1.68,4.26,2.92,6,4.89a1.37,1.37,0,0,0,1.43.42c1.5-.47,3.28.17,4.56-1.17.23-.25.62-.13.91,0a.4.4,0,0,1,.19.53.21.21,0,0,1,0,.06c-.76,1-.24,1.75.39,2.53.38.47.53,1-.19,1.33-3.17,1.67-3.94,2.88-3.47,6.08.11.72.43.9,1.06,1a14.92,14.92,0,0,0,3.47-.08,11.85,11.85,0,0,0,4.74-1c1.24-.64,2-1.92,3.13-2.71A1.34,1.34,0,0,0,26.36,76a1.53,1.53,0,0,1,.7-1.4C28,73.84,29,73,29.92,72.3a.87.87,0,0,1,.9-.14c1.1.44,1.69.06,1.9-1.14a5.77,5.77,0,0,1,3.52-3.72,26.06,26.06,0,0,0,3.4-.62,1.57,1.57,0,0,1,1.33.18,5.17,5.17,0,0,0,2.77.74,2.36,2.36,0,0,1,2.35,1.63c.23.57.48,1.28,1.28,1.27,2.55,0,4.25,1.81,6.31,2.86a3.25,3.25,0,0,1,1.09,1.18c.71,1.16,1.55,2.23,2.35,3.33a.93.93,0,0,0,1.25.43.78.78,0,0,0,.24-.16.77.77,0,0,1,1.09-.07.72.72,0,0,1,.18.24,2.84,2.84,0,0,0,1.36,1,4.83,4.83,0,0,1,3.28,2.77,15.78,15.78,0,0,0,2.53,4.8c.3.37.07.53-.38.56-1,.08-1.53.62-1.19,1.3A6.32,6.32,0,0,1,66,91.46c0,1.05-.34,2.28.08,3.12a14.85,14.85,0,0,0,2.07,3.58,6.15,6.15,0,0,1,1.35,2.77,14.08,14.08,0,0,1-.08,4.25,7.49,7.49,0,0,1-1,3.09,1.35,1.35,0,0,0,.1,1.56,1,1,0,0,0,1.25.17,1.28,1.28,0,0,1,1.63.38c.28.27.49.6.95.59a1.39,1.39,0,0,1,1.45.8c.2.57-.32.92-.72,1.3-.64.6-.45,1.08.36,1.36a6.3,6.3,0,0,1,1.38.61c1.36.81,2,2.32,3.18,3.22a6.23,6.23,0,0,1,2.3,2.63c.41,1.09,1.5,2.24,0,3.43-.49.39-.21,1.32.44,1.61a4.41,4.41,0,0,0,2.31.49,7,7,0,0,1,4.31.83c2.26,1.35,3.33,3.68,4.34,6a2.69,2.69,0,0,1,.3,1.5A2.27,2.27,0,0,0,93.3,137c2,1.34,4.4,2.16,6.11,4a2.1,2.1,0,0,0,.42.24,2.16,2.16,0,0,1,1,1.95c0,.42-.07.84-.1,1.26-.07,1.22.43,1.86,1.64,1.92a2.27,2.27,0,0,1,2.24,1.51,7,7,0,0,0,.72,1,12.22,12.22,0,0,1,1.36,2.42c.44,1.38.92,2.74,2.44,3.46.74.35,1.56.25,2.22.59a7.2,7.2,0,0,1,3.9,4.06,1.57,1.57,0,0,0,1.8,1.31l.25-.06c1-.21,1.89-.56,2.85-.8.74-.18,1.6-.69,2.21-.3a16.72,16.72,0,0,0,2.09,1.28c1.12.5,2.2,1.29,3.39.14a1.06,1.06,0,0,1,.55-.18c1.6-.27,4.17,1.42,4.65,3.66a24.36,24.36,0,0,0,.87,2.62A1.94,1.94,0,0,0,135,168.4a2.44,2.44,0,0,1,1.4,2.84c-.06.52-.08,1.28.22,1.56.94.89,1.93,2,3.34,1.84a4.73,4.73,0,0,1,4,1.59c.91.83.81,1.48-.34,2-.18.08-.38.1-.56.18a1.67,1.67,0,0,0-.94,1.84c.26.8,1,.93,1.67.88a4.57,4.57,0,0,0,1.34-.48,3.92,3.92,0,0,1,2.94-.43,2.69,2.69,0,0,0,3.22-.84.77.77,0,0,1,1.08-.2.87.87,0,0,1,.17.16,17.93,17.93,0,0,1,3.33,4.81c.13.3.25.63-.1.76-1.07.4-1.6.91-1.23,2.22a1.61,1.61,0,0,1-1.09,1.75c-.26.1-.72.32-.67.63.08.47.58.42,1,.46a11.3,11.3,0,0,0,1.17.1,1.22,1.22,0,0,1,1.24.9,2.69,2.69,0,0,0,1.35,1.39c1.46,1,3.57,1.25,4,3.46,0,.07.12.12.2.18,1.94,1.48,3.2,1.39,4.84-.37.31-.33.75-.78,1.11-.57,1.33.76,2.89,1.33,3.15,3.19a4.41,4.41,0,0,0,.5,1.44,10,10,0,0,1,1.13,5.09,2.38,2.38,0,0,0,.63,1.86c.39.42.87.85.81,1.49a1.41,1.41,0,0,0,.43,1.14,7.11,7.11,0,0,1,1.48,2.57,15.8,15.8,0,0,1,1.21,3.79c.09.9,0,1.81.19,2.69a36.1,36.1,0,0,1,.53,4.76c.09,1.84.47,3.28,2.17,4.19a1.29,1.29,0,0,1,.43.62,3,3,0,0,1-.25,2.82c-.5,1-2,2-3.06,1.66a3.22,3.22,0,0,0-2.49.16,9.11,9.11,0,0,0-2.24,1.49c-1,.8-1,1,0,2a7.29,7.29,0,0,1,1.55,2.18,1.4,1.4,0,0,1-.17,1.43c-.79,1.33-2,2.35-2.52,3.92a1.41,1.41,0,0,1-1.61,1c-.39,0-.78-.09-1.17-.11-1.16-.06-1.67.5-1.42,1.64.18.78.48,1.53.65,2.31a3.17,3.17,0,0,1-.53,3c-.39.45-.6,1.12,0,1.5a4,4,0,0,0,2.71.85,9.5,9.5,0,0,1,5.2.36,3.26,3.26,0,0,0,3.71-2.41,7,7,0,0,1,1.75-3.66,3.69,3.69,0,0,0,1-1.29c.58-1.56,2-2.1,3.31-2.51a8.86,8.86,0,0,0,3.58-2.11,2,2,0,0,0,.61-1.18c.4-2.39-.26-4.71-.37-7.06a.44.44,0,0,0-.14-.25c-.45-.45-.46-.77.18-1.09a1.21,1.21,0,0,0,.52-.78,3.24,3.24,0,0,1,2-2.28c.17-.08.22-.22.34-.31.87-.67,1.65-1.64,2.76-1.74,1.76-.16,3.49.5,5.27.53.73,0,1.59.34,2-.27a3.23,3.23,0,0,0,.37-2.8c-.45-1.32-1.39-2.4-1.43-3.93,0-1.87-.76-3.75.5-5.5.32-.44.09-.79-.4-1.06a6.53,6.53,0,0,1-2.28-1.69,7.14,7.14,0,0,0-2.27-2.07,16.19,16.19,0,0,1-2.72-2.08,2.13,2.13,0,0,0-2-.77,2.28,2.28,0,0,1-1.81-.7c-1.44-1.12-.93-2.83-1.39-4.23,0-.11.1-.35.22-.42a20.38,20.38,0,0,0,2-1.73,1.7,1.7,0,0,0,.63-2.31l-.05-.08a2.73,2.73,0,0,1,.54-3.27,11.68,11.68,0,0,0,2.67-4,20.55,20.55,0,0,1,3.27-5c.72-.93,1.68-2,3.13-1.62a21.37,21.37,0,0,1,2.87,1.23c-.7.31-1.12.54-1.58.7a.65.65,0,0,0-.47.73c0,.41.31.31.53.41a5.86,5.86,0,0,0,1.9.35,4.65,4.65,0,0,1,2.21.85,13,13,0,0,0,2.65,1.53,4.92,4.92,0,0,0,2.75.41c3.53-.68,5.62-.3,6.52,2.54.23.71,1.2,1.2.93,2-.44,1.35,1.2,2.47.31,3.81,0,0,.08.17.15.24,1.37,1.48,2.83,2.82,5,3.09.83.1,1.63.08,2.21.92.4.59,1.16.32,1.68.08s.52-.84.32-1.37c-.12-.3-.28-.57-.4-.87a1.63,1.63,0,0,1,.26-2c.63-.6,1.23-1.24,1.83-1.88" transform="translate(0.5 0.52)"/><path id="Tracciato_420" data-name="Tracciato 420" class="cls-3" d="M165.84,243a1,1,0,0,0-1.08.16,26.85,26.85,0,0,1-2.76,1.57,1.8,1.8,0,0,1-2.51-.54,1.72,1.72,0,0,1-.21-.43c-.06-.32.05-.76-.37-.75s-.65.36-.84.76a20,20,0,0,1-1.39,2.92,1.51,1.51,0,0,1-2,.63,1.88,1.88,0,0,1-.39-.29c-.81-.79-1.91-1.07-2.77-1.76-.36-.3-.71-.1-1,.07a1.6,1.6,0,0,1-1.65,0,1.47,1.47,0,0,0-2,.47,1.85,1.85,0,0,0-.18.44c-.84,2.06-1.39,2.34-3.58,2.23a9.15,9.15,0,0,0-4.9.68,1.85,1.85,0,0,1-2.4-.52c-.49-.48-1-1-1.84-.51-.19.11-.51,0-.77,0a5.21,5.21,0,0,0-3.31,1c-1,.87-4.17,1.07-5.2.23a7.83,7.83,0,0,1-2.82-3.39c-.48-1.35-1.15-1.48-2-.65-1.19,1.15-1.37,1.13-1.91-.43a4.92,4.92,0,0,0-.58-1.2,1.72,1.72,0,0,0-2.28-.62,2.05,2.05,0,0,1-1.64.22c-.89-.32-1.44.11-2,.76s-1,.94-.79,1.87c.17.69-.45,1.14-1.15,1.1a4.28,4.28,0,0,1-3.72-2.17,16.82,16.82,0,0,0-1.42-1.85.63.63,0,0,0-.7-.23c-.28.07-.36.26-.33.59a1.21,1.21,0,0,1-.88,1.22c-1.64.6-2.57,2.12-4,3a1.8,1.8,0,0,0-1,1.56,11,11,0,0,1-.83,4.2c-.4,1.42-.1,3.67,1.63,4.15a3.28,3.28,0,0,1,2.27,2,.72.72,0,0,0,.84.47,60.05,60.05,0,0,1,6.43.46.86.86,0,0,1,.88.75c.25,1.35.4,1.48,1.84,1.52a1.8,1.8,0,0,1,2,1.53.77.77,0,0,1,0,.15,2,2,0,0,0,1.58,1.82,2.44,2.44,0,0,1,1.5,1.1,3.85,3.85,0,0,0,4,1.77c.56-.08,1.21-.14,1.5.58a7,7,0,0,0,2.16,2.49,11.66,11.66,0,0,0,4,2.26,4.83,4.83,0,0,0,4,.11c1.44-.72,2.22-.42,3.29.86,1.33,1.6,2.84,3,4.31,4.5a8,8,0,0,1,2.25,2.61c.38,1,.82,1.91,2.12,2,.2,0,.43.38.58.62a2.91,2.91,0,0,0,3.6,1.56c.32-.07.62-.36.82-.33,1.76.3,3.59.42,5.09,1.62.83.67,1.07.53,1.19-.57.14-1.33.3-2.66.36-4,.06-1.09.16-2.06,1.44-2.4a1.34,1.34,0,0,0,.63-.59,3.8,3.8,0,0,1,2.2-1.71c.42-.12.85-.68.44-.89-.75-.37-.58-.86-.48-1.37s0-.73-.58-.85a2.28,2.28,0,0,1-1.69-1.73c-.1-.36-.2-.79.13-1.07s.63,0,.9.12.47.25.68,0-.09-.45-.21-.65a6.94,6.94,0,0,0-2.78-2c-.36-.2-.67-.37-.53-.87a2.58,2.58,0,0,0-.69-2.26c-.3-.43-.43-.77.18-1.18a7,7,0,0,0,2.84-4.47c.36-1.61.42-3.33,1.82-4.54a11.18,11.18,0,0,0,1.45-1.62,31.57,31.57,0,0,0,4.25-6.57,13.14,13.14,0,0,0,1.38-4.79,1.16,1.16,0,0,0-.48-1" transform="translate(0.5 0.52)"/><path id="Tracciato_421" data-name="Tracciato 421" class="cls-3" d="M48,170.62a3.68,3.68,0,0,0-1-3.48,1.24,1.24,0,0,1,.22-1.73.72.72,0,0,1,.24-.14c.3-.09.82.22.86-.32s-.56-.5-.8-.8c-.1-.12-.39-.07-.55-.16-.66-.37-1.25-.75-1-1.7a14,14,0,0,0,.22-2.14,1,1,0,0,0-.73-1.15,1,1,0,0,0-.24,0c-.89,0-.74-.54-.49-1a1.64,1.64,0,0,0,.34-1.17,1.41,1.41,0,0,0-2.15-1c-1,.42-1.29.27-1.35-.8a1,1,0,0,0-1-1.07h0c-.55-.1-1.05.39-1.62-.06a1.46,1.46,0,0,0-2,.23l0,0a3.55,3.55,0,0,1-1.7,1.09c-1.48.29-2.88.59-3.79,2-.65,1.05-1.66,1.87-2.27,2.93-.82,1.44-.72,1.48-2.38,1.34-1-.08-2.17-.5-3.11.23-1.24,1-2.58.77-3.9.47a3.58,3.58,0,0,1-3.14-2.9,1.71,1.71,0,0,0-.72-1.2c-.5-.33-.73-.29-.8.36s.14,1.37-.33,1.86a4.88,4.88,0,0,0-1,2,3.11,3.11,0,0,0,.07,2.34c.46,1-.5,1.75-.94,2.55-.12.23-.25.4,0,.55s.5,0,.6-.26,0-.85.63-.72.24.67.34,1c0,.15.05.31.1.46.12.38.28.73.75.79s.64-.2.69-.62c0-.13.06-.25.24-.25s.26.07.33.26c.29.85.68,1.67.89,2.53.26,1.05.77,2.17-.28,3.11a.33.33,0,0,0,0,.47s0,0,0,0c1.35,1.32,1.35,3,1.11,4.66a4.27,4.27,0,0,0,.39,2.72c.26.48.34,1.14-.68,1.13H16.33c-.45,0-1,.23-.75.7.65,1.07.42,2.16.43,3.28,0,.52-.24,1.34.4,1.58s.88-.54,1.32-.85.63-.84,1-.48a1.28,1.28,0,0,1,.14,1.38,1.85,1.85,0,0,1-.47.61,1.23,1.23,0,0,0-.37,1.33,10.42,10.42,0,0,0,.56,1.8c.17.45.58,1,.13,1.29s-.88-.29-1.13-.75a3.42,3.42,0,0,0-.45-.73c-.32-.33-.37-.92-1-1-.05.63-.07,1.23-.07,1.84,0,1.49.4,3.07-1,4.34-.45.4-1.25,1.17-.78,1.91a1.24,1.24,0,0,1,0,1.75l-.12.1a.58.58,0,0,0-.15.53,4.4,4.4,0,0,1-.13,3.52c0,.1.09.24.1.37.22,1.73,1.3,3.19,1.46,4.93,0,.34.33.45.55.62a3.82,3.82,0,0,1,1.38,4.28c-.16.46-.26.91.1,1.1a1.2,1.2,0,0,0,1.53-.16,10.61,10.61,0,0,1,.78-.86,1.08,1.08,0,0,1,1.42.1,1.74,1.74,0,0,0,2.23,1h0a8.89,8.89,0,0,0,4.19-2.92,1.16,1.16,0,0,0,.22-1.29c-.25-.95-.86-2-.35-2.9a2.14,2.14,0,0,0,0-2c-.17-.53-.76-1.23-.16-1.53s1,.65,1.41,1.07c0,0,0,.13.05.18.45,1.12.8,1.26,2,.81,1.67-.64,1.67-.64,2.67,1q.21.31.45.63a3.45,3.45,0,0,0,1.93,1.31,2,2,0,0,1,1.29.74c.37.5.78.51,1.11-.08a10.94,10.94,0,0,0,1.51-3.18,12.67,12.67,0,0,1,1.54-4.63,2.14,2.14,0,0,0,.09-1.61c-.1-.32-.24-.52,0-.84.85-1.34,1-2.92,1.37-4.4.54-1.91.67-3.95,1.23-5.86a9.55,9.55,0,0,1,2.15-4.41c.38-.38.28-.72,0-1.11-.74-.94-1.46-1.9-2.2-2.85a1.86,1.86,0,0,1-.24-2.13,3.48,3.48,0,0,1,1.32-1.37,10.63,10.63,0,0,0,2.1-2c.61-.74.55-1.71,1.16-2.44a2.19,2.19,0,0,0,0-3.06,1.46,1.46,0,0,1-.21-1.2" transform="translate(0.5 0.52)"/><path id="Tracciato_422" data-name="Tracciato 422" class="cls-3" d="M66.05,111a.76.76,0,0,0-.82.69.74.74,0,0,0,.08.41c.24.66,0,.92-.66.76-.25-.06-.51-.08-1-.15-1-.45-2,.35-3,.89a1.21,1.21,0,0,0-.71,1.52,1.1,1.1,0,0,0,1.26.71,11.79,11.79,0,0,0,2.62-.57c.76-.31,1.19-.43,1.51.49a1.1,1.1,0,0,0,1.44.59l0,0c.58-.23,0-.76,0-1.16a.42.42,0,0,0-.09-.27c-.5-.58-.2-.77.37-1s1.32-.69,1-1.5A2.06,2.06,0,0,0,66,111" transform="translate(0.5 0.52)"/><path id="Tracciato_423" data-name="Tracciato 423" class="cls-3" d="M14.24,209.33c.22-.29-.15-1.14-.5-1.15a8.81,8.81,0,0,0-1.59,1.26s0,.26.09.34a3.15,3.15,0,0,1,.73,3.11c-.06.27.07.41.3.52a.49.49,0,0,0,.59-.14c.36-.34.69-2.87.35-3.26s-.16-.43,0-.68" transform="translate(0.5 0.52)"/><path id="Tracciato_424" data-name="Tracciato 424" class="cls-3" d="M17.94,153.67c-.68-.23-.8.54-1.07.89-.42.54-1,1-1,1.81a1.84,1.84,0,0,0,.76,1.24c.13.13.57.22.67-.08.29-.84,1.17-1.42,1-2.36.06-.61.27-1.26-.42-1.5" transform="translate(0.5 0.52)"/><path id="Tracciato_425" data-name="Tracciato 425" class="cls-3" d="M74.68,123.35a1.29,1.29,0,0,0-1.53,1,1.36,1.36,0,0,0,0,.2c0,.57.79,1.3,1.57,1.39a1.09,1.09,0,0,0,1.32-.83,1.36,1.36,0,0,0,0-.29c.09-.89-.35-1.35-1.37-1.45" transform="translate(0.5 0.52)"/><path id="Tracciato_426" data-name="Tracciato 426" class="cls-3" d="M10.59,205.83c-.32,0-1.08-.34-1.16.72a1.91,1.91,0,0,0,1.45,1.86c1.13,0,.9-.95,1.07-1.59.26-.95-.45-1-1.36-1" transform="translate(0.5 0.52)"/><path id="Tracciato_427" data-name="Tracciato 427" class="cls-3" d="M151.06,237.51a4.18,4.18,0,0,0,.83,2.19c.18.17.48.32.57.12a4.52,4.52,0,0,0,.57-1.89,1.52,1.52,0,0,0-.91-1.32c-.49.16-1.2.34-1.06.9" transform="translate(0.5 0.52)"/><path id="Tracciato_428" data-name="Tracciato 428" class="cls-3" d="M60.19,116.76c-.29-.14-1.47,1-1.4,1.47.13.78.86.69,1.28.81s1.14.09,1-.51-.17-1.43-.89-1.77" transform="translate(0.5 0.52)"/><path id="Tracciato_429" data-name="Tracciato 429" class="cls-3" d="M43.35,154.64c.7-.1.69-.76.89-1.2s-.93-1.58-1.28-1.52a.68.68,0,0,0-.6.69c0,1.21.45,2.11,1,2" transform="translate(0.5 0.52)"/><path id="Tracciato_430" data-name="Tracciato 430" class="cls-3" d="M62.63,123.55c-.35-.36-.72-.72-1.08-1.08-.17-.17-.47-.29-.55,0a1.75,1.75,0,0,0-.07,1.4c.23.39.45.9,1.08.88a.73.73,0,0,0,.82-.33c.26-.34,0-.6-.2-.84" transform="translate(0.5 0.52)"/><path id="Tracciato_431" data-name="Tracciato 431" class="cls-3" d="M54.62,107.52a1.42,1.42,0,0,0-.58,0c-.45.2-.91.45-.83,1s.62.48,1,.49a7.78,7.78,0,0,0,.94-.18c.76-.12.71-.45.3-.95a1.06,1.06,0,0,0-.84-.41" transform="translate(0.5 0.52)"/><path id="Tracciato_432" data-name="Tracciato 432" class="cls-3" d="M149.52,234.42c-.35-.13-.73-.27-1,.12s0,.72.35,1c.81.63,1.64.55,2.6-.39-.87,0-1.38-.48-2-.71" transform="translate(0.5 0.52)"/><path id="Tracciato_433" data-name="Tracciato 433" class="cls-3" d="M153.91,243.64c.66-.25.07-1,0-1.53a.84.84,0,0,0-.71-.75c-.63.22-.6.71-.31,1.13s.46,1.36,1,1.15" transform="translate(0.5 0.52)"/></g></g></g></g></svg>