<svg width="249" height="312" viewBox="0 0 249 312" fill="none" xmlns="http://www.w3.org/2000/svg">


<path d="M238.93 209C240.06 207.8 240.06 207.24 239.13 205.91C238.66 205.24 238.19 204.51 238.73 203.59C238.839 203.387 238.874 203.153 238.831 202.927C238.787 202.701 238.667 202.498 238.49 202.35C237.87 201.76 237.26 201.16 236.67 200.54C235.88 199.7 234.76 198.96 234.41 197.96C233.99 196.75 233.3 196.69 232.35 196.6C231.789 196.591 231.249 196.387 230.823 196.021C230.398 195.656 230.113 195.153 230.02 194.6C229.94 193.965 229.799 193.339 229.6 192.73C229.58 192.452 229.453 192.193 229.246 192.007C229.039 191.821 228.768 191.722 228.49 191.73C225.99 191.73 223.87 190.55 221.82 189.44C219.808 188.308 217.946 186.928 216.28 185.33C214.65 183.672 212.846 182.193 210.9 180.92C208.343 179.48 205.646 178.304 202.85 177.41C200.952 176.667 199.093 175.83 197.28 174.9C195.61 174.13 193.96 173.23 192.33 172.33C190.341 171.36 188.463 170.176 186.73 168.8C185.13 167.4 184.79 166.53 185.45 164.56C185.56 164.22 185.72 164.13 186.01 164.27C186.416 164.526 186.906 164.616 187.377 164.521C187.848 164.426 188.265 164.154 188.54 163.76C188.759 163.517 189.033 163.332 189.34 163.22C189.995 162.885 190.566 162.406 191.009 161.819C191.452 161.232 191.757 160.552 191.9 159.83C192.054 158.944 191.849 158.034 191.332 157.298C190.814 156.563 190.026 156.064 189.14 155.91C188.62 155.82 188.086 155.85 187.58 156C185.609 156.431 183.598 156.659 181.58 156.68C179.765 156.528 177.94 156.552 176.13 156.75C175.86 156.824 175.575 156.831 175.302 156.77C175.028 156.709 174.773 156.582 174.56 156.4C174.198 156.055 173.768 155.788 173.299 155.616C172.829 155.444 172.329 155.371 171.83 155.4C171.199 155.384 170.578 155.23 170.012 154.951C169.446 154.671 168.947 154.272 168.55 153.78C168.185 153.279 167.715 152.864 167.172 152.563C166.63 152.263 166.028 152.084 165.41 152.04C164.789 152.077 164.173 151.906 163.659 151.555C163.145 151.204 162.762 150.692 162.57 150.1C162.16 149.1 161.73 148 160.39 147.82C160.235 147.773 160.096 147.683 159.99 147.56C158.413 146.131 157.097 144.439 156.1 142.56C155.851 142.085 155.511 141.664 155.099 141.321C154.687 140.978 154.212 140.719 153.7 140.56C153.386 140.48 153.1 140.318 152.87 140.09C150.87 137.75 148.78 135.42 148 132.32C147.22 129.22 146.25 126.38 146.05 123.26C145.95 121.67 145.88 119.98 144.92 118.69C144.168 117.61 143.701 116.358 143.56 115.05C143.297 113.187 142.704 111.386 141.81 109.73C141.602 109.311 141.309 108.941 140.949 108.643C140.589 108.345 140.17 108.126 139.72 108C138.471 107.612 137.312 106.98 136.31 106.14C134.572 104.652 132.957 103.027 131.48 101.28C129.985 99.8796 128.302 98.6949 126.48 97.76C125.781 97.402 125.112 96.9872 124.48 96.52C123.38 95.62 122.48 94.52 121.4 93.61C118.65 91.17 117.52 88 117.1 84.48C116.85 82.48 117.2 80.38 116.6 78.35C116.333 77.5381 116.333 76.6619 116.6 75.85C116.82 75.29 117.06 74.72 116.49 74.18C116.35 74.04 116.39 73.87 116.55 73.68C117.17 72.99 118.94 73.21 119.23 74.06C119.31 74.29 119.32 74.52 119.63 74.46C119.94 74.4 119.85 74.16 119.87 73.98C119.895 73.7574 119.895 73.5326 119.87 73.31C119.8 72.85 119.65 72.31 120.27 72.21C120.89 72.11 120.89 72.62 120.97 73.03C120.973 73.145 121.02 73.2543 121.102 73.3347C121.185 73.415 121.295 73.46 121.41 73.46C121.83 73.46 121.72 73.13 121.76 72.9C121.89 72.11 121.97 71.31 122.13 70.51C122.46 68.81 122.13 68.57 120.53 68.18C119.85 68.02 119.83 68.81 119.31 68.71C119.149 68.255 119.091 67.7701 119.14 67.29C119.171 67.1826 119.16 67.0671 119.108 66.9682C119.055 66.8692 118.966 66.7945 118.86 66.76H118.74C118.16 66.68 118.16 66.66 118.52 66.2C118.958 65.6758 119.17 64.9993 119.11 64.3188C119.05 63.6383 118.723 63.0094 118.2 62.57C117.94 62.3533 117.641 62.1871 117.32 62.08C116.84 61.91 116.32 61.58 116.41 61.02C116.55 59.78 116.2 58.34 117.64 57.55C117.81 57.46 117.86 57.26 117.95 57.08C118.41 56.16 118.95 55.24 120.07 55.03C120.649 54.976 121.211 54.8002 121.717 54.5142C122.224 54.2281 122.665 53.8382 123.01 53.37C123.063 53.288 123.147 53.2304 123.242 53.2098C123.338 53.1892 123.438 53.2072 123.52 53.26C124.05 53.58 124.95 53.84 124.93 54.36C124.91 54.88 124.03 55.08 123.4 54.99C122.77 54.9 122.57 55.26 122.4 55.69C122.23 56.12 122.19 56.34 122.52 56.59C122.687 56.6971 122.884 56.7481 123.081 56.7355C123.279 56.7229 123.468 56.6474 123.62 56.52C124.95 55.74 126.37 55.14 127.7 54.36C128.243 54.0185 128.861 53.8127 129.5 53.76C131.1 53.68 131.63 52.76 131.09 51.28C130.98 50.95 130.77 50.62 131.09 50.28C131.52 50.56 132.09 50.6 132.09 51.37C132.09 51.76 132.46 52.06 133.02 52.12C133.776 52.145 134.532 52.054 135.26 51.85C135.538 51.805 135.791 51.6627 135.975 51.4484C136.158 51.2342 136.259 50.9619 136.26 50.68C136.306 50.4655 136.267 50.2417 136.151 50.0554C136.035 49.869 135.852 49.7345 135.64 49.68C135.01 49.4 135.42 49.06 135.78 48.93C136.242 48.6935 136.751 48.5627 137.27 48.5471C137.789 48.5315 138.305 48.6316 138.78 48.84C139.28 49.12 139.78 49.38 140.28 49.65C141.02 50.06 142.08 50.47 141.78 51.72C141.768 51.777 141.779 51.8364 141.811 51.8851C141.843 51.9339 141.893 51.968 141.95 51.98H142.02C142.918 51.1818 143.754 50.3159 144.52 49.39L147.89 52.56C148.38 53.02 148.45 53.36 147.68 53.61C147.25 53.75 146.76 53.96 147.04 54.61C147.073 54.7375 147.13 54.8573 147.209 54.9625C147.288 55.0678 147.387 55.1564 147.501 55.2233C147.614 55.2902 147.739 55.334 147.87 55.3523C148 55.3707 148.133 55.3631 148.26 55.33C148.316 55.319 148.37 55.2987 148.42 55.27C149.184 54.9728 149.799 54.385 150.131 53.6354C150.462 52.8858 150.484 52.0353 150.19 51.27C150.134 51.1751 150.07 51.0848 150 51C149.336 49.907 148.442 48.9719 147.38 48.26C146.62 47.74 145.85 47.17 146.03 46.04C146.41 43.76 146.41 43.75 144.18 43.04C143.55 42.83 143.5 42.54 143.86 42.04C144.362 41.4595 144.965 40.975 145.64 40.61C146.24 40.22 147 39.91 146.88 39.01C146.826 38.6247 146.656 38.2649 146.394 37.9776C146.132 37.6903 145.789 37.4889 145.41 37.4C144.77 37.17 144.13 36.97 143.47 36.8C142.81 36.63 141.87 36.3 141.82 35.41C141.77 34.74 142.35 34.23 142.91 33.85C144.76 32.3666 146.948 31.3636 149.28 30.93C149.84 30.86 149.9 30.52 149.88 30.12C149.86 29.72 150.21 29.3 149.68 29.21C148.9 29.09 148.18 28.56 147.32 28.9C147.198 28.9439 147.067 28.9578 146.938 28.9404C146.809 28.923 146.686 28.8748 146.58 28.8C145.85 27.9 144.73 28.16 143.82 27.91C142.91 27.66 141.98 27.2 141.01 27.76C140.855 27.8149 140.685 27.8149 140.53 27.76C139.53 27.4 138.43 27 137.36 26.66C135.78 26.16 134.36 25.1 132.52 25.66C132.12 25.854 131.661 25.8875 131.237 25.7536C130.813 25.6197 130.456 25.3286 130.24 24.94C130.1 24.69 129.71 24.62 129.37 24.59C128.629 24.4783 127.88 24.4215 127.13 24.42C126.483 24.5012 125.828 24.3524 125.28 23.9996C124.731 23.6468 124.324 23.1125 124.13 22.49C124.07 22.3034 123.993 22.1227 123.9 21.95C123.4 21 123.16 20 122 19.71C121.791 19.6512 121.612 19.5154 121.498 19.3299C121.385 19.1444 121.347 18.9229 121.39 18.71V18.62C121.524 18.2562 121.526 17.857 121.396 17.4917C121.267 17.1264 121.013 16.818 120.68 16.62C119.21 15.8 118.68 14.79 119.33 13.17C119.58 12.56 119.2 12.17 118.49 12.06C117.657 11.9683 116.816 11.9918 115.99 12.13C114.852 12.4461 113.771 12.9424 112.79 13.6C112.01 14.04 111.29 14.6 110.3 13.74C109.658 13.1807 108.85 12.847 108 12.79C107.36 12.79 107 13.13 106.49 13.31C105.04 13.82 103.55 13.54 102.09 13.64C101.213 13.6387 100.365 13.947 99.6931 14.5105C99.0217 15.074 98.5708 15.8565 98.42 16.72C98.2 17.53 97.86 18.47 96.77 18.44C95.94 18.44 95.1 18.24 94.27 18.13C93.19 18 93 17.39 92.77 16.57C92.7387 16.3916 92.6723 16.2213 92.5748 16.0687C92.4772 15.9162 92.3503 15.7845 92.2015 15.6812C92.0528 15.578 91.885 15.5053 91.7079 15.4673C91.5309 15.4294 91.348 15.4269 91.17 15.46H91.07C90.3173 15.6292 89.5509 15.7296 88.78 15.76C87.26 15.76 86.62 16.64 86.78 18.18C86.94 19.72 87.58 21.46 87.2 23.18C87.07 23.78 86.76 24.04 86.2 23.82C84.8619 23.2846 83.7566 22.2926 83.08 21.02C82.93 20.76 82.73 20.55 82.47 20.67C81.543 20.9874 80.6722 21.4499 79.89 22.04C78.89 22.89 79.02 24.24 78.39 25.26C78.15 25.66 78.48 25.98 78.98 26.01C79.48 26.04 80.22 26.13 80.83 26.18C81.18 26.18 81.48 26.28 81.54 26.7C81.6 27.12 81.25 27.24 80.96 27.35C80.6534 27.4664 80.3882 27.671 80.1978 27.9379C80.0074 28.2049 79.9003 28.5222 79.89 28.85C79.8476 29.4859 79.7404 30.1159 79.57 30.73C79.5234 30.9915 79.3927 31.2307 79.1978 31.4112C79.0029 31.5917 78.7543 31.7036 78.49 31.73C78.09 31.73 78.03 31.08 78.03 30.68C78.03 29.5 77.03 28.68 76.88 27.58C76.88 27.38 76.63 27.1 76.41 27.14C75.76 27.28 75.01 27.09 74.47 27.56C73.4847 28.2798 72.35 28.7685 71.15 28.99C70.9363 29.0665 70.7021 29.063 70.4907 28.9803C70.2794 28.8976 70.105 28.7412 70 28.54C69.9965 28.5134 69.9965 28.4866 70 28.46C69.8 27.87 69.49 27.35 69.3 26.77C68.6589 24.8894 67.4674 23.2449 65.88 22.05C65.6582 21.8882 65.4011 21.7812 65.13 21.7377C64.8589 21.6943 64.5813 21.7156 64.32 21.8C63.81 21.93 63.99 22.52 63.93 22.91C63.7302 23.8324 63.8103 24.7934 64.16 25.67C64.2417 25.8714 64.2699 26.0905 64.2418 26.3061C64.2138 26.5216 64.1305 26.7262 64 26.9C62.82 28.25 62.12 29.96 60.78 31.15C60.3274 31.451 59.9552 31.8579 59.6955 32.3354C59.4359 32.8129 59.2967 33.3465 59.29 33.89C59.29 34.26 58.96 34.42 58.83 34.69C58.53 35.28 57.58 35.62 57.99 36.46C58.4 37.3 59.18 38.05 58.25 39.01C58.25 39.01 58.25 39.13 58.25 39.19C58.43 39.93 58.08 40.49 57.4 40.51C56.7243 40.4575 56.0894 40.166 55.6092 39.6877C55.129 39.2093 54.835 38.5755 54.78 37.9C54.7501 37.1621 54.6699 36.427 54.54 35.7C54.3002 34.8669 54.3002 33.9831 54.54 33.15C54.93 32.15 54.48 31.64 53.36 31.86C52.7544 32.0439 52.1041 32.0141 51.5178 31.7756C50.9316 31.5372 50.4452 31.1044 50.14 30.55C49.6263 29.7723 49.0687 29.0244 48.47 28.31C48.1396 27.9891 47.949 27.5508 47.9397 27.0903C47.9303 26.6297 48.1029 26.1841 48.42 25.85L48.53 25.74C49.2683 24.8552 49.7736 23.7999 50 22.67C50.0697 22.4557 50.0582 22.2233 49.9679 22.0168C49.8776 21.8104 49.7147 21.6443 49.51 21.55C48.8837 21.3409 48.204 21.3574 47.5885 21.5967C46.9731 21.8359 46.4607 22.2828 46.14 22.86C45.8366 23.6559 45.2652 24.3211 44.5241 24.7409C43.783 25.1607 42.9186 25.3089 42.08 25.16C41.58 25.16 40.94 25.04 40.65 25.5C40.5298 25.7765 40.4805 26.0787 40.5067 26.379C40.5329 26.6794 40.6337 26.9685 40.8 27.22C41.52 28.91 42.1 29.69 39.91 30.92C38.5754 31.6041 37.4546 32.6419 36.67 33.92C36.478 34.3559 36.1268 34.7021 35.6883 34.8879C35.2497 35.0738 34.7567 35.0852 34.31 34.92C33.91 34.79 33.71 34.44 33.42 34.2C32.36 33.34 30.93 33.33 29.86 32.58C29.1 32.05 28.59 32.39 28.05 32.86C27.83 33.05 27.64 33.26 27.43 33.47C27.0579 33.9359 26.563 34.2886 26.0011 34.4883C25.4392 34.6879 24.8327 34.7266 24.25 34.6C23.2333 34.3734 22.189 34.2959 21.15 34.37C20.75 34.37 20.48 34.13 20.34 33.69C20.14 33.08 19.89 32.54 19.16 33.34C18.7968 33.6618 18.3554 33.8825 17.88 33.98C16.88 34.25 15.93 34.6 14.94 34.84C14.8303 34.8536 14.7243 34.8887 14.6282 34.9434C14.532 34.998 14.4476 35.0711 14.3798 35.1584C14.312 35.2457 14.2621 35.3456 14.2329 35.4523C14.2038 35.5589 14.196 35.6703 14.21 35.78C14.2207 35.897 14.2583 36.01 14.32 36.11C15.012 37.2788 15.9218 38.304 17 39.13C17.35 39.4 18.17 39.08 18.07 39.93C18.01 40.45 17.95 40.93 17.86 41.48C17.817 41.6663 17.7389 41.8428 17.63 42C17.5475 42.1072 17.4876 42.23 17.4539 42.361C17.4202 42.4919 17.4134 42.6284 17.434 42.7621C17.4546 42.8958 17.5021 43.0239 17.5736 43.1387C17.6451 43.2535 17.7391 43.3526 17.85 43.43L17.96 43.5C18.4902 43.9574 19.0706 44.3533 19.69 44.68C20.69 45.16 20.69 45.68 19.87 46.3C19.4494 46.5838 19.1274 46.9912 18.9482 47.4658C18.7691 47.9405 18.7418 48.4591 18.87 48.95C18.94 49.35 18.98 49.77 19.08 50.17C19.18 50.57 19.08 50.63 18.81 50.66C16.99 50.81 15.81 51.98 14.62 53.19C14.498 53.3301 14.3417 53.4361 14.1664 53.4975C13.991 53.5588 13.8027 53.5735 13.62 53.54C12.62 53.43 11.62 53.37 10.62 53.25C10.3182 53.1927 10.0059 53.2348 9.73001 53.37C9.45414 53.5052 9.22957 53.7263 9.09 54C8.77 54.63 9.38 55 9.74 55.33C10.1 55.66 10.41 55.72 10.58 56.11C11.124 57.3365 11.4197 58.6586 11.45 60C11.45 60.21 11.45 60.42 11.62 60.53C12.34 60.94 12.96 61.84 13.76 61.74C15.38 61.54 15.95 62.32 16.18 63.68C16.18 63.74 16.27 63.78 16.29 63.84C16.3591 63.9725 16.4012 64.1173 16.414 64.2662C16.4267 64.415 16.4098 64.565 16.3643 64.7072C16.3187 64.8495 16.2454 64.9814 16.1485 65.0951C16.0517 65.2089 15.9332 65.3023 15.8 65.37C15.6443 65.448 15.4739 65.4923 15.3 65.5C14.8835 65.5105 14.4878 65.684 14.198 65.9832C13.9081 66.2824 13.7472 66.6834 13.75 67.1C13.7144 67.6016 13.5284 68.0809 13.2162 68.4752C12.904 68.8694 12.4801 69.1604 12 69.31C11.68 69.45 11.33 69.48 11.14 69.86C10.73 70.67 10.95 71.09 12.27 71.64C12.62 71.79 13.06 71.96 13.01 72.28C12.9457 72.4588 12.8227 72.6106 12.6611 72.7105C12.4994 72.8104 12.3087 72.8525 12.12 72.83C11.49 72.74 11.33 73.07 11.42 73.54C11.65 74.83 11.69 76.1 12.88 77.11C14.88 78.79 17.14 80.03 18.88 82C19.0524 82.2006 19.2791 82.3469 19.5329 82.4215C19.7866 82.496 20.0565 82.4955 20.31 82.42C21.81 81.95 23.59 82.59 24.87 81.25C25.1 81 25.49 81.12 25.78 81.25C25.8751 81.2955 25.9485 81.3767 25.984 81.4759C26.0196 81.5752 26.0146 81.6844 25.97 81.78C25.9729 81.7999 25.9729 81.8201 25.97 81.84C25.21 82.84 25.73 83.59 26.36 84.37C26.74 84.84 26.89 85.37 26.17 85.7C23 87.37 22.23 88.58 22.7 91.78C22.81 92.5 23.13 92.68 23.76 92.78C24.9158 92.8884 26.0804 92.8616 27.23 92.7C28.862 92.6966 30.4757 92.3562 31.97 91.7C33.21 91.06 33.97 89.78 35.1 88.99C35.3143 88.7074 35.4078 88.3514 35.36 88C35.3398 87.7252 35.3942 87.4501 35.5174 87.2037C35.6406 86.9573 35.8281 86.7487 36.06 86.6C37 85.84 38 85 38.92 84.3C39.0424 84.1958 39.1913 84.1275 39.3502 84.1028C39.5091 84.0781 39.6717 84.0979 39.82 84.16C40.92 84.6 41.51 84.22 41.72 83.02C41.9808 82.1708 42.4341 81.3933 43.0447 80.7481C43.6552 80.1028 44.4065 79.6073 45.24 79.3C46.3858 79.1688 47.5216 78.9617 48.64 78.68C48.8612 78.6098 49.0952 78.5896 49.3252 78.6207C49.5552 78.6518 49.7754 78.7336 49.97 78.86C50.8051 79.3629 51.7654 79.6194 52.74 79.6C53.2561 79.577 53.7655 79.724 54.19 80.0185C54.6145 80.3129 54.9307 80.7385 55.09 81.23C55.32 81.8 55.57 82.51 56.37 82.5C58.92 82.5 60.62 84.31 62.68 85.36C63.1363 85.6559 63.5111 86.0617 63.77 86.54C64.48 87.7 65.32 88.77 66.12 89.87C66.1734 89.9807 66.2481 90.0798 66.34 90.1615C66.4319 90.2431 66.5391 90.3058 66.6553 90.3457C66.7715 90.3857 66.8946 90.4023 67.0172 90.3944C67.1399 90.3866 67.2598 90.3545 67.37 90.3C67.4593 90.2621 67.5406 90.2078 67.61 90.14C67.6768 90.0636 67.7581 90.0011 67.8491 89.9562C67.9401 89.9113 68.0391 89.8848 68.1404 89.8783C68.2417 89.8718 68.3433 89.8854 68.4394 89.9183C68.5354 89.9512 68.624 90.0027 68.7 90.07C68.7762 90.1365 68.8375 90.2182 68.88 90.31C69.2215 90.7735 69.6958 91.1222 70.24 91.31C70.9633 91.4876 71.6357 91.83 72.2047 92.3105C72.7737 92.7911 73.2238 93.3967 73.52 94.08C74.0799 95.8141 74.9359 97.4381 76.05 98.88C76.35 99.25 76.12 99.41 75.67 99.44C74.67 99.52 74.14 100.06 74.48 100.74C74.8523 101.597 75.0299 102.526 75 103.46C75 104.51 74.66 105.74 75.08 106.58C75.5997 107.864 76.2964 109.069 77.15 110.16C77.8278 110.954 78.2924 111.907 78.5 112.93C78.6886 114.343 78.6616 115.776 78.42 117.18C78.3167 118.271 77.9753 119.326 77.42 120.27C77.2728 120.508 77.2033 120.786 77.2212 121.066C77.2392 121.345 77.3436 121.612 77.52 121.83C77.6771 121.998 77.8872 122.106 78.1148 122.137C78.3425 122.168 78.5738 122.12 78.77 122C79.0421 121.857 79.3564 121.817 79.6557 121.887C79.955 121.956 80.2192 122.132 80.4 122.38C80.68 122.65 80.89 122.98 81.35 122.97C81.6455 122.93 81.946 122.986 82.2071 123.13C82.4682 123.275 82.6761 123.499 82.8 123.77C83 124.34 82.48 124.69 82.08 125.07C81.44 125.67 81.63 126.15 82.44 126.43C82.9228 126.577 83.3861 126.782 83.82 127.04C85.18 127.85 85.82 129.36 87 130.26C88.0018 130.899 88.7999 131.812 89.3 132.89C89.71 133.98 90.8 135.13 89.3 136.32C88.81 136.71 89.09 137.64 89.74 137.93C90.4511 138.3 91.2498 138.47 92.05 138.42C93.5385 138.227 95.0495 138.518 96.36 139.25C98.62 140.6 99.69 142.93 100.7 145.25C100.943 145.71 101.047 146.232 101 146.75C100.96 147.213 101.064 147.677 101.296 148.079C101.529 148.482 101.879 148.803 102.3 149C104.3 150.34 106.7 151.16 108.41 153C108.54 153.096 108.681 153.176 108.83 153.24C109.155 153.446 109.42 153.736 109.596 154.079C109.771 154.422 109.852 154.805 109.83 155.19C109.83 155.61 109.76 156.03 109.73 156.45C109.66 157.67 110.16 158.31 111.37 158.37C111.856 158.349 112.336 158.484 112.739 158.756C113.142 159.027 113.448 159.422 113.61 159.88C113.82 160.234 114.061 160.568 114.33 160.88C114.874 161.632 115.33 162.444 115.69 163.3C116.13 164.68 116.61 166.04 118.13 166.76C118.87 167.11 119.69 167.01 120.35 167.35C121.239 167.73 122.043 168.285 122.713 168.983C123.383 169.681 123.906 170.506 124.25 171.41C124.282 171.614 124.353 171.811 124.461 171.987C124.569 172.164 124.71 172.317 124.878 172.439C125.045 172.561 125.235 172.648 125.436 172.697C125.637 172.745 125.846 172.753 126.05 172.72L126.3 172.66C127.3 172.45 128.19 172.1 129.15 171.86C129.89 171.68 130.75 171.17 131.36 171.56C132.024 172.037 132.723 172.465 133.45 172.84C134.57 173.34 135.65 174.13 136.84 172.98C137.003 172.87 137.194 172.808 137.39 172.8C138.99 172.53 141.56 174.22 142.04 176.46C142.28 177.349 142.571 178.224 142.91 179.08C142.979 179.369 143.113 179.638 143.302 179.867C143.49 180.096 143.729 180.278 144 180.4C144.533 180.63 144.967 181.042 145.223 181.562C145.48 182.083 145.542 182.677 145.4 183.24C145.34 183.76 145.32 184.52 145.62 184.8C146.56 185.69 147.55 186.8 148.96 186.64C149.705 186.57 150.456 186.677 151.151 186.954C151.847 187.23 152.467 187.667 152.96 188.23C153.87 189.06 153.77 189.71 152.62 190.23C152.44 190.31 152.24 190.33 152.06 190.41C151.72 190.567 151.442 190.833 151.271 191.167C151.101 191.501 151.047 191.882 151.12 192.25C151.38 193.05 152.12 193.18 152.79 193.13C153.259 193.041 153.711 192.879 154.13 192.65C155.016 192.126 156.072 191.972 157.07 192.22C157.623 192.462 158.241 192.51 158.825 192.358C159.41 192.205 159.925 191.861 160.29 191.38C160.347 191.295 160.421 191.223 160.506 191.167C160.592 191.111 160.688 191.072 160.788 191.054C160.889 191.035 160.992 191.037 161.092 191.058C161.192 191.08 161.286 191.121 161.37 191.18C161.434 191.225 161.491 191.279 161.54 191.34C162.906 192.75 164.031 194.375 164.87 196.15C165 196.45 165.12 196.78 164.77 196.91C163.7 197.31 163.17 197.82 163.54 199.13C163.592 199.503 163.511 199.883 163.312 200.202C163.113 200.522 162.808 200.762 162.45 200.88C162.19 200.98 161.73 201.2 161.78 201.51C161.86 201.98 162.36 201.93 162.78 201.97C163.168 202.024 163.559 202.057 163.95 202.07C164.228 202.056 164.503 202.137 164.729 202.301C164.955 202.465 165.117 202.701 165.19 202.97C165.452 203.585 165.933 204.08 166.54 204.36C168 205.36 170.11 205.61 170.54 207.82C170.54 207.89 170.66 207.94 170.74 208C172.68 209.48 173.94 209.39 175.58 207.63C175.89 207.3 176.33 206.85 176.69 207.06C178.02 207.82 179.58 208.39 179.84 210.25C179.922 210.755 180.091 211.243 180.34 211.69C181.16 213.257 181.55 215.013 181.47 216.78C181.437 217.117 181.476 217.457 181.584 217.778C181.693 218.099 181.869 218.393 182.1 218.64C182.49 219.06 182.97 219.49 182.91 220.13C182.892 220.34 182.921 220.552 182.996 220.749C183.07 220.946 183.188 221.124 183.34 221.27C184.008 222.013 184.513 222.889 184.82 223.84C185.381 225.047 185.788 226.321 186.03 227.63C186.12 228.53 186.03 229.44 186.22 230.32C186.502 231.893 186.679 233.483 186.75 235.08C186.84 236.92 187.22 238.36 188.92 239.27C189.122 239.429 189.272 239.645 189.35 239.89C189.544 240.344 189.622 240.839 189.579 241.331C189.535 241.823 189.371 242.297 189.1 242.71C188.6 243.71 187.1 244.71 186.04 244.37C185.635 244.23 185.206 244.172 184.779 244.199C184.351 244.226 183.934 244.339 183.55 244.53C182.734 244.913 181.979 245.415 181.31 246.02C180.31 246.82 180.31 247.02 181.31 248.02C181.957 248.645 182.482 249.384 182.86 250.2C182.964 250.431 183.003 250.687 182.973 250.939C182.943 251.19 182.845 251.429 182.69 251.63C181.9 252.96 180.69 253.98 180.17 255.55C180.074 255.887 179.856 256.176 179.558 256.361C179.26 256.546 178.905 256.613 178.56 256.55C178.17 256.55 177.78 256.46 177.39 256.44C176.23 256.38 175.72 256.94 175.97 258.08C176.15 258.86 176.45 259.61 176.62 260.39C176.791 260.894 176.832 261.434 176.739 261.958C176.646 262.482 176.423 262.975 176.09 263.39C175.7 263.84 175.49 264.51 176.09 264.89C176.859 265.495 177.823 265.798 178.8 265.74C180.533 265.373 182.334 265.498 184 266.1C184.808 266.238 185.639 266.067 186.326 265.621C187.014 265.174 187.508 264.485 187.71 263.69C187.919 262.324 188.528 261.051 189.46 260.03C189.885 259.68 190.227 259.239 190.46 258.74C191.04 257.18 192.46 256.64 193.77 256.23C195.114 255.82 196.341 255.097 197.35 254.12C197.682 253.808 197.897 253.391 197.96 252.94C198.36 250.55 197.7 248.23 197.59 245.88C197.573 245.783 197.523 245.695 197.45 245.63C197 245.18 196.99 244.86 197.63 244.54C197.764 244.451 197.879 244.336 197.969 244.202C198.058 244.068 198.12 243.918 198.15 243.76C198.272 243.246 198.518 242.769 198.867 242.372C199.215 241.974 199.656 241.668 200.15 241.48C200.32 241.4 200.37 241.26 200.49 241.17C201.36 240.5 202.14 239.53 203.25 239.43C205.01 239.27 206.74 239.93 208.52 239.96C209.25 239.96 210.11 240.3 210.52 239.69C210.79 239.282 210.963 238.818 211.027 238.333C211.091 237.848 211.044 237.354 210.89 236.89C210.44 235.57 209.5 234.49 209.46 232.96C209.46 231.09 208.7 229.21 209.96 227.46C210.28 227.02 210.05 226.67 209.56 226.4C208.685 226.011 207.907 225.434 207.28 224.71C206.682 223.863 205.908 223.157 205.01 222.64C204.032 222.045 203.121 221.348 202.29 220.56C202.054 220.266 201.745 220.04 201.394 219.905C201.043 219.77 200.662 219.73 200.29 219.79C199.955 219.814 199.62 219.763 199.307 219.642C198.994 219.521 198.712 219.333 198.48 219.09C197.04 217.97 197.55 216.26 197.09 214.86C197.09 214.75 197.19 214.51 197.31 214.44C198.013 213.907 198.681 213.329 199.31 212.71C199.698 212.486 199.983 212.117 200.101 211.685C200.219 211.252 200.161 210.79 199.94 210.4L199.89 210.32C199.609 209.791 199.509 209.185 199.607 208.594C199.705 208.003 199.994 207.46 200.43 207.05C201.588 205.916 202.497 204.554 203.1 203.05C203.941 201.233 205.042 199.548 206.37 198.05C207.09 197.12 208.05 196.05 209.5 196.43C210.485 196.769 211.445 197.181 212.37 197.66C211.67 197.97 211.25 198.2 210.79 198.36C210.635 198.402 210.502 198.5 210.415 198.635C210.329 198.77 210.295 198.932 210.32 199.09C210.32 199.5 210.63 199.4 210.85 199.5C211.46 199.721 212.102 199.839 212.75 199.85C213.548 199.938 214.309 200.231 214.96 200.7C215.78 201.313 216.67 201.826 217.61 202.23C218.468 202.628 219.423 202.771 220.36 202.64C223.89 201.96 225.98 202.34 226.88 205.18C227.11 205.89 228.08 206.38 227.81 207.18C227.37 208.53 229.01 209.65 228.12 210.99C228.12 210.99 228.2 211.16 228.27 211.23C229.64 212.71 231.1 214.05 233.27 214.32C234.1 214.42 234.9 214.4 235.48 215.24C235.88 215.83 236.64 215.56 237.16 215.32C237.68 215.08 237.68 214.48 237.48 213.95C237.36 213.65 237.2 213.38 237.08 213.08C236.893 212.766 236.816 212.398 236.864 212.035C236.911 211.672 237.079 211.336 237.34 211.08C237.97 210.48 238.57 209.84 239.17 209.2" />
<path d="M174.84 255C174.664 254.919 174.468 254.891 174.276 254.92C174.085 254.948 173.905 255.032 173.76 255.16C172.872 255.737 171.95 256.262 171 256.73C170.8 256.861 170.577 256.952 170.342 256.996C170.107 257.04 169.865 257.036 169.632 256.986C169.398 256.936 169.177 256.84 168.981 256.703C168.785 256.566 168.618 256.392 168.49 256.19C168.4 256.057 168.33 255.912 168.28 255.76C168.22 255.44 168.33 255 167.91 255.01C167.49 255.02 167.26 255.37 167.07 255.77C166.686 256.779 166.221 257.756 165.68 258.69C165.493 259.034 165.18 259.291 164.807 259.409C164.434 259.526 164.03 259.494 163.68 259.32C163.538 259.241 163.407 259.143 163.29 259.03C162.48 258.24 161.38 257.96 160.52 257.27C160.16 256.97 159.81 257.17 159.52 257.34C159.271 257.49 158.986 257.569 158.695 257.569C158.404 257.569 158.119 257.49 157.87 257.34C157.541 257.142 157.148 257.08 156.774 257.168C156.401 257.255 156.076 257.486 155.87 257.81C155.791 257.948 155.731 258.096 155.69 258.25C154.85 260.31 154.3 260.59 152.11 260.48C150.445 260.252 148.75 260.488 147.21 261.16C146.816 261.382 146.354 261.451 145.911 261.356C145.469 261.26 145.077 261.005 144.81 260.64C144.32 260.16 143.81 259.64 142.97 260.13C142.78 260.24 142.46 260.13 142.2 260.13C141.015 260.077 139.847 260.43 138.89 261.13C137.89 262 134.72 262.2 133.69 261.36C132.445 260.524 131.466 259.347 130.87 257.97C130.39 256.62 129.72 256.49 128.87 257.32C127.68 258.47 127.5 258.45 126.96 256.89C126.822 256.466 126.627 256.062 126.38 255.69C126.151 255.315 125.787 255.042 125.363 254.927C124.939 254.811 124.487 254.863 124.1 255.07C123.857 255.219 123.586 255.315 123.303 255.353C123.021 255.391 122.734 255.369 122.46 255.29C121.57 254.97 121.02 255.4 120.46 256.05C119.9 256.7 119.46 256.99 119.67 257.92C119.84 258.61 119.22 259.06 118.52 259.02C117.763 259.019 117.021 258.818 116.367 258.437C115.714 258.056 115.173 257.508 114.8 256.85C114.37 256.201 113.896 255.583 113.38 255C113.302 254.893 113.193 254.813 113.067 254.772C112.941 254.731 112.806 254.73 112.68 254.77C112.4 254.84 112.32 255.03 112.35 255.36C112.363 255.633 112.282 255.902 112.123 256.123C111.963 256.345 111.733 256.506 111.47 256.58C109.83 257.18 108.9 258.7 107.47 259.58C107.178 259.725 106.93 259.947 106.754 260.221C106.578 260.496 106.48 260.814 106.47 261.14C106.471 262.581 106.189 264.008 105.64 265.34C105.24 266.76 105.54 269.01 107.27 269.49C107.781 269.617 108.254 269.865 108.649 270.213C109.044 270.561 109.35 270.999 109.54 271.49C109.597 271.658 109.715 271.799 109.87 271.886C110.025 271.973 110.207 271.999 110.38 271.96C112.53 271.998 114.676 272.152 116.81 272.42C117.024 272.413 117.232 272.486 117.395 272.625C117.558 272.764 117.663 272.958 117.69 273.17C117.94 274.52 118.09 274.65 119.53 274.69C119.997 274.633 120.468 274.761 120.842 275.047C121.216 275.333 121.463 275.754 121.53 276.22C121.535 276.27 121.535 276.32 121.53 276.37C121.56 276.804 121.73 277.216 122.015 277.545C122.3 277.873 122.685 278.1 123.11 278.19C123.736 278.344 124.275 278.74 124.61 279.29C125.018 279.956 125.62 280.482 126.334 280.798C127.049 281.114 127.842 281.206 128.61 281.06C129.17 280.98 129.82 280.92 130.11 281.64C130.622 282.63 131.362 283.484 132.27 284.13C133.44 285.141 134.8 285.909 136.27 286.39C136.89 286.693 137.568 286.86 138.258 286.879C138.948 286.898 139.634 286.769 140.27 286.5C141.71 285.78 142.49 286.08 143.56 287.36C144.89 288.96 146.4 290.36 147.87 291.86C148.801 292.556 149.568 293.447 150.12 294.47C150.5 295.47 150.94 296.38 152.24 296.47C152.44 296.47 152.67 296.85 152.82 297.09C153.117 297.752 153.652 298.279 154.318 298.568C154.984 298.857 155.733 298.886 156.42 298.65C156.74 298.58 157.04 298.29 157.24 298.32C159 298.62 160.83 298.74 162.33 299.94C163.16 300.61 163.4 300.47 163.52 299.37C163.66 298.04 163.82 296.71 163.88 295.37C163.94 294.28 164.04 293.31 165.32 292.97C165.589 292.848 165.811 292.641 165.95 292.38C166.44 291.552 167.227 290.941 168.15 290.67C168.57 290.55 169 289.99 168.59 289.78C167.84 289.41 168.01 288.92 168.11 288.41C168.21 287.9 168.11 287.68 167.53 287.56C167.114 287.459 166.736 287.243 166.437 286.938C166.138 286.632 165.931 286.248 165.84 285.83C165.74 285.47 165.64 285.04 165.97 284.76C166.3 284.48 166.6 284.76 166.87 284.88C167.14 285 167.34 285.13 167.55 284.88C167.76 284.63 167.46 284.43 167.34 284.23C166.595 283.342 165.639 282.654 164.56 282.23C164.2 282.03 163.89 281.86 164.03 281.36C164.103 280.956 164.079 280.539 163.959 280.146C163.839 279.753 163.627 279.395 163.34 279.1C163.04 278.67 162.91 278.33 163.52 277.92C165.016 276.859 166.035 275.254 166.36 273.45C166.72 271.84 166.78 270.12 168.18 268.91C168.715 268.418 169.2 267.876 169.63 267.29C171.314 265.285 172.741 263.078 173.88 260.72C174.641 259.226 175.11 257.6 175.26 255.93C175.27 255.736 175.231 255.544 175.147 255.369C175.063 255.194 174.937 255.043 174.78 254.93" fill="white"/>
<path d="M57 182.62C57.1474 182.003 57.1328 181.358 56.9576 180.749C56.7824 180.139 56.4525 179.585 56 179.14C55.8015 178.881 55.7133 178.554 55.7545 178.23C55.7957 177.906 55.963 177.611 56.22 177.41C56.2902 177.348 56.3717 177.301 56.46 177.27C56.76 177.18 57.28 177.49 57.32 176.95C57.36 176.41 56.76 176.45 56.52 176.15C56.42 176.03 56.13 176.08 55.97 175.99C55.31 175.62 54.72 175.24 54.97 174.29C55.0981 173.583 55.1717 172.868 55.19 172.15C55.2361 171.902 55.1865 171.645 55.0511 171.431C54.9156 171.218 54.7045 171.064 54.46 171C54.3803 170.99 54.2997 170.99 54.22 171C53.33 171 53.48 170.46 53.73 170C53.9894 169.668 54.1111 169.249 54.07 168.83C54.0379 168.596 53.9476 168.374 53.8074 168.184C53.6673 167.995 53.4817 167.843 53.2678 167.744C53.0538 167.644 52.8183 167.6 52.5829 167.615C52.3474 167.63 52.1195 167.704 51.92 167.83C50.92 168.25 50.63 168.1 50.57 167.03C50.5796 166.893 50.5609 166.755 50.515 166.626C50.469 166.496 50.3969 166.378 50.3031 166.277C50.2092 166.177 50.0957 166.097 49.9696 166.042C49.8434 165.988 49.7074 165.96 49.57 165.96C49.02 165.86 48.52 166.35 47.95 165.9C47.6508 165.674 47.2763 165.572 46.904 165.615C46.5317 165.658 46.1901 165.842 45.95 166.13C45.5008 166.65 44.9102 167.029 44.25 167.22C42.77 167.51 41.37 167.81 40.46 169.22C39.81 170.27 38.8 171.09 38.19 172.15C37.37 173.59 37.47 173.63 35.81 173.49C34.81 173.41 33.64 172.99 32.7 173.72C31.46 174.72 30.12 174.49 28.8 174.19C28.0343 174.109 27.3154 173.782 26.7497 173.26C26.1841 172.738 25.8019 172.047 25.66 171.29C25.6314 171.051 25.5525 170.82 25.4284 170.613C25.3043 170.406 25.1379 170.228 24.94 170.09C24.44 169.76 24.21 169.8 24.14 170.45C24.07 171.1 24.28 171.82 23.81 172.31C23.3264 172.89 22.984 173.575 22.81 174.31C22.5277 175.069 22.5528 175.909 22.88 176.65C23.34 177.65 22.38 178.4 21.94 179.2C21.82 179.43 21.69 179.6 21.94 179.75C22.19 179.9 22.44 179.75 22.54 179.49C22.64 179.23 22.54 178.64 23.17 178.77C23.8 178.9 23.41 179.44 23.51 179.77C23.51 179.92 23.56 180.08 23.61 180.23C23.73 180.61 23.89 180.96 24.36 181.02C24.83 181.08 25 180.82 25.05 180.4C25.05 180.27 25.11 180.15 25.29 180.15C25.47 180.15 25.55 180.22 25.62 180.41C25.91 181.26 26.3 182.08 26.51 182.94C26.77 183.99 27.28 185.11 26.23 186.05C26.1989 186.081 26.1741 186.117 26.1572 186.158C26.1404 186.198 26.1317 186.241 26.1317 186.285C26.1317 186.329 26.1404 186.372 26.1572 186.412C26.1741 186.453 26.1989 186.489 26.23 186.52C27.58 187.84 27.58 189.52 27.34 191.18C27.1668 192.105 27.3039 193.061 27.73 193.9C27.99 194.38 28.07 195.04 27.05 195.03H25.33C24.88 195.03 24.33 195.26 24.58 195.73C25.23 196.8 25 197.89 25.01 199.01C25.01 199.53 24.77 200.35 25.41 200.59C26.05 200.83 26.29 200.05 26.73 199.74C27.17 199.43 27.36 198.9 27.73 199.26C27.8835 199.452 27.9783 199.685 28.0031 199.929C28.028 200.174 27.9817 200.421 27.87 200.64C27.7579 200.874 27.5977 201.082 27.4 201.25C27.2123 201.409 27.0768 201.621 27.0108 201.858C26.9449 202.095 26.9515 202.347 27.03 202.58C27.1619 203.196 27.3493 203.798 27.59 204.38C27.76 204.83 28.17 205.38 27.72 205.67C27.27 205.96 26.84 205.38 26.59 204.92C26.4712 204.659 26.32 204.413 26.14 204.19C25.82 203.86 25.77 203.27 25.14 203.19C25.09 203.82 25.07 204.42 25.07 205.03C25.07 206.52 25.47 208.1 24.07 209.37C23.62 209.77 22.82 210.54 23.29 211.28C23.5214 211.512 23.6514 211.827 23.6514 212.155C23.6514 212.483 23.5214 212.798 23.29 213.03L23.17 213.13C23.103 213.199 23.0543 213.284 23.0281 213.376C23.0019 213.469 22.9991 213.566 23.02 213.66C23.242 214.224 23.345 214.828 23.3226 215.434C23.3002 216.039 23.153 216.634 22.89 217.18C22.89 217.28 22.98 217.42 22.99 217.55C23.21 219.28 24.29 220.74 24.45 222.48C24.45 222.82 24.78 222.93 25 223.1C25.6531 223.576 26.1386 224.246 26.3865 225.015C26.6345 225.784 26.6322 226.612 26.38 227.38C26.22 227.84 26.12 228.29 26.48 228.48C26.7134 228.637 26.9944 228.707 27.274 228.677C27.5536 228.648 27.8141 228.522 28.01 228.32C28.2541 228.019 28.5145 227.732 28.79 227.46C28.9986 227.302 29.2576 227.225 29.5188 227.243C29.78 227.261 30.0257 227.374 30.21 227.56C30.3757 227.986 30.7025 228.33 31.1199 228.517C31.5372 228.705 32.0115 228.72 32.44 228.56C34.0922 228.017 35.549 227.002 36.63 225.64C36.7922 225.472 36.9 225.259 36.9393 225.029C36.9785 224.799 36.9474 224.562 36.85 224.35C36.6 223.4 35.99 222.35 36.5 221.45C36.6629 221.142 36.748 220.799 36.748 220.45C36.748 220.101 36.6629 219.758 36.5 219.45C36.33 218.92 35.74 218.22 36.34 217.92C36.94 217.62 37.34 218.57 37.75 218.99C37.75 218.99 37.75 219.12 37.8 219.17C38.25 220.29 38.6 220.43 39.8 219.98C41.47 219.34 41.47 219.34 42.47 220.98C42.61 221.187 42.76 221.397 42.92 221.61C43.3917 222.258 44.0741 222.721 44.85 222.92C45.3591 222.992 45.8211 223.257 46.14 223.66C46.51 224.16 46.92 224.17 47.25 223.58C47.9217 222.608 48.4316 221.535 48.76 220.4C48.9685 218.771 49.4915 217.199 50.3 215.77C50.5388 215.266 50.5711 214.688 50.39 214.16C50.29 213.84 50.15 213.64 50.39 213.32C51.24 211.98 51.39 210.4 51.76 208.92C52.3 207.01 52.43 204.97 52.99 203.06C53.3104 201.428 54.0515 199.908 55.14 198.65C55.52 198.27 55.42 197.93 55.14 197.54C54.4 196.6 53.68 195.64 52.94 194.69C52.6852 194.403 52.5253 194.044 52.4823 193.663C52.4394 193.282 52.5154 192.896 52.7 192.56C53.0042 191.99 53.4613 191.515 54.02 191.19C54.8081 190.622 55.5147 189.949 56.12 189.19C56.73 188.45 56.67 187.48 57.28 186.75C57.6795 186.341 57.9031 185.792 57.9031 185.22C57.9031 184.648 57.6795 184.099 57.28 183.69C57.1607 183.517 57.0801 183.32 57.0439 183.113C57.0076 182.906 57.0165 182.693 57.07 182.49" fill="white"/>
<path d="M75.05 123C74.8499 122.983 74.6513 123.047 74.4977 123.176C74.344 123.305 74.2478 123.49 74.23 123.69C74.2167 123.832 74.2445 123.974 74.31 124.1C74.55 124.76 74.31 125.02 73.65 124.86C73.4 124.8 73.14 124.78 72.65 124.71C71.65 124.26 70.65 125.06 69.65 125.6C69.3581 125.712 69.1212 125.934 68.9888 126.217C68.8564 126.5 68.8389 126.824 68.94 127.12C69.0287 127.371 69.2053 127.581 69.4369 127.711C69.6686 127.842 69.9396 127.884 70.2 127.83C71.0922 127.74 71.9712 127.549 72.82 127.26C73.58 126.95 74.01 126.83 74.33 127.75C74.3858 127.883 74.4673 128.004 74.5698 128.106C74.6724 128.208 74.794 128.289 74.9277 128.343C75.0615 128.398 75.2047 128.426 75.3492 128.425C75.4937 128.425 75.6367 128.396 75.77 128.34C76.35 128.11 75.77 127.58 75.77 127.18C75.7723 127.082 75.7405 126.987 75.68 126.91C75.18 126.33 75.48 126.14 76.05 125.91C76.62 125.68 77.37 125.22 77.05 124.41C76.9087 123.984 76.632 123.615 76.2619 123.361C75.8918 123.106 75.4487 122.979 75 123" fill="white"/>
<path d="M23.24 221.33C23.46 221.04 23.09 220.19 22.74 220.18C22.1632 220.537 21.6297 220.96 21.15 221.44C21.15 221.44 21.15 221.7 21.24 221.78C21.6279 222.186 21.9001 222.689 22.0285 223.236C22.1568 223.782 22.1366 224.354 21.97 224.89C21.91 225.16 22.04 225.3 22.27 225.41C22.3698 225.456 22.4822 225.468 22.5893 225.442C22.6963 225.417 22.7916 225.356 22.86 225.27C23.22 224.93 23.55 222.4 23.21 222.01C22.87 221.62 23.05 221.58 23.21 221.33" fill="white"/>
<path d="M26.94 165.67C26.26 165.44 26.14 166.21 25.87 166.56C25.45 167.1 24.87 167.56 24.87 168.37C24.9058 168.617 24.9916 168.855 25.1223 169.068C25.253 169.281 25.4257 169.466 25.63 169.61C25.76 169.74 26.2 169.83 26.3 169.53C26.59 168.69 27.47 168.11 27.3 167.17C27.36 166.56 27.57 165.91 26.88 165.67" fill="white"/>
<path d="M83.68 135.35C83.5138 135.315 83.3424 135.313 83.1755 135.344C83.0086 135.375 82.8495 135.439 82.7073 135.532C82.5652 135.625 82.4428 135.745 82.3471 135.886C82.2515 136.026 82.1845 136.184 82.15 136.35C82.1451 136.417 82.1451 136.483 82.15 136.55C82.15 137.12 82.94 137.85 83.72 137.94C83.8612 137.974 84.0079 137.979 84.1512 137.956C84.2945 137.932 84.4317 137.88 84.5547 137.803C84.6777 137.726 84.784 137.624 84.8673 137.505C84.9506 137.386 85.0094 137.252 85.04 137.11C85.0503 137.014 85.0503 136.916 85.04 136.82C85.13 135.93 84.69 135.47 83.67 135.37" fill="white"/>
<path d="M19.59 217.83C19.27 217.83 18.51 217.49 18.43 218.55C18.4286 218.978 18.5707 219.393 18.8336 219.731C19.0965 220.068 19.465 220.307 19.88 220.41C21.01 220.41 20.78 219.46 20.95 218.82C21.21 217.87 20.5 217.82 19.59 217.82" fill="white"/>
<path d="M160.06 249.51C160.122 250.304 160.41 251.064 160.89 251.7C161.07 251.87 161.37 252.02 161.46 251.82C161.787 251.24 161.982 250.594 162.03 249.93C162.016 249.647 161.924 249.373 161.763 249.14C161.602 248.907 161.38 248.723 161.12 248.61C160.63 248.77 159.92 248.95 160.06 249.51Z" fill="white"/>
<path d="M69.19 128.76C68.9 128.62 67.72 129.76 67.79 130.23C67.92 131.01 68.65 130.92 69.07 131.04C69.49 131.16 70.21 131.13 70.07 130.53C69.93 129.93 69.9 129.1 69.18 128.76" fill="white"/>
<path d="M52.35 166.64C53.05 166.54 53.04 165.88 53.24 165.44C53.44 165 52.31 163.86 51.96 163.92C51.7921 163.94 51.6376 164.022 51.5267 164.149C51.4158 164.277 51.3563 164.441 51.36 164.61C51.36 165.82 51.81 166.72 52.36 166.61" fill="white"/>
<path d="M71.63 135.55C71.28 135.19 70.91 134.83 70.55 134.47C70.38 134.3 70.08 134.18 70 134.47C69.8925 134.686 69.8307 134.922 69.8187 135.163C69.8067 135.404 69.8445 135.644 69.93 135.87C70.16 136.26 70.38 136.77 71.01 136.75C71.164 136.792 71.3275 136.783 71.4756 136.723C71.6237 136.664 71.7482 136.557 71.83 136.42C72.09 136.08 71.83 135.82 71.63 135.58" fill="white"/>
<path d="M63.62 119.52C63.4287 119.48 63.2313 119.48 63.04 119.52C62.59 119.72 62.13 119.97 62.21 120.52C62.29 121.07 62.83 121 63.21 121.01C63.5267 120.969 63.8407 120.909 64.15 120.83C64.91 120.71 64.86 120.38 64.45 119.88C64.3506 119.752 64.2233 119.648 64.0776 119.577C63.932 119.506 63.772 119.47 63.61 119.47" fill="white"/>
<path d="M158.52 246.42C158.17 246.29 157.79 246.15 157.52 246.54C157.25 246.93 157.52 247.26 157.87 247.54C158.68 248.17 159.51 248.09 160.47 247.15C159.6 247.15 159.09 246.67 158.47 246.44" fill="white"/>
<path d="M162.91 255.64C163.57 255.39 162.98 254.64 162.91 254.11C162.892 253.924 162.812 253.749 162.684 253.613C162.555 253.477 162.385 253.388 162.2 253.36C161.57 253.58 161.6 254.07 161.89 254.49C162.18 254.91 162.35 255.85 162.89 255.64" fill="white"/>
<path d="M238.93 209C240.06 207.8 240.06 207.24 239.13 205.91C238.66 205.24 238.19 204.51 238.73 203.59C238.839 203.387 238.874 203.153 238.831 202.927C238.787 202.701 238.667 202.498 238.49 202.35C237.87 201.76 237.26 201.16 236.67 200.54C235.88 199.7 234.76 198.96 234.41 197.96C233.99 196.75 233.3 196.69 232.35 196.6C231.789 196.591 231.249 196.387 230.823 196.021C230.398 195.656 230.113 195.153 230.02 194.6C229.94 193.965 229.799 193.339 229.6 192.73C229.58 192.452 229.453 192.193 229.246 192.007C229.039 191.821 228.768 191.722 228.49 191.73C225.99 191.73 223.87 190.55 221.82 189.44C219.808 188.308 217.946 186.928 216.28 185.33C214.65 183.672 212.846 182.193 210.9 180.92C208.343 179.48 205.646 178.304 202.85 177.41C200.952 176.667 199.093 175.83 197.28 174.9C195.61 174.13 193.96 173.23 192.33 172.33C190.341 171.36 188.463 170.176 186.73 168.8C185.13 167.4 184.79 166.53 185.45 164.56C185.56 164.22 185.72 164.13 186.01 164.27C186.416 164.526 186.906 164.616 187.377 164.521C187.848 164.426 188.265 164.154 188.54 163.76C188.759 163.517 189.033 163.332 189.34 163.22C189.995 162.885 190.566 162.406 191.009 161.819C191.452 161.232 191.757 160.552 191.9 159.83C192.054 158.944 191.849 158.034 191.332 157.298C190.814 156.563 190.026 156.064 189.14 155.91C188.62 155.82 188.086 155.85 187.58 156C185.609 156.431 183.598 156.659 181.58 156.68C179.765 156.528 177.94 156.552 176.13 156.75C175.86 156.824 175.575 156.831 175.302 156.77C175.028 156.709 174.773 156.582 174.56 156.4C174.198 156.055 173.768 155.788 173.299 155.616C172.829 155.444 172.329 155.371 171.83 155.4C171.199 155.384 170.578 155.23 170.012 154.951C169.446 154.671 168.947 154.272 168.55 153.78C168.185 153.279 167.715 152.864 167.172 152.563C166.63 152.263 166.028 152.084 165.41 152.04C164.789 152.077 164.173 151.906 163.659 151.555C163.145 151.204 162.762 150.692 162.57 150.1C162.16 149.1 161.73 148 160.39 147.82C160.235 147.773 160.096 147.683 159.99 147.56C158.413 146.131 157.097 144.439 156.1 142.56C155.851 142.085 155.511 141.664 155.099 141.321C154.687 140.978 154.212 140.719 153.7 140.56C153.386 140.48 153.1 140.318 152.87 140.09C150.87 137.75 148.78 135.42 148 132.32C147.22 129.22 146.25 126.38 146.05 123.26C145.95 121.67 145.88 119.98 144.92 118.69C144.168 117.61 143.701 116.358 143.56 115.05C143.297 113.187 142.704 111.386 141.81 109.73C141.602 109.311 141.309 108.941 140.949 108.643C140.589 108.345 140.17 108.126 139.72 108C138.471 107.612 137.312 106.98 136.31 106.14C134.572 104.652 132.957 103.027 131.48 101.28C129.985 99.8796 128.302 98.6949 126.48 97.76C125.781 97.402 125.112 96.9872 124.48 96.52C123.38 95.62 122.48 94.52 121.4 93.61C118.65 91.17 117.52 88 117.1 84.48C116.85 82.48 117.2 80.38 116.6 78.35C116.333 77.5381 116.333 76.6619 116.6 75.85C116.82 75.29 117.06 74.72 116.49 74.18C116.35 74.04 116.39 73.87 116.55 73.68C117.17 72.99 118.94 73.21 119.23 74.06C119.31 74.29 119.32 74.52 119.63 74.46C119.94 74.4 119.85 74.16 119.87 73.98C119.895 73.7574 119.895 73.5326 119.87 73.31C119.8 72.85 119.65 72.31 120.27 72.21C120.89 72.11 120.89 72.62 120.97 73.03C120.973 73.145 121.02 73.2543 121.102 73.3347C121.185 73.415 121.295 73.46 121.41 73.46C121.83 73.46 121.72 73.13 121.76 72.9C121.89 72.11 121.97 71.31 122.13 70.51C122.46 68.81 122.13 68.57 120.53 68.18C119.85 68.02 119.83 68.81 119.31 68.71C119.149 68.255 119.091 67.7701 119.14 67.29C119.171 67.1826 119.16 67.0671 119.108 66.9682C119.055 66.8692 118.966 66.7945 118.86 66.76H118.74C118.16 66.68 118.16 66.66 118.52 66.2C118.958 65.6758 119.17 64.9993 119.11 64.3188C119.05 63.6383 118.723 63.0094 118.2 62.57C117.94 62.3533 117.641 62.1871 117.32 62.08C116.84 61.91 116.32 61.58 116.41 61.02C116.55 59.78 116.2 58.34 117.64 57.55C117.81 57.46 117.86 57.26 117.95 57.08C118.41 56.16 118.95 55.24 120.07 55.03C120.649 54.976 121.211 54.8002 121.717 54.5142C122.224 54.2281 122.665 53.8382 123.01 53.37C123.063 53.288 123.147 53.2304 123.242 53.2098C123.338 53.1892 123.438 53.2072 123.52 53.26C124.05 53.58 124.95 53.84 124.93 54.36C124.91 54.88 124.03 55.08 123.4 54.99C122.77 54.9 122.57 55.26 122.4 55.69C122.23 56.12 122.19 56.34 122.52 56.59C122.687 56.6971 122.884 56.7481 123.081 56.7355C123.279 56.7229 123.468 56.6474 123.62 56.52C124.95 55.74 126.37 55.14 127.7 54.36C128.243 54.0185 128.861 53.8127 129.5 53.76C131.1 53.68 131.63 52.76 131.09 51.28C130.98 50.95 130.77 50.62 131.09 50.28C131.52 50.56 132.09 50.6 132.09 51.37C132.09 51.76 132.46 52.06 133.02 52.12C133.776 52.145 134.532 52.054 135.26 51.85C135.538 51.805 135.791 51.6627 135.975 51.4484C136.158 51.2342 136.259 50.9619 136.26 50.68C136.306 50.4655 136.267 50.2417 136.151 50.0554C136.035 49.869 135.852 49.7345 135.64 49.68C135.01 49.4 135.42 49.06 135.78 48.93C136.242 48.6935 136.751 48.5627 137.27 48.5471C137.789 48.5315 138.305 48.6316 138.78 48.84C139.28 49.12 139.78 49.38 140.28 49.65C141.02 50.06 142.08 50.47 141.78 51.72C141.768 51.777 141.779 51.8364 141.811 51.8851C141.843 51.9339 141.893 51.968 141.95 51.98H142.02C142.918 51.1818 143.754 50.3159 144.52 49.39L147.89 52.56C148.38 53.02 148.45 53.36 147.68 53.61C147.25 53.75 146.76 53.96 147.04 54.61C147.073 54.7375 147.13 54.8573 147.209 54.9625C147.288 55.0678 147.387 55.1564 147.501 55.2233C147.614 55.2902 147.739 55.334 147.87 55.3523C148 55.3707 148.133 55.3631 148.26 55.33C148.316 55.319 148.37 55.2987 148.42 55.27C149.184 54.9728 149.799 54.385 150.131 53.6354C150.462 52.8858 150.484 52.0353 150.19 51.27C150.134 51.1751 150.07 51.0848 150 51C149.336 49.907 148.442 48.9719 147.38 48.26C146.62 47.74 145.85 47.17 146.03 46.04C146.41 43.76 146.41 43.75 144.18 43.04C143.55 42.83 143.5 42.54 143.86 42.04C144.362 41.4595 144.965 40.975 145.64 40.61C146.24 40.22 147 39.91 146.88 39.01C146.826 38.6247 146.656 38.2649 146.394 37.9776C146.132 37.6903 145.789 37.4889 145.41 37.4C144.77 37.17 144.13 36.97 143.47 36.8C142.81 36.63 141.87 36.3 141.82 35.41C141.77 34.74 142.35 34.23 142.91 33.85C144.76 32.3666 146.948 31.3636 149.28 30.93C149.84 30.86 149.9 30.52 149.88 30.12C149.86 29.72 150.21 29.3 149.68 29.21C148.9 29.09 148.18 28.56 147.32 28.9C147.198 28.9439 147.067 28.9578 146.938 28.9404C146.809 28.923 146.686 28.8748 146.58 28.8C145.85 27.9 144.73 28.16 143.82 27.91C142.91 27.66 141.98 27.2 141.01 27.76C140.855 27.8149 140.685 27.8149 140.53 27.76C139.53 27.4 138.43 27 137.36 26.66C135.78 26.16 134.36 25.1 132.52 25.66C132.12 25.854 131.661 25.8875 131.237 25.7536C130.813 25.6197 130.456 25.3286 130.24 24.94C130.1 24.69 129.71 24.62 129.37 24.59C128.629 24.4783 127.88 24.4215 127.13 24.42C126.483 24.5012 125.828 24.3524 125.28 23.9996C124.731 23.6468 124.324 23.1125 124.13 22.49C124.07 22.3034 123.993 22.1227 123.9 21.95C123.4 21 123.16 20 122 19.71C121.791 19.6512 121.612 19.5154 121.498 19.3299C121.385 19.1444 121.347 18.9229 121.39 18.71V18.62C121.524 18.2562 121.526 17.857 121.396 17.4917C121.267 17.1264 121.013 16.818 120.68 16.62C119.21 15.8 118.68 14.79 119.33 13.17C119.58 12.56 119.2 12.17 118.49 12.06C117.657 11.9683 116.816 11.9918 115.99 12.13C114.852 12.4461 113.771 12.9424 112.79 13.6C112.01 14.04 111.29 14.6 110.3 13.74C109.658 13.1807 108.85 12.847 108 12.79C107.36 12.79 107 13.13 106.49 13.31C105.04 13.82 103.55 13.54 102.09 13.64C101.213 13.6387 100.365 13.947 99.6931 14.5105C99.0217 15.074 98.5708 15.8565 98.42 16.72C98.2 17.53 97.86 18.47 96.77 18.44C95.94 18.44 95.1 18.24 94.27 18.13C93.19 18 93 17.39 92.77 16.57C92.7387 16.3916 92.6723 16.2213 92.5748 16.0687C92.4772 15.9162 92.3503 15.7845 92.2015 15.6812C92.0528 15.578 91.885 15.5053 91.7079 15.4673C91.5309 15.4294 91.348 15.4269 91.17 15.46H91.07C90.3173 15.6292 89.5509 15.7296 88.78 15.76C87.26 15.76 86.62 16.64 86.78 18.18C86.94 19.72 87.58 21.46 87.2 23.18C87.07 23.78 86.76 24.04 86.2 23.82C84.8619 23.2846 83.7566 22.2926 83.08 21.02C82.93 20.76 82.73 20.55 82.47 20.67C81.543 20.9874 80.6722 21.4499 79.89 22.04C78.89 22.89 79.02 24.24 78.39 25.26C78.15 25.66 78.48 25.98 78.98 26.01C79.48 26.04 80.22 26.13 80.83 26.18C81.18 26.18 81.48 26.28 81.54 26.7C81.6 27.12 81.25 27.24 80.96 27.35C80.6534 27.4664 80.3882 27.671 80.1978 27.9379C80.0074 28.2049 79.9003 28.5222 79.89 28.85C79.8476 29.4859 79.7404 30.1159 79.57 30.73C79.5234 30.9915 79.3927 31.2307 79.1978 31.4112C79.0029 31.5917 78.7543 31.7036 78.49 31.73C78.09 31.73 78.03 31.08 78.03 30.68C78.03 29.5 77.03 28.68 76.88 27.58C76.88 27.38 76.63 27.1 76.41 27.14C75.76 27.28 75.01 27.09 74.47 27.56C73.4847 28.2798 72.35 28.7685 71.15 28.99C70.9363 29.0665 70.7021 29.063 70.4907 28.9803C70.2794 28.8976 70.105 28.7412 70 28.54C69.9965 28.5134 69.9965 28.4866 70 28.46C69.8 27.87 69.49 27.35 69.3 26.77C68.6589 24.8894 67.4674 23.2449 65.88 22.05C65.6582 21.8882 65.4011 21.7812 65.13 21.7377C64.8589 21.6943 64.5813 21.7156 64.32 21.8C63.81 21.93 63.99 22.52 63.93 22.91C63.7302 23.8324 63.8103 24.7934 64.16 25.67C64.2417 25.8714 64.2699 26.0905 64.2418 26.3061C64.2138 26.5216 64.1305 26.7262 64 26.9C62.82 28.25 62.12 29.96 60.78 31.15C60.3274 31.451 59.9552 31.8579 59.6955 32.3354C59.4359 32.8129 59.2967 33.3465 59.29 33.89C59.29 34.26 58.96 34.42 58.83 34.69C58.53 35.28 57.58 35.62 57.99 36.46C58.4 37.3 59.18 38.05 58.25 39.01C58.25 39.01 58.25 39.13 58.25 39.19C58.43 39.93 58.08 40.49 57.4 40.51C56.7243 40.4575 56.0894 40.166 55.6092 39.6877C55.129 39.2093 54.835 38.5755 54.78 37.9C54.7501 37.1621 54.6699 36.427 54.54 35.7C54.3002 34.8669 54.3002 33.9831 54.54 33.15C54.93 32.15 54.48 31.64 53.36 31.86C52.7544 32.0439 52.1041 32.0141 51.5178 31.7756C50.9316 31.5372 50.4452 31.1044 50.14 30.55C49.6263 29.7723 49.0687 29.0244 48.47 28.31C48.1396 27.9891 47.949 27.5508 47.9397 27.0903C47.9303 26.6297 48.1029 26.1841 48.42 25.85L48.53 25.74C49.2683 24.8552 49.7736 23.7999 50 22.67C50.0697 22.4557 50.0582 22.2233 49.9679 22.0168C49.8776 21.8104 49.7147 21.6443 49.51 21.55C48.8837 21.3409 48.204 21.3574 47.5885 21.5967C46.9731 21.8359 46.4607 22.2828 46.14 22.86C45.8366 23.6559 45.2652 24.3211 44.5241 24.7409C43.783 25.1607 42.9186 25.3089 42.08 25.16C41.58 25.16 40.94 25.04 40.65 25.5C40.5298 25.7765 40.4805 26.0787 40.5067 26.379C40.5329 26.6794 40.6337 26.9685 40.8 27.22C41.52 28.91 42.1 29.69 39.91 30.92C38.5754 31.6041 37.4546 32.6419 36.67 33.92C36.478 34.3559 36.1268 34.7021 35.6883 34.8879C35.2497 35.0738 34.7567 35.0852 34.31 34.92C33.91 34.79 33.71 34.44 33.42 34.2C32.36 33.34 30.93 33.33 29.86 32.58C29.1 32.05 28.59 32.39 28.05 32.86C27.83 33.05 27.64 33.26 27.43 33.47C27.0579 33.9359 26.563 34.2886 26.0011 34.4883C25.4392 34.6879 24.8327 34.7266 24.25 34.6C23.2333 34.3734 22.189 34.2959 21.15 34.37C20.75 34.37 20.48 34.13 20.34 33.69C20.14 33.08 19.89 32.54 19.16 33.34C18.7968 33.6618 18.3554 33.8825 17.88 33.98C16.88 34.25 15.93 34.6 14.94 34.84C14.8303 34.8536 14.7243 34.8887 14.6282 34.9434C14.532 34.998 14.4476 35.0711 14.3798 35.1584C14.312 35.2457 14.2621 35.3456 14.2329 35.4523C14.2038 35.5589 14.196 35.6703 14.21 35.78C14.2207 35.897 14.2583 36.01 14.32 36.11C15.012 37.2788 15.9218 38.304 17 39.13C17.35 39.4 18.17 39.08 18.07 39.93C18.01 40.45 17.95 40.93 17.86 41.48C17.817 41.6663 17.7389 41.8428 17.63 42C17.5475 42.1072 17.4876 42.23 17.4539 42.361C17.4202 42.4919 17.4134 42.6284 17.434 42.7621C17.4546 42.8958 17.5021 43.0239 17.5736 43.1387C17.6451 43.2535 17.7391 43.3526 17.85 43.43L17.96 43.5C18.4902 43.9574 19.0706 44.3533 19.69 44.68C20.69 45.16 20.69 45.68 19.87 46.3C19.4494 46.5838 19.1274 46.9912 18.9482 47.4658C18.7691 47.9405 18.7418 48.4591 18.87 48.95C18.94 49.35 18.98 49.77 19.08 50.17C19.18 50.57 19.08 50.63 18.81 50.66C16.99 50.81 15.81 51.98 14.62 53.19C14.498 53.3301 14.3417 53.4361 14.1664 53.4975C13.991 53.5588 13.8027 53.5735 13.62 53.54C12.62 53.43 11.62 53.37 10.62 53.25C10.3182 53.1927 10.0059 53.2348 9.73001 53.37C9.45414 53.5052 9.22957 53.7263 9.09 54C8.77 54.63 9.38 55 9.74 55.33C10.1 55.66 10.41 55.72 10.58 56.11C11.124 57.3365 11.4197 58.6586 11.45 60C11.45 60.21 11.45 60.42 11.62 60.53C12.34 60.94 12.96 61.84 13.76 61.74C15.38 61.54 15.95 62.32 16.18 63.68C16.18 63.74 16.27 63.78 16.29 63.84C16.3591 63.9725 16.4012 64.1173 16.414 64.2662C16.4267 64.415 16.4098 64.565 16.3643 64.7072C16.3187 64.8495 16.2454 64.9814 16.1485 65.0951C16.0517 65.2089 15.9332 65.3023 15.8 65.37C15.6443 65.448 15.4739 65.4923 15.3 65.5C14.8835 65.5105 14.4878 65.684 14.198 65.9832C13.9081 66.2824 13.7472 66.6834 13.75 67.1C13.7144 67.6016 13.5284 68.0809 13.2162 68.4752C12.904 68.8694 12.4801 69.1604 12 69.31C11.68 69.45 11.33 69.48 11.14 69.86C10.73 70.67 10.95 71.09 12.27 71.64C12.62 71.79 13.06 71.96 13.01 72.28C12.9457 72.4588 12.8227 72.6106 12.6611 72.7105C12.4994 72.8104 12.3087 72.8525 12.12 72.83C11.49 72.74 11.33 73.07 11.42 73.54C11.65 74.83 11.69 76.1 12.88 77.11C14.88 78.79 17.14 80.03 18.88 82C19.0524 82.2006 19.2791 82.3469 19.5329 82.4215C19.7866 82.496 20.0565 82.4955 20.31 82.42C21.81 81.95 23.59 82.59 24.87 81.25C25.1 81 25.49 81.12 25.78 81.25C25.8751 81.2955 25.9485 81.3767 25.984 81.4759C26.0196 81.5752 26.0146 81.6844 25.97 81.78C25.9729 81.7999 25.9729 81.8201 25.97 81.84C25.21 82.84 25.73 83.59 26.36 84.37C26.74 84.84 26.89 85.37 26.17 85.7C23 87.37 22.23 88.58 22.7 91.78C22.81 92.5 23.13 92.68 23.76 92.78C24.9158 92.8884 26.0804 92.8616 27.23 92.7C28.862 92.6966 30.4757 92.3562 31.97 91.7C33.21 91.06 33.97 89.78 35.1 88.99C35.3143 88.7074 35.4078 88.3514 35.36 88C35.3398 87.7252 35.3942 87.4501 35.5174 87.2037C35.6406 86.9573 35.8281 86.7487 36.06 86.6C37 85.84 38 85 38.92 84.3C39.0424 84.1958 39.1913 84.1275 39.3502 84.1028C39.5091 84.0781 39.6717 84.0979 39.82 84.16C40.92 84.6 41.51 84.22 41.72 83.02C41.9808 82.1708 42.4341 81.3933 43.0447 80.7481C43.6552 80.1028 44.4065 79.6073 45.24 79.3C46.3858 79.1688 47.5216 78.9617 48.64 78.68C48.8612 78.6098 49.0952 78.5896 49.3252 78.6207C49.5552 78.6518 49.7754 78.7336 49.97 78.86C50.8051 79.3629 51.7654 79.6194 52.74 79.6C53.2561 79.577 53.7655 79.724 54.19 80.0185C54.6145 80.3129 54.9307 80.7385 55.09 81.23C55.32 81.8 55.57 82.51 56.37 82.5C58.92 82.5 60.62 84.31 62.68 85.36C63.1363 85.6559 63.5111 86.0617 63.77 86.54C64.48 87.7 65.32 88.77 66.12 89.87C66.1734 89.9807 66.2481 90.0798 66.34 90.1615C66.4319 90.2431 66.5391 90.3058 66.6553 90.3457C66.7715 90.3857 66.8946 90.4023 67.0172 90.3944C67.1399 90.3866 67.2598 90.3545 67.37 90.3C67.4593 90.2621 67.5406 90.2078 67.61 90.14C67.6768 90.0636 67.7581 90.0011 67.8491 89.9562C67.9401 89.9113 68.0391 89.8848 68.1404 89.8783C68.2417 89.8718 68.3433 89.8854 68.4394 89.9183C68.5354 89.9512 68.624 90.0027 68.7 90.07C68.7762 90.1365 68.8375 90.2182 68.88 90.31C69.2215 90.7735 69.6958 91.1222 70.24 91.31C70.9633 91.4876 71.6357 91.83 72.2047 92.3105C72.7737 92.7911 73.2238 93.3967 73.52 94.08C74.0799 95.8141 74.9359 97.4381 76.05 98.88C76.35 99.25 76.12 99.41 75.67 99.44C74.67 99.52 74.14 100.06 74.48 100.74C74.8523 101.597 75.0299 102.526 75 103.46C75 104.51 74.66 105.74 75.08 106.58C75.5997 107.864 76.2964 109.069 77.15 110.16C77.8278 110.954 78.2924 111.907 78.5 112.93C78.6886 114.343 78.6616 115.776 78.42 117.18C78.3167 118.271 77.9753 119.326 77.42 120.27C77.2728 120.508 77.2033 120.786 77.2212 121.066C77.2392 121.345 77.3436 121.612 77.52 121.83C77.6771 121.998 77.8872 122.106 78.1148 122.137C78.3425 122.168 78.5738 122.12 78.77 122C79.0421 121.857 79.3564 121.817 79.6557 121.887C79.955 121.956 80.2192 122.132 80.4 122.38C80.68 122.65 80.89 122.98 81.35 122.97C81.6455 122.93 81.946 122.986 82.2071 123.13C82.4682 123.275 82.6761 123.499 82.8 123.77C83 124.34 82.48 124.69 82.08 125.07C81.44 125.67 81.63 126.15 82.44 126.43C82.9228 126.577 83.3861 126.782 83.82 127.04C85.18 127.85 85.82 129.36 87 130.26C88.0018 130.899 88.7999 131.812 89.3 132.89C89.71 133.98 90.8 135.13 89.3 136.32C88.81 136.71 89.09 137.64 89.74 137.93C90.4511 138.3 91.2498 138.47 92.05 138.42C93.5385 138.227 95.0495 138.518 96.36 139.25C98.62 140.6 99.69 142.93 100.7 145.25C100.943 145.71 101.047 146.232 101 146.75C100.96 147.213 101.064 147.677 101.296 148.079C101.529 148.482 101.879 148.803 102.3 149C104.3 150.34 106.7 151.16 108.41 153C108.54 153.096 108.681 153.176 108.83 153.24C109.155 153.446 109.42 153.736 109.596 154.079C109.771 154.422 109.852 154.805 109.83 155.19C109.83 155.61 109.76 156.03 109.73 156.45C109.66 157.67 110.16 158.31 111.37 158.37C111.856 158.349 112.336 158.484 112.739 158.756C113.142 159.027 113.448 159.422 113.61 159.88C113.82 160.234 114.061 160.568 114.33 160.88C114.874 161.632 115.33 162.444 115.69 163.3C116.13 164.68 116.61 166.04 118.13 166.76C118.87 167.11 119.69 167.01 120.35 167.35C121.239 167.73 122.043 168.285 122.713 168.983C123.383 169.681 123.906 170.506 124.25 171.41C124.282 171.614 124.353 171.811 124.461 171.987C124.569 172.164 124.71 172.317 124.878 172.439C125.045 172.561 125.235 172.648 125.436 172.697C125.637 172.745 125.846 172.753 126.05 172.72L126.3 172.66C127.3 172.45 128.19 172.1 129.15 171.86C129.89 171.68 130.75 171.17 131.36 171.56C132.024 172.037 132.723 172.465 133.45 172.84C134.57 173.34 135.65 174.13 136.84 172.98C137.003 172.87 137.194 172.808 137.39 172.8C138.99 172.53 141.56 174.22 142.04 176.46C142.28 177.349 142.571 178.224 142.91 179.08C142.979 179.369 143.113 179.638 143.302 179.867C143.49 180.096 143.729 180.278 144 180.4C144.533 180.63 144.967 181.042 145.223 181.562C145.48 182.083 145.542 182.677 145.4 183.24C145.34 183.76 145.32 184.52 145.62 184.8C146.56 185.69 147.55 186.8 148.96 186.64C149.705 186.57 150.456 186.677 151.151 186.954C151.847 187.23 152.467 187.667 152.96 188.23C153.87 189.06 153.77 189.71 152.62 190.23C152.44 190.31 152.24 190.33 152.06 190.41C151.72 190.567 151.442 190.833 151.271 191.167C151.101 191.501 151.047 191.882 151.12 192.25C151.38 193.05 152.12 193.18 152.79 193.13C153.259 193.041 153.711 192.879 154.13 192.65C155.016 192.126 156.072 191.972 157.07 192.22C157.623 192.462 158.241 192.51 158.825 192.358C159.41 192.205 159.925 191.861 160.29 191.38C160.347 191.295 160.421 191.223 160.506 191.167C160.592 191.111 160.688 191.072 160.788 191.054C160.889 191.035 160.992 191.037 161.092 191.058C161.192 191.08 161.286 191.121 161.37 191.18C161.434 191.225 161.491 191.279 161.54 191.34C162.906 192.75 164.031 194.375 164.87 196.15C165 196.45 165.12 196.78 164.77 196.91C163.7 197.31 163.17 197.82 163.54 199.13C163.592 199.503 163.511 199.883 163.312 200.202C163.113 200.522 162.808 200.762 162.45 200.88C162.19 200.98 161.73 201.2 161.78 201.51C161.86 201.98 162.36 201.93 162.78 201.97C163.168 202.024 163.559 202.057 163.95 202.07C164.228 202.056 164.503 202.137 164.729 202.301C164.955 202.465 165.117 202.701 165.19 202.97C165.452 203.585 165.933 204.08 166.54 204.36C168 205.36 170.11 205.61 170.54 207.82C170.54 207.89 170.66 207.94 170.74 208C172.68 209.48 173.94 209.39 175.58 207.63C175.89 207.3 176.33 206.85 176.69 207.06C178.02 207.82 179.58 208.39 179.84 210.25C179.922 210.755 180.091 211.243 180.34 211.69C181.16 213.257 181.55 215.013 181.47 216.78C181.437 217.117 181.476 217.457 181.584 217.778C181.693 218.099 181.869 218.393 182.1 218.64C182.49 219.06 182.97 219.49 182.91 220.13C182.892 220.34 182.921 220.552 182.996 220.749C183.07 220.946 183.188 221.124 183.34 221.27C184.008 222.013 184.513 222.889 184.82 223.84C185.381 225.047 185.788 226.321 186.03 227.63C186.12 228.53 186.03 229.44 186.22 230.32C186.502 231.893 186.679 233.483 186.75 235.08C186.84 236.92 187.22 238.36 188.92 239.27C189.122 239.429 189.272 239.645 189.35 239.89C189.544 240.344 189.622 240.839 189.579 241.331C189.535 241.823 189.371 242.297 189.1 242.71C188.6 243.71 187.1 244.71 186.04 244.37C185.635 244.23 185.206 244.172 184.779 244.199C184.351 244.226 183.934 244.339 183.55 244.53C182.734 244.913 181.979 245.415 181.31 246.02C180.31 246.82 180.31 247.02 181.31 248.02C181.957 248.645 182.482 249.384 182.86 250.2C182.964 250.431 183.003 250.687 182.973 250.939C182.943 251.19 182.845 251.429 182.69 251.63C181.9 252.96 180.69 253.98 180.17 255.55C180.074 255.887 179.856 256.176 179.558 256.361C179.26 256.546 178.905 256.613 178.56 256.55C178.17 256.55 177.78 256.46 177.39 256.44C176.23 256.38 175.72 256.94 175.97 258.08C176.15 258.86 176.45 259.61 176.62 260.39C176.791 260.894 176.832 261.434 176.739 261.958C176.646 262.482 176.423 262.975 176.09 263.39C175.7 263.84 175.49 264.51 176.09 264.89C176.859 265.495 177.823 265.798 178.8 265.74C180.533 265.373 182.334 265.498 184 266.1C184.808 266.238 185.639 266.067 186.326 265.621C187.014 265.174 187.508 264.485 187.71 263.69C187.919 262.324 188.528 261.051 189.46 260.03C189.885 259.68 190.227 259.239 190.46 258.74C191.04 257.18 192.46 256.64 193.77 256.23C195.114 255.82 196.341 255.097 197.35 254.12C197.682 253.808 197.897 253.391 197.96 252.94C198.36 250.55 197.7 248.23 197.59 245.88C197.573 245.783 197.523 245.695 197.45 245.63C197 245.18 196.99 244.86 197.63 244.54C197.764 244.451 197.879 244.336 197.969 244.202C198.058 244.068 198.12 243.918 198.15 243.76C198.272 243.246 198.518 242.769 198.867 242.372C199.215 241.974 199.656 241.668 200.15 241.48C200.32 241.4 200.37 241.26 200.49 241.17C201.36 240.5 202.14 239.53 203.25 239.43C205.01 239.27 206.74 239.93 208.52 239.96C209.25 239.96 210.11 240.3 210.52 239.69C210.79 239.282 210.963 238.818 211.027 238.333C211.091 237.848 211.044 237.354 210.89 236.89C210.44 235.57 209.5 234.49 209.46 232.96C209.46 231.09 208.7 229.21 209.96 227.46C210.28 227.02 210.05 226.67 209.56 226.4C208.685 226.011 207.907 225.434 207.28 224.71C206.682 223.863 205.908 223.157 205.01 222.64C204.032 222.045 203.121 221.348 202.29 220.56C202.054 220.266 201.745 220.04 201.394 219.905C201.043 219.77 200.662 219.73 200.29 219.79C199.955 219.814 199.62 219.763 199.307 219.642C198.994 219.521 198.712 219.333 198.48 219.09C197.04 217.97 197.55 216.26 197.09 214.86C197.09 214.75 197.19 214.51 197.31 214.44C198.013 213.907 198.681 213.329 199.31 212.71C199.698 212.486 199.983 212.117 200.101 211.685C200.219 211.252 200.161 210.79 199.94 210.4L199.89 210.32C199.609 209.791 199.509 209.185 199.607 208.594C199.705 208.003 199.994 207.46 200.43 207.05C201.588 205.916 202.497 204.554 203.1 203.05C203.941 201.233 205.042 199.548 206.37 198.05C207.09 197.12 208.05 196.05 209.5 196.43C210.485 196.769 211.445 197.181 212.37 197.66C211.67 197.97 211.25 198.2 210.79 198.36C210.635 198.402 210.502 198.5 210.415 198.635C210.329 198.77 210.295 198.932 210.32 199.09C210.32 199.5 210.63 199.4 210.85 199.5C211.46 199.721 212.102 199.839 212.75 199.85C213.548 199.938 214.309 200.231 214.96 200.7C215.78 201.313 216.67 201.826 217.61 202.23C218.468 202.628 219.423 202.771 220.36 202.64C223.89 201.96 225.98 202.34 226.88 205.18C227.11 205.89 228.08 206.38 227.81 207.18C227.37 208.53 229.01 209.65 228.12 210.99C228.12 210.99 228.2 211.16 228.27 211.23C229.64 212.71 231.1 214.05 233.27 214.32C234.1 214.42 234.9 214.4 235.48 215.24C235.88 215.83 236.64 215.56 237.16 215.32C237.68 215.08 237.68 214.48 237.48 213.95C237.36 213.65 237.2 213.38 237.08 213.08C236.893 212.766 236.816 212.398 236.864 212.035C236.911 211.672 237.079 211.336 237.34 211.08C237.97 210.48 238.57 209.84 239.17 209.2M174.84 255C174.664 254.919 174.468 254.891 174.276 254.92C174.085 254.948 173.905 255.032 173.76 255.16C172.872 255.737 171.95 256.262 171 256.73C170.8 256.861 170.577 256.952 170.342 256.996C170.107 257.04 169.865 257.036 169.632 256.986C169.398 256.936 169.177 256.84 168.981 256.703C168.785 256.566 168.618 256.392 168.49 256.19C168.4 256.057 168.33 255.912 168.28 255.76C168.22 255.44 168.33 255 167.91 255.01C167.49 255.02 167.26 255.37 167.07 255.77C166.686 256.779 166.221 257.756 165.68 258.69C165.493 259.034 165.18 259.291 164.807 259.409C164.434 259.526 164.03 259.494 163.68 259.32C163.538 259.241 163.407 259.143 163.29 259.03C162.48 258.24 161.38 257.96 160.52 257.27C160.16 256.97 159.81 257.17 159.52 257.34C159.271 257.49 158.986 257.569 158.695 257.569C158.404 257.569 158.119 257.49 157.87 257.34C157.541 257.142 157.148 257.08 156.774 257.168C156.401 257.255 156.076 257.486 155.87 257.81C155.791 257.948 155.731 258.096 155.69 258.25C154.85 260.31 154.3 260.59 152.11 260.48C150.445 260.252 148.75 260.488 147.21 261.16C146.816 261.382 146.354 261.451 145.911 261.356C145.469 261.26 145.077 261.005 144.81 260.64C144.32 260.16 143.81 259.64 142.97 260.13C142.78 260.24 142.46 260.13 142.2 260.13C141.015 260.077 139.847 260.43 138.89 261.13C137.89 262 134.72 262.2 133.69 261.36C132.445 260.524 131.466 259.347 130.87 257.97C130.39 256.62 129.72 256.49 128.87 257.32C127.68 258.47 127.5 258.45 126.96 256.89C126.822 256.466 126.627 256.062 126.38 255.69C126.151 255.315 125.787 255.042 125.363 254.927C124.939 254.811 124.487 254.863 124.1 255.07C123.857 255.219 123.586 255.315 123.303 255.353C123.021 255.391 122.734 255.369 122.46 255.29C121.57 254.97 121.02 255.4 120.46 256.05C119.9 256.7 119.46 256.99 119.67 257.92C119.84 258.61 119.22 259.06 118.52 259.02C117.763 259.019 117.021 258.818 116.367 258.437C115.714 258.056 115.173 257.508 114.8 256.85C114.37 256.201 113.896 255.583 113.38 255C113.302 254.893 113.193 254.813 113.067 254.772C112.941 254.731 112.806 254.73 112.68 254.77C112.4 254.84 112.32 255.03 112.35 255.36C112.363 255.633 112.282 255.902 112.123 256.123C111.963 256.345 111.733 256.506 111.47 256.58C109.83 257.18 108.9 258.7 107.47 259.58C107.178 259.725 106.93 259.947 106.754 260.221C106.578 260.496 106.48 260.814 106.47 261.14C106.471 262.581 106.189 264.008 105.64 265.34C105.24 266.76 105.54 269.01 107.27 269.49C107.781 269.617 108.254 269.865 108.649 270.213C109.044 270.561 109.35 270.999 109.54 271.49C109.597 271.658 109.715 271.799 109.87 271.886C110.025 271.973 110.207 271.999 110.38 271.96C112.53 271.998 114.676 272.152 116.81 272.42C117.024 272.413 117.232 272.486 117.395 272.625C117.558 272.764 117.663 272.958 117.69 273.17C117.94 274.52 118.09 274.65 119.53 274.69C119.997 274.633 120.468 274.761 120.842 275.047C121.216 275.333 121.463 275.754 121.53 276.22C121.535 276.27 121.535 276.32 121.53 276.37C121.56 276.804 121.73 277.216 122.015 277.545C122.3 277.873 122.685 278.1 123.11 278.19C123.736 278.344 124.275 278.74 124.61 279.29C125.018 279.956 125.62 280.482 126.334 280.798C127.049 281.114 127.842 281.206 128.61 281.06C129.17 280.98 129.82 280.92 130.11 281.64C130.622 282.63 131.362 283.484 132.27 284.13C133.44 285.141 134.8 285.909 136.27 286.39C136.89 286.693 137.568 286.86 138.258 286.879C138.948 286.898 139.634 286.769 140.27 286.5C141.71 285.78 142.49 286.08 143.56 287.36C144.89 288.96 146.4 290.36 147.87 291.86C148.801 292.556 149.568 293.447 150.12 294.47C150.5 295.47 150.94 296.38 152.24 296.47C152.44 296.47 152.67 296.85 152.82 297.09C153.117 297.752 153.652 298.279 154.318 298.568C154.984 298.857 155.733 298.886 156.42 298.65C156.74 298.58 157.04 298.29 157.24 298.32C159 298.62 160.83 298.74 162.33 299.94C163.16 300.61 163.4 300.47 163.52 299.37C163.66 298.04 163.82 296.71 163.88 295.37C163.94 294.28 164.04 293.31 165.32 292.97C165.589 292.848 165.811 292.641 165.95 292.38C166.44 291.552 167.227 290.941 168.15 290.67C168.57 290.55 169 289.99 168.59 289.78C167.84 289.41 168.01 288.92 168.11 288.41C168.21 287.9 168.11 287.68 167.53 287.56C167.114 287.459 166.736 287.243 166.437 286.938C166.138 286.632 165.931 286.248 165.84 285.83C165.74 285.47 165.64 285.04 165.97 284.76C166.3 284.48 166.6 284.76 166.87 284.88C167.14 285 167.34 285.13 167.55 284.88C167.76 284.63 167.46 284.43 167.34 284.23C166.595 283.342 165.639 282.654 164.56 282.23C164.2 282.03 163.89 281.86 164.03 281.36C164.103 280.956 164.079 280.539 163.959 280.146C163.839 279.753 163.627 279.395 163.34 279.1C163.04 278.67 162.91 278.33 163.52 277.92C165.016 276.859 166.035 275.254 166.36 273.45C166.72 271.84 166.78 270.12 168.18 268.91C168.715 268.418 169.2 267.876 169.63 267.29C171.314 265.285 172.741 263.078 173.88 260.72C174.641 259.226 175.11 257.6 175.26 255.93C175.27 255.736 175.231 255.544 175.147 255.369C175.063 255.194 174.937 255.043 174.78 254.93M57 182.62C57.1474 182.003 57.1328 181.358 56.9576 180.749C56.7824 180.139 56.4525 179.585 56 179.14C55.8015 178.881 55.7133 178.554 55.7545 178.23C55.7957 177.906 55.963 177.611 56.22 177.41C56.2902 177.348 56.3717 177.301 56.46 177.27C56.76 177.18 57.28 177.49 57.32 176.95C57.36 176.41 56.76 176.45 56.52 176.15C56.42 176.03 56.13 176.08 55.97 175.99C55.31 175.62 54.72 175.24 54.97 174.29C55.0981 173.583 55.1717 172.868 55.19 172.15C55.2361 171.902 55.1865 171.645 55.0511 171.431C54.9156 171.218 54.7045 171.064 54.46 171C54.3803 170.99 54.2997 170.99 54.22 171C53.33 171 53.48 170.46 53.73 170C53.9894 169.668 54.1111 169.249 54.07 168.83C54.0379 168.596 53.9476 168.374 53.8074 168.184C53.6673 167.995 53.4817 167.843 53.2678 167.744C53.0538 167.644 52.8183 167.6 52.5829 167.615C52.3474 167.63 52.1195 167.704 51.92 167.83C50.92 168.25 50.63 168.1 50.57 167.03C50.5796 166.893 50.5609 166.755 50.515 166.626C50.469 166.496 50.3969 166.378 50.3031 166.277C50.2092 166.177 50.0957 166.097 49.9696 166.042C49.8434 165.988 49.7074 165.96 49.57 165.96C49.02 165.86 48.52 166.35 47.95 165.9C47.6508 165.674 47.2763 165.572 46.904 165.615C46.5317 165.658 46.1901 165.842 45.95 166.13C45.5008 166.65 44.9102 167.029 44.25 167.22C42.77 167.51 41.37 167.81 40.46 169.22C39.81 170.27 38.8 171.09 38.19 172.15C37.37 173.59 37.47 173.63 35.81 173.49C34.81 173.41 33.64 172.99 32.7 173.72C31.46 174.72 30.12 174.49 28.8 174.19C28.0343 174.109 27.3154 173.782 26.7497 173.26C26.1841 172.738 25.8019 172.047 25.66 171.29C25.6314 171.051 25.5525 170.82 25.4284 170.613C25.3043 170.406 25.1379 170.228 24.94 170.09C24.44 169.76 24.21 169.8 24.14 170.45C24.07 171.1 24.28 171.82 23.81 172.31C23.3264 172.89 22.984 173.575 22.81 174.31C22.5277 175.069 22.5528 175.909 22.88 176.65C23.34 177.65 22.38 178.4 21.94 179.2C21.82 179.43 21.69 179.6 21.94 179.75C22.19 179.9 22.44 179.75 22.54 179.49C22.64 179.23 22.54 178.64 23.17 178.77C23.8 178.9 23.41 179.44 23.51 179.77C23.51 179.92 23.56 180.08 23.61 180.23C23.73 180.61 23.89 180.96 24.36 181.02C24.83 181.08 25 180.82 25.05 180.4C25.05 180.27 25.11 180.15 25.29 180.15C25.47 180.15 25.55 180.22 25.62 180.41C25.91 181.26 26.3 182.08 26.51 182.94C26.77 183.99 27.28 185.11 26.23 186.05C26.1989 186.081 26.1741 186.117 26.1572 186.158C26.1404 186.198 26.1317 186.241 26.1317 186.285C26.1317 186.329 26.1404 186.372 26.1572 186.412C26.1741 186.453 26.1989 186.489 26.23 186.52C27.58 187.84 27.58 189.52 27.34 191.18C27.1668 192.105 27.3039 193.061 27.73 193.9C27.99 194.38 28.07 195.04 27.05 195.03H25.33C24.88 195.03 24.33 195.26 24.58 195.73C25.23 196.8 25 197.89 25.01 199.01C25.01 199.53 24.77 200.35 25.41 200.59C26.05 200.83 26.29 200.05 26.73 199.74C27.17 199.43 27.36 198.9 27.73 199.26C27.8835 199.452 27.9783 199.685 28.0031 199.929C28.028 200.174 27.9817 200.421 27.87 200.64C27.7579 200.874 27.5977 201.082 27.4 201.25C27.2123 201.409 27.0768 201.621 27.0108 201.858C26.9449 202.095 26.9515 202.347 27.03 202.58C27.1619 203.196 27.3493 203.798 27.59 204.38C27.76 204.83 28.17 205.38 27.72 205.67C27.27 205.96 26.84 205.38 26.59 204.92C26.4712 204.659 26.32 204.413 26.14 204.19C25.82 203.86 25.77 203.27 25.14 203.19C25.09 203.82 25.07 204.42 25.07 205.03C25.07 206.52 25.47 208.1 24.07 209.37C23.62 209.77 22.82 210.54 23.29 211.28C23.5214 211.512 23.6514 211.827 23.6514 212.155C23.6514 212.483 23.5214 212.798 23.29 213.03L23.17 213.13C23.103 213.199 23.0543 213.284 23.0281 213.376C23.0019 213.469 22.9991 213.566 23.02 213.66C23.242 214.224 23.345 214.828 23.3226 215.434C23.3002 216.039 23.153 216.634 22.89 217.18C22.89 217.28 22.98 217.42 22.99 217.55C23.21 219.28 24.29 220.74 24.45 222.48C24.45 222.82 24.78 222.93 25 223.1C25.6531 223.576 26.1386 224.246 26.3865 225.015C26.6345 225.784 26.6322 226.612 26.38 227.38C26.22 227.84 26.12 228.29 26.48 228.48C26.7134 228.637 26.9944 228.707 27.274 228.677C27.5536 228.648 27.8141 228.522 28.01 228.32C28.2541 228.019 28.5145 227.732 28.79 227.46C28.9986 227.302 29.2576 227.225 29.5188 227.243C29.78 227.261 30.0257 227.374 30.21 227.56C30.3757 227.986 30.7025 228.33 31.1199 228.517C31.5372 228.705 32.0115 228.72 32.44 228.56C34.0922 228.017 35.549 227.002 36.63 225.64C36.7922 225.472 36.9 225.259 36.9393 225.029C36.9785 224.799 36.9474 224.562 36.85 224.35C36.6 223.4 35.99 222.35 36.5 221.45C36.6629 221.142 36.748 220.799 36.748 220.45C36.748 220.101 36.6629 219.758 36.5 219.45C36.33 218.92 35.74 218.22 36.34 217.92C36.94 217.62 37.34 218.57 37.75 218.99C37.75 218.99 37.75 219.12 37.8 219.17C38.25 220.29 38.6 220.43 39.8 219.98C41.47 219.34 41.47 219.34 42.47 220.98C42.61 221.187 42.76 221.397 42.92 221.61C43.3917 222.258 44.0741 222.721 44.85 222.92C45.3591 222.992 45.8211 223.257 46.14 223.66C46.51 224.16 46.92 224.17 47.25 223.58C47.9217 222.608 48.4316 221.535 48.76 220.4C48.9685 218.771 49.4915 217.199 50.3 215.77C50.5388 215.266 50.5711 214.688 50.39 214.16C50.29 213.84 50.15 213.64 50.39 213.32C51.24 211.98 51.39 210.4 51.76 208.92C52.3 207.01 52.43 204.97 52.99 203.06C53.3104 201.428 54.0515 199.908 55.14 198.65C55.52 198.27 55.42 197.93 55.14 197.54C54.4 196.6 53.68 195.64 52.94 194.69C52.6852 194.403 52.5253 194.044 52.4823 193.663C52.4394 193.282 52.5154 192.896 52.7 192.56C53.0042 191.99 53.4613 191.515 54.02 191.19C54.8081 190.622 55.5147 189.949 56.12 189.19C56.73 188.45 56.67 187.48 57.28 186.75C57.6795 186.341 57.9031 185.792 57.9031 185.22C57.9031 184.648 57.6795 184.099 57.28 183.69C57.1607 183.517 57.0801 183.32 57.0439 183.113C57.0076 182.906 57.0165 182.693 57.07 182.49M75.05 123C74.8499 122.983 74.6513 123.047 74.4977 123.176C74.344 123.305 74.2478 123.49 74.23 123.69C74.2167 123.832 74.2445 123.974 74.31 124.1C74.55 124.76 74.31 125.02 73.65 124.86C73.4 124.8 73.14 124.78 72.65 124.71C71.65 124.26 70.65 125.06 69.65 125.6C69.3581 125.712 69.1212 125.934 68.9888 126.217C68.8564 126.5 68.8389 126.824 68.94 127.12C69.0287 127.371 69.2053 127.581 69.4369 127.711C69.6686 127.842 69.9396 127.884 70.2 127.83C71.0922 127.74 71.9712 127.549 72.82 127.26C73.58 126.95 74.01 126.83 74.33 127.75C74.3858 127.883 74.4673 128.004 74.5698 128.106C74.6724 128.208 74.794 128.289 74.9277 128.343C75.0615 128.398 75.2047 128.426 75.3492 128.425C75.4937 128.425 75.6367 128.396 75.77 128.34C76.35 128.11 75.77 127.58 75.77 127.18C75.7723 127.082 75.7405 126.987 75.68 126.91C75.18 126.33 75.48 126.14 76.05 125.91C76.62 125.68 77.37 125.22 77.05 124.41C76.9087 123.984 76.632 123.615 76.2619 123.361C75.8918 123.106 75.4487 122.979 75 123M23.24 221.33C23.46 221.04 23.09 220.19 22.74 220.18C22.1632 220.537 21.6297 220.96 21.15 221.44C21.15 221.44 21.15 221.7 21.24 221.78C21.6279 222.186 21.9001 222.689 22.0285 223.236C22.1568 223.782 22.1366 224.354 21.97 224.89C21.91 225.16 22.04 225.3 22.27 225.41C22.3698 225.456 22.4822 225.468 22.5893 225.442C22.6963 225.417 22.7916 225.356 22.86 225.27C23.22 224.93 23.55 222.4 23.21 222.01C22.87 221.62 23.05 221.58 23.21 221.33M26.94 165.67C26.26 165.44 26.14 166.21 25.87 166.56C25.45 167.1 24.87 167.56 24.87 168.37C24.9058 168.617 24.9916 168.855 25.1223 169.068C25.253 169.281 25.4257 169.466 25.63 169.61C25.76 169.74 26.2 169.83 26.3 169.53C26.59 168.69 27.47 168.11 27.3 167.17C27.36 166.56 27.57 165.91 26.88 165.67M83.68 135.35C83.5138 135.315 83.3424 135.313 83.1755 135.344C83.0086 135.375 82.8495 135.439 82.7073 135.532C82.5652 135.625 82.4428 135.745 82.3471 135.886C82.2515 136.026 82.1845 136.184 82.15 136.35C82.1451 136.417 82.1451 136.483 82.15 136.55C82.15 137.12 82.94 137.85 83.72 137.94C83.8612 137.974 84.0079 137.979 84.1512 137.956C84.2945 137.932 84.4317 137.88 84.5547 137.803C84.6777 137.726 84.784 137.624 84.8673 137.505C84.9506 137.386 85.0094 137.252 85.04 137.11C85.0503 137.014 85.0503 136.916 85.04 136.82C85.13 135.93 84.69 135.47 83.67 135.37M19.59 217.83C19.27 217.83 18.51 217.49 18.43 218.55C18.4286 218.978 18.5707 219.393 18.8336 219.731C19.0965 220.068 19.465 220.307 19.88 220.41C21.01 220.41 20.78 219.46 20.95 218.82C21.21 217.87 20.5 217.82 19.59 217.82M69.19 128.76C68.9 128.62 67.72 129.76 67.79 130.23C67.92 131.01 68.65 130.92 69.07 131.04C69.49 131.16 70.21 131.13 70.07 130.53C69.93 129.93 69.9 129.1 69.18 128.76M52.35 166.64C53.05 166.54 53.04 165.88 53.24 165.44C53.44 165 52.31 163.86 51.96 163.92C51.7921 163.94 51.6376 164.022 51.5267 164.149C51.4158 164.277 51.3563 164.441 51.36 164.61C51.36 165.82 51.81 166.72 52.36 166.61M71.63 135.55C71.28 135.19 70.91 134.83 70.55 134.47C70.38 134.3 70.08 134.18 70 134.47C69.8925 134.686 69.8307 134.922 69.8187 135.163C69.8067 135.404 69.8445 135.644 69.93 135.87C70.16 136.26 70.38 136.77 71.01 136.75C71.164 136.792 71.3275 136.783 71.4756 136.723C71.6237 136.664 71.7482 136.557 71.83 136.42C72.09 136.08 71.83 135.82 71.63 135.58M63.62 119.52C63.4287 119.48 63.2313 119.48 63.04 119.52C62.59 119.72 62.13 119.97 62.21 120.52C62.29 121.07 62.83 121 63.21 121.01C63.5267 120.969 63.8407 120.909 64.15 120.83C64.91 120.71 64.86 120.38 64.45 119.88C64.3506 119.752 64.2233 119.648 64.0776 119.577C63.932 119.506 63.772 119.47 63.61 119.47M158.52 246.42C158.17 246.29 157.79 246.15 157.52 246.54C157.25 246.93 157.52 247.26 157.87 247.54C158.68 248.17 159.51 248.09 160.47 247.15C159.6 247.15 159.09 246.67 158.47 246.44M162.91 255.64C163.57 255.39 162.98 254.64 162.91 254.11C162.892 253.924 162.812 253.749 162.684 253.613C162.555 253.477 162.385 253.388 162.2 253.36C161.57 253.58 161.6 254.07 161.89 254.49C162.18 254.91 162.35 255.85 162.89 255.64M1 1H248V311H1V1ZM9 12H239.8V300.39H9V12ZM160.06 249.51C160.122 250.304 160.41 251.064 160.89 251.7C161.07 251.87 161.37 252.02 161.46 251.82C161.787 251.24 161.982 250.594 162.03 249.93C162.016 249.647 161.924 249.373 161.763 249.14C161.602 248.907 161.38 248.723 161.12 248.61C160.63 248.77 159.92 248.95 160.06 249.51Z" stroke="none"/>
</svg>
